<?xml version="1.0" encoding="utf-8"?>
<!-- Generator: Adobe Illustrator 17.0.0, SVG Export Plug-In . SVG Version: 6.00 Build 0)  -->
<!DOCTYPE svg PUBLIC "-//W3C//DTD SVG 1.1//EN" "http://www.w3.org/Graphics/SVG/1.1/DTD/svg11.dtd">
<svg version="1.1" id="Layer_1" xmlns="http://www.w3.org/2000/svg" xmlns:xlink="http://www.w3.org/1999/xlink" x="0px" y="0px"
	 width="2834.646px" height="1920.252px" viewBox="0 0 2834.646 1920.252" enable-background="new 0 0 2834.646 1920.252"
	 xml:space="preserve">
<path fill="#867550" d="M0,219.807v406.974h1738.011V219.807H0z M1503.185,263.408h161.251v48.423h-161.251V263.408z
	 M1503.185,394.973h142.527v48.423h-142.527V394.973z M113.245,583.181H54.766V263.408h58.479
	C113.245,263.408,113.245,583.181,113.245,583.181z M304.652,541.609c-7.622,11.88-17.284,20.942-29.01,27.181
	c-11.727,6.246-24.435,10.209-38.149,11.879c-13.702,1.677-26.486,2.512-38.366,2.512h-65.782v-48.423h59.843
	c8.833,0,17.054-0.688,24.663-2.058s14.237-3.805,19.871-7.31c5.634-3.493,10.056-8.291,13.255-14.384
	c3.2-6.093,4.793-14.008,4.793-23.758c0-10.656-2.052-19.03-6.169-25.123c-4.104-6.093-9.215-10.655-15.295-13.709
	c-6.105-3.039-12.721-4.945-19.883-5.71c-7.15-0.753-13.779-1.141-19.871-1.141h-61.207v-48.423h57.102
	c16.443,0,29.239-2.811,38.366-8.45c9.139-5.634,13.714-15.454,13.714-29.462c0-10.656-2.218-18.884-6.628-24.671
	c-4.422-5.78-9.598-10.05-15.537-12.79c-5.939-2.741-11.866-4.41-17.806-5.029c-5.94-0.605-10.439-0.911-13.486-0.911h-55.726
	v-48.423h72.181c20.394,0,36.913,2.595,49.557,7.769c12.631,5.182,22.458,11.727,29.469,19.642
	c6.997,7.922,11.803,16.602,14.39,26.041c2.587,9.438,3.887,18.577,3.887,27.403c0,17.667-4.958,32.822-14.849,45.459
	c-9.903,12.638-22.611,20.324-38.149,23.065v0.918c6.692,1.217,13.855,3.352,21.477,6.392c7.609,3.046,14.76,7.698,21.464,13.931
	c6.692,6.245,12.262,14.166,16.672,23.758c4.41,9.591,6.628,21.547,6.628,35.861C316.071,513.746,312.261,529.73,304.652,541.609z
	 M333.929,583.181l120.59-319.773h50.258l-21.018,62.125l-87.247,257.648H333.929z M571.018,583.181l-23.3-67.152h-107.36
	l16.902-48.423h74.921l-38.825-113.293l26.499-73.086L633.6,583.181H571.018z M679.014,311.83h-80.401v-48.423h80.401V311.83z
	 M757.581,583.181h-58.466V263.408h58.466V583.181z M858.084,311.83h-80.402v-48.423h80.402V311.83z M960.269,311.83h-80.402
	v-48.423h80.402V311.83z M1038.835,583.181h-58.466V263.408h58.466V583.181z M1139.337,311.83h-80.402v-48.423h80.402V311.83z
	 M1235.404,534.758v48.423h-58.478V263.408h58.478V534.758z M1391.173,583.181h-131.106v-48.423h131.106V583.181z M1483.085,583.181
	h-58.479V263.408h58.479V583.181z M1669.47,583.181h-166.285v-48.423h166.285V583.181z"/>
<path fill="#867550" d="M587.425,650.964v406.974h2247.221V650.964H587.425z M1867.006,684.332
	c24.051,1.516,43.77,6.111,59.154,13.804c15.371,7.699,27.557,16.99,36.543,27.882s15.308,22.58,18.966,35.065
	c3.646,12.491,5.775,24.211,6.387,35.173h-58.008c-0.918-6.086-2.447-12.561-4.575-19.412c-2.128-6.858-5.634-13.25-10.503-19.19
	c-4.868-5.939-11.114-11.191-18.723-15.76c-7.622-4.569-17.361-7.609-29.24-9.139L1867.006,684.332L1867.006,684.332z
	 M1540.198,683.878c19.183,0.906,35.702,4.073,49.57,9.509c13.855,5.43,25.351,12.447,34.491,21.037
	c9.139,8.603,16.136,18.304,21.005,29.093c4.868,10.796,7.775,22.127,8.68,34.006h-58.007c-1.224-9.132-3.812-16.595-7.775-22.382
	c-3.952-5.78-8.68-10.279-14.161-13.479c-5.481-3.199-11.268-5.48-17.36-6.851c-6.093-1.37-11.574-2.205-16.443-2.511V683.878z
	 M700.669,1014.338H642.19V694.565h12.339l46.14,126.996V1014.338z M838.631,1014.338h-43.858L676.452,694.565h52.998
	l111.923,312.463L838.631,1014.338z M991.201,1014.338h-58.466V773.597l0.906-12.339h-0.906l-80.402,216.536l-24.676-70.811
	l76.298-212.419h87.247L991.201,1014.338L991.201,1014.338z M1189.504,733.397c-17.348,1.523-31.521,6.424-42.483,14.677
	c-10.961,8.246-19.488,18.265-25.581,30.029c-6.093,11.772-10.274,24.46-12.555,38.06c-2.294,13.606-3.429,26.371-3.429,38.289
	s1.059,24.613,3.2,38.059c2.128,13.454,6.233,26.066,12.326,37.831c6.093,11.771,14.62,21.853,25.581,30.265
	c10.974,8.406,25.276,13.377,42.942,14.899v48.423c-6.692-0.306-15.002-1.217-24.893-2.74c-9.904-1.524-20.254-4.34-31.063-8.451
	c-10.808-4.11-21.629-9.973-32.438-17.589c-10.809-7.603-20.547-17.583-29.226-29.921c-8.68-12.332-15.69-27.557-21.018-45.682
	c-5.328-18.112-7.992-39.813-7.992-65.094c0-24.969,2.664-46.516,7.992-64.642c5.328-18.111,12.339-33.419,21.018-45.911
	c8.68-12.478,18.417-22.528,29.226-30.144c10.809-7.609,21.63-13.479,32.438-17.59c10.809-4.11,21.158-6.927,31.063-8.45
	c9.89-1.523,18.201-2.434,24.893-2.74L1189.504,733.397L1189.504,733.397z M1348.255,919.093
	c-5.327,18.118-12.338,33.426-21.018,45.911c-8.681,12.491-18.431,22.541-29.239,30.144c-10.809,7.616-21.617,13.479-32.426,17.589
	c-10.821,4.111-21.171,6.927-31.062,8.451c-9.904,1.523-18.201,2.434-24.906,2.74v-48.423c17.36-1.217,31.521-6.028,42.495-14.441
	c10.962-8.406,19.476-18.488,25.582-30.259c6.08-11.772,10.273-24.466,12.555-38.067c2.281-13.606,3.428-26.371,3.428-38.289
	s-1.071-24.606-3.199-38.059c-2.129-13.447-6.322-26.059-12.568-37.831c-6.246-11.764-14.836-21.853-25.798-30.265
	c-10.974-8.406-25.135-13.377-42.495-14.899v-48.423c6.705,0.306,15.002,1.217,24.906,2.74c9.89,1.524,20.241,4.34,31.062,8.45
	c10.809,4.111,21.617,9.981,32.426,17.59c10.808,7.616,20.559,17.583,29.239,29.921c8.68,12.332,15.69,27.564,21.018,45.682
	c5.328,18.119,7.993,39.818,7.993,65.094C1356.248,879.427,1353.583,900.974,1348.255,919.093z M1520.098,1022.834
	c-25.888-0.606-47.122-4.455-63.718-11.542c-16.608-7.087-29.775-15.996-39.525-26.722c-9.751-10.725-16.596-22.56-20.547-35.51
	c-3.965-12.943-6.106-25.651-6.399-38.142h58.007c0.306,5.787,1.53,12.103,3.658,18.954c2.129,6.858,5.863,13.409,11.192,19.647
	c5.328,6.246,12.631,11.727,21.936,16.443c9.279,4.728,21.082,7.539,35.396,8.451L1520.098,1022.834L1520.098,1022.834z
	 M1649.839,971.442c-7.622,12.949-17.36,23.147-29.24,30.609c-11.879,7.463-24.969,12.631-39.283,15.531
	c-14.327,2.893-28.029,4.64-41.119,5.252V974.87c5.787-0.299,12.109-1.141,18.967-2.511c6.845-1.371,13.167-3.812,18.953-7.323
	c5.775-3.505,10.656-8.311,14.62-14.416c3.952-6.093,5.94-14.034,5.94-23.797c0-9.451-2.065-17.233-6.169-23.332
	c-4.117-6.098-9.139-10.898-15.078-14.409c-5.939-3.506-12.185-6.099-18.723-7.775c-6.552-1.676-12.415-2.976-17.59-3.887
	c-6.398-1.224-12.72-2.447-18.966-3.665c-6.246-1.224-12.402-2.594-18.495-4.117c-13.102-3.052-25.581-6.482-37.461-10.292
	c-11.879-3.811-22.382-9.152-31.521-16.021c-9.139-6.858-16.442-15.55-21.923-26.072c-5.481-10.522-8.221-23.867-8.221-40.036
	c0-19.827,4.181-35.765,12.555-47.816c8.374-12.045,18.507-21.35,30.387-27.908c11.866-6.552,24.434-10.981,37.677-13.268
	c13.256-2.288,24.906-3.735,34.95-4.347V732.3c-4.271,0.306-9.446,1.001-15.525,2.071c-6.105,1.071-11.879,3.135-17.36,6.194
	c-5.481,3.059-10.209,7.272-14.161,12.625c-3.964,5.36-5.94,12.478-5.94,21.356c0,8.266,2.053,15.002,6.169,20.209
	c4.104,5.2,9.509,9.413,16.213,12.625c6.692,3.212,14.314,5.742,22.842,7.571c8.527,1.842,17.207,3.531,26.04,5.054
	c18.571,3.358,35.396,7.163,50.474,11.421c15.079,4.27,27.939,10.05,38.608,17.36c10.656,7.31,18.954,16.678,24.893,28.099
	c5.94,11.42,8.91,25.963,8.91,43.623C1661.26,941.52,1657.448,958.505,1649.839,971.442z M1846.905,731.842
	c-17.067,0.612-31.228,4.346-42.483,11.217c-11.28,6.864-20.329,16.021-27.187,27.461c-6.845,11.446-11.727,24.561-14.62,39.36
	c-2.893,14.798-4.334,30.277-4.334,46.453c0,17.704,2.206,33.49,6.628,47.37c4.41,13.887,10.502,25.862,18.265,35.924
	c7.762,10.076,17.054,18.01,27.863,23.81c10.808,5.792,22.764,9.305,35.867,10.522v48.875c-5.787,0-13.561-0.612-23.3-1.823
	c-9.75-1.224-20.254-3.658-31.521-7.31c-11.268-3.658-22.611-9.062-34.032-16.219c-11.42-7.15-21.783-16.824-31.062-29.01
	c-9.292-12.173-16.838-27.181-22.611-44.993c-5.787-17.819-8.68-39.359-8.68-64.642c0-32.272,4.18-59.454,12.555-81.543
	c8.374-22.076,19.564-39.971,33.585-53.673c13.995-13.709,30.144-23.675,48.422-29.921c18.265-6.239,37.142-9.516,56.644-9.821
	L1846.905,731.842L1846.905,731.842z M1985.022,941.291c-4.143,13.25-10.898,25.665-20.254,37.232
	c-9.368,11.579-21.91,21.47-37.627,29.697c-15.729,8.222-35.778,12.937-60.135,14.161v-48.422
	c11.573-0.918,21.464-3.582,29.685-7.998c8.234-4.41,15.078-9.891,20.56-16.443c5.481-6.544,9.598-13.778,12.338-21.699
	c2.741-7.916,4.41-15.831,5.022-23.759h58.479C1991.853,915.64,1989.164,928.048,1985.022,941.291z M2172.375,732.301
	c-17.348,1.523-31.522,6.424-42.483,14.677c-10.962,8.247-19.489,18.265-25.582,30.03c-6.092,11.771-10.273,24.459-12.554,38.059
	c-2.295,13.607-3.429,26.372-3.429,38.289c0,11.918,1.058,24.613,3.199,38.06c2.129,13.453,6.234,26.066,12.326,37.83
	c6.093,11.772,14.62,21.853,25.582,30.265c10.974,8.407,25.275,13.377,42.942,14.9v48.422c-6.692-0.306-15.002-1.218-24.894-2.741
	c-9.903-1.523-20.253-4.339-31.062-8.45s-21.63-9.973-32.438-17.589c-10.809-7.604-20.546-17.584-29.227-29.921
	c-8.68-12.332-15.689-27.557-21.017-45.682c-5.328-18.111-7.992-39.812-7.992-65.094c0-24.969,2.664-46.516,7.992-64.641
	c5.328-18.112,12.338-33.42,21.017-45.911c8.681-12.478,18.418-22.529,29.227-30.145c10.808-7.609,21.629-13.478,32.438-17.589
	c10.809-4.111,21.158-6.927,31.062-8.45c9.891-1.523,18.202-2.435,24.894-2.741L2172.375,732.301L2172.375,732.301z
	 M2331.127,917.997c-5.328,18.119-12.338,33.427-21.018,45.911c-8.68,12.492-18.43,22.541-29.24,30.145
	c-10.808,7.616-21.617,13.478-32.425,17.589c-10.821,4.111-21.171,6.927-31.062,8.45c-9.905,1.523-18.202,2.435-24.906,2.741
	v-48.422c17.361-1.217,31.521-6.029,42.496-14.442c10.961-8.406,19.476-18.488,25.581-30.259
	c6.08-11.771,10.274-24.466,12.555-38.066c2.282-13.607,3.429-26.372,3.429-38.29c0-11.917-1.071-24.605-3.2-38.059
	c-2.128-13.446-6.322-26.059-12.567-37.83c-6.246-11.765-14.837-21.853-25.798-30.265c-10.974-8.407-25.135-13.378-42.496-14.901
	v-48.422c6.705,0.306,15.002,1.218,24.906,2.741c9.89,1.523,20.24,4.339,31.062,8.45c10.808,4.111,21.617,9.98,32.425,17.589
	c10.809,7.616,20.56,17.584,29.24,29.921c8.68,12.332,15.69,27.564,21.018,45.682c5.328,18.118,7.992,39.818,7.992,65.093
	C2339.118,878.332,2336.455,899.879,2331.127,917.997z M2435.083,1013.242l-86.788-319.772h65.782l62.583,252.161l16.442,67.611
	H2435.083z M2622.386,1013.242l-56.656-250.791l-54.349,241.2l-25.135-101.414l46.6-208.767h65.781l72.64,319.772L2622.386,1013.242
	L2622.386,1013.242z M2696.39,1013.242h-4.576l-26.04-111.005l51.621-208.767h65.782L2696.39,1013.242z"/>
<path fill="#867550" d="M0,1082.122v406.974h1347.14v-406.974H0z M890.144,1112.643c19.182,0.906,35.702,4.073,49.569,9.509
	c13.855,5.43,25.352,12.447,34.491,21.037c9.139,8.603,16.136,18.304,21.005,29.093c4.869,10.796,7.775,22.126,8.68,34.006h-58.007
	c-1.224-9.132-3.811-16.595-7.775-22.382c-3.952-5.78-8.68-10.279-14.161-13.479c-5.481-3.199-11.267-5.481-17.36-6.851
	c-6.093-1.37-11.574-2.205-16.442-2.511V1112.643z M113.248,1442.007H54.769v-319.772h58.479V1442.007z M258.056,1306.791H133.349
	v-48.422h124.707V1306.791z M281.355,1170.657H133.349v-48.422h148.007v48.422H281.355z M377.423,1442.007h-58.479v-319.772h58.479
	V1442.007z M503.174,1170.657v95.933v48.422v126.995h-58.479v-319.772h58.479V1170.657z M648.441,1442.007
	c-2.434-3.652-4.27-7.233-5.481-10.733c-1.224-3.498-2.218-7.691-2.969-12.567c-0.765-4.869-1.224-10.733-1.377-17.584
	c-0.153-6.857-0.217-15.454-0.217-25.81c0-7.31-0.459-14.543-1.377-21.7c-0.918-7.151-3.581-13.625-7.992-19.412
	c-4.422-5.787-11.127-10.432-20.1-13.938c-8.987-3.499-21.707-5.251-38.149-5.251h-47.505v-48.422h52.985
	c7.316,0,14.926-0.459,22.841-1.37c7.916-0.918,15.155-3.04,21.707-6.399c6.539-3.346,11.88-8.145,15.983-14.39
	c4.118-6.233,6.169-14.843,6.169-25.811c0-11.567-2.281-20.553-6.858-26.952c-4.562-6.392-10.196-11.19-16.901-14.39
	c-6.705-3.192-13.855-5.092-21.464-5.71c-7.622-0.605-14.327-0.911-20.101-0.911h-49.798v-48.422h59.842
	c9.751,0,21.248,0.688,34.491,2.058c13.255,1.37,25.887,5.022,37.919,10.961c12.032,5.94,22.229,14.843,30.603,26.722
	c8.374,11.88,12.567,28.322,12.567,49.34c0,11.873-1.606,22.229-4.792,31.062c-3.2,8.833-7.316,16.442-12.339,22.841
	c-5.022,6.392-10.732,11.497-17.13,15.302c-6.399,3.811-12.797,6.622-19.183,8.451v0.918c11.255,3.652,20.101,8.674,26.486,15.072
	c6.399,6.399,11.038,13.479,13.931,21.241c2.893,7.769,4.728,15.69,5.481,23.752c0.765,8.075,1.147,15.76,1.147,23.07
	c0,10.668,0.076,19.572,0.229,26.728c0.153,7.157,0.612,13.243,1.377,18.272c0.752,5.022,1.886,9.362,3.415,13.019
	c1.529,3.652,3.812,7.31,6.858,10.962h-60.298V1442.007z M870.043,1451.598c-25.888-0.605-47.122-4.454-63.717-11.541
	c-16.608-7.087-29.775-15.996-39.525-26.722c-9.751-10.725-16.595-22.56-20.547-35.51c-3.965-12.944-6.106-25.651-6.399-38.142
	h58.007c0.306,5.787,1.53,12.102,3.659,18.953c2.128,6.857,5.862,13.409,11.19,19.648c5.328,6.245,12.631,11.726,21.936,16.442
	c9.279,4.729,21.082,7.54,35.396,8.451V1451.598z M999.784,1400.206c-7.621,12.95-17.36,23.148-29.239,30.609
	c-11.879,7.463-24.969,12.631-39.283,15.532c-14.327,2.893-28.028,4.639-41.118,5.251v-47.963
	c5.786-0.299,12.108-1.141,18.966-2.512c6.844-1.37,13.167-3.811,18.954-7.322c5.774-3.505,10.655-8.31,14.62-14.416
	c3.951-6.093,5.939-14.033,5.939-23.797c0-9.451-2.065-17.233-6.168-23.332c-4.117-6.099-9.14-10.898-15.079-14.409
	c-5.94-3.505-12.186-6.099-18.724-7.775c-6.552-1.676-12.415-2.976-17.589-3.888c-6.399-1.224-12.721-2.447-18.967-3.664
	c-6.246-1.224-12.402-2.594-18.494-4.117c-13.103-3.053-25.582-6.481-37.461-10.292c-11.88-3.811-22.383-9.152-31.522-16.022
	c-9.139-6.857-16.442-15.55-21.923-26.072c-5.481-10.522-8.221-23.867-8.221-40.035c0-19.827,4.181-35.765,12.555-47.816
	c8.374-12.046,18.507-21.349,30.387-27.908c11.867-6.552,24.434-10.981,37.677-13.268c13.256-2.289,24.906-3.735,34.95-4.347v48.423
	c-4.27,0.306-9.445,1.001-15.524,2.071c-6.106,1.071-11.88,3.135-17.361,6.194s-10.209,7.272-14.161,12.625
	c-3.964,5.36-5.939,12.478-5.939,21.356c0,8.266,2.052,15.002,6.168,20.209c4.104,5.2,9.509,9.413,16.214,12.625
	c6.692,3.212,14.314,5.742,22.841,7.571c8.527,1.842,17.207,3.531,26.04,5.054c18.571,3.359,35.396,7.163,50.474,11.42
	c15.079,4.27,27.939,10.05,38.608,17.36c10.656,7.31,18.954,16.678,24.893,28.099c5.94,11.42,8.909,25.964,8.909,43.623
	C1011.205,1370.285,1007.394,1387.27,999.784,1400.206z M1113.301,1170.657h-80.402v-48.422h80.402V1170.657z M1191.868,1442.007
	h-58.466v-319.772h58.466V1442.007z M1292.37,1170.657h-80.402v-48.422h80.402V1170.657z"/>
<path fill="#867550" d="M789.96,1513.279v406.974h2044.686v-406.974H789.96z M1437.531,1547.74
	c24.051,1.517,43.77,6.111,59.154,13.804c15.371,7.699,27.557,16.99,36.543,27.883c8.986,10.891,15.308,22.58,18.966,35.064
	c3.646,12.492,5.774,24.212,6.386,35.173h-58.007c-0.918-6.086-2.447-12.561-4.575-19.411c-2.128-6.858-5.634-13.25-10.503-19.19
	c-4.868-5.94-11.114-11.191-18.723-15.76c-7.622-4.57-17.361-7.609-29.24-9.139L1437.531,1547.74L1437.531,1547.74z
	 M943.763,1876.652l-110.087-319.773h63.488l100.962,319.773L943.763,1876.652L943.763,1876.652z M1015.026,1865.69l-26.499-84.512
	l69.44-224.299h63.5L1015.026,1865.69z M1214.017,1876.652h-58.479v-319.773h58.479V1876.652z M1417.431,1595.251
	c-17.067,0.612-31.228,4.346-42.483,11.216c-11.28,6.864-20.329,16.022-27.187,27.462c-6.845,11.446-11.727,24.562-14.62,39.359
	c-2.894,14.798-4.334,30.278-4.334,46.453c0,17.705,2.205,33.49,6.628,47.371c4.41,13.887,10.502,25.861,18.265,35.925
	c7.762,10.075,17.054,18.01,27.862,23.809c10.809,5.793,22.765,9.305,35.868,10.522v48.875c-5.787,0-13.561-0.612-23.3-1.822
	c-9.75-1.224-20.254-3.659-31.521-7.31c-11.268-3.659-22.611-9.062-34.032-16.219c-11.42-7.151-21.783-16.825-31.062-29.01
	c-9.292-12.172-16.838-27.181-22.611-44.993c-5.787-17.82-8.68-39.36-8.68-64.642c0-32.273,4.18-59.453,12.554-81.543
	c8.375-22.076,19.565-39.972,33.586-53.674c13.995-13.708,30.144-23.676,48.422-29.921c18.265-6.239,37.142-9.515,56.644-9.82
	L1417.431,1595.251L1417.431,1595.251z M1555.547,1804.7c-4.143,13.25-10.898,25.664-20.254,37.231
	c-9.368,11.579-21.91,21.471-37.627,29.698c-15.729,8.221-35.778,12.937-60.135,14.161v-48.423
	c11.573-0.918,21.464-3.581,29.685-7.998c8.234-4.409,15.078-9.89,20.56-16.442c5.481-6.545,9.598-13.779,12.338-21.7
	c2.741-7.915,4.41-15.83,5.022-23.758h58.479C1562.378,1779.048,1559.688,1791.457,1555.547,1804.7z M1662.74,1605.301h-80.401
	v-48.422h80.401V1605.301z M1741.307,1876.652h-58.466v-319.773h58.466V1876.652z M1841.81,1605.301h-80.402v-48.422h80.402
	V1605.301z M2004.193,1595.71c-17.347,1.523-31.521,6.424-42.483,14.677c-10.961,8.247-19.488,18.265-25.581,30.029
	c-6.093,11.771-10.274,24.46-12.555,38.06c-2.294,13.606-3.428,26.371-3.428,38.289s1.058,24.613,3.199,38.059
	c2.128,13.454,6.233,26.066,12.326,37.831c6.093,11.771,14.62,21.853,25.581,30.265c10.975,8.406,25.276,13.377,42.942,14.9v48.422
	c-6.692-0.306-15.002-1.217-24.893-2.74c-9.903-1.523-20.254-4.34-31.062-8.451c-10.809-4.111-21.63-9.974-32.439-17.59
	c-10.808-7.603-20.547-17.583-29.226-29.921c-8.68-12.332-15.69-27.557-21.018-45.682c-5.327-18.112-7.992-39.813-7.992-65.094
	c0-24.969,2.664-46.516,7.992-64.642c5.328-18.111,12.339-33.419,21.018-45.911c8.68-12.478,18.418-22.528,29.226-30.144
	c10.809-7.609,21.63-13.479,32.439-17.589c10.808-4.111,21.158-6.927,31.062-8.451c9.89-1.523,18.201-2.434,24.893-2.74
	L2004.193,1595.71L2004.193,1595.71z M2162.946,1781.407c-5.328,18.118-12.339,33.426-21.019,45.911
	c-8.68,12.492-18.43,22.542-29.24,30.144c-10.809,7.616-21.617,13.479-32.426,17.59c-10.821,4.11-21.17,6.927-31.062,8.451
	c-9.903,1.523-18.201,2.434-24.906,2.74v-48.422c17.36-1.218,31.521-6.029,42.495-14.442c10.962-8.406,19.476-18.488,25.582-30.259
	c6.08-11.771,10.273-24.466,12.555-38.067c2.281-13.606,3.428-26.371,3.428-38.289s-1.071-24.606-3.199-38.059
	c-2.129-13.448-6.322-26.059-12.568-37.831c-6.246-11.764-14.836-21.853-25.798-30.265c-10.974-8.406-25.135-13.377-42.495-14.9
	v-48.422c6.705,0.306,15.002,1.217,24.906,2.74c9.891,1.524,20.241,4.34,31.062,8.451c10.809,4.11,21.617,9.98,32.426,17.589
	c10.809,7.616,20.56,17.583,29.24,29.921c8.68,12.332,15.69,27.564,21.019,45.682c5.327,18.119,7.991,39.819,7.991,65.094
	C2170.937,1741.741,2168.273,1763.288,2162.946,1781.407z M2280.846,1605.301v95.933v48.422v126.996h-58.478v-319.773h58.478
	V1605.301z M2426.112,1876.652c-2.434-3.652-4.27-7.233-5.481-10.733c-1.223-3.498-2.218-7.692-2.969-12.567
	c-0.765-4.869-1.223-10.733-1.376-17.583c-0.153-6.858-0.216-15.454-0.216-25.81c0-7.31-0.459-14.543-1.376-21.7
	c-0.918-7.15-3.582-13.625-7.992-19.412c-4.423-5.787-11.128-10.432-20.101-13.938c-8.986-3.498-21.707-5.252-38.149-5.252h-47.505
	v-48.422h52.986c7.315,0,14.925-0.459,22.841-1.37c7.915-0.918,15.155-3.04,21.706-6.399c6.54-3.346,11.88-8.145,15.984-14.39
	c4.116-6.233,6.168-14.843,6.168-25.811c0-11.566-2.281-20.552-6.856-26.951c-4.563-6.392-10.197-11.192-16.902-14.39
	c-6.704-3.193-13.855-5.092-21.464-5.71c-7.622-0.605-14.326-0.911-20.1-0.911h-49.799v-48.422h59.843
	c9.75,0,21.248,0.688,34.491,2.059c13.255,1.37,25.887,5.021,37.919,10.961c12.032,5.94,22.229,14.843,30.603,26.722
	s12.568,28.322,12.568,49.339c0,11.873-1.606,22.229-4.793,31.063c-3.2,8.833-7.316,16.442-12.338,22.841
	c-5.021,6.392-10.732,11.496-17.13,15.301c-6.399,3.811-12.797,6.622-19.183,8.45v0.918c11.255,3.652,20.101,8.673,26.486,15.072
	c6.399,6.399,11.039,13.479,13.931,21.241c2.893,7.769,4.729,15.69,5.481,23.752c0.765,8.075,1.147,15.76,1.147,23.07
	c0,10.669,0.076,19.572,0.229,26.729s0.612,13.243,1.376,18.271c0.752,5.022,1.887,9.363,3.416,13.02
	c1.53,3.652,3.811,7.31,6.857,10.962L2426.112,1876.652L2426.112,1876.652z M2668.631,1876.652h-58.467v-127.455l-117.403-192.318
	h68.968l77.662,140.245l29.24,52.074V1876.652z M2680.969,1728.645l-29.698-52.539l65.782-119.227h68.981L2680.969,1728.645z"/>
<path fill="#867550" d="M2139.609,219.807V627.57h695.037V219.807H2139.609z M2337.341,313.617
	c-17.348,1.523-31.521,6.424-42.483,14.677c-10.961,8.247-19.489,18.265-25.581,30.029c-6.093,11.772-10.274,24.46-12.555,38.06
	c-2.294,13.606-3.429,26.372-3.429,38.289c0,11.918,1.059,24.613,3.2,38.059c2.128,13.454,6.233,26.066,12.326,37.831
	c6.092,11.771,14.62,21.853,25.581,30.265c10.974,8.406,25.276,13.377,42.941,14.9v48.422c-6.692-0.306-15.002-1.217-24.894-2.74
	c-9.903-1.523-20.253-4.34-31.062-8.451c-10.808-4.111-21.63-9.974-32.438-17.59c-10.809-7.603-20.547-17.583-29.227-29.921
	c-8.681-12.332-15.69-27.557-21.018-45.682c-5.328-18.112-7.992-39.813-7.992-65.094c0-24.969,2.664-46.516,7.992-64.642
	c5.328-18.111,12.338-33.419,21.018-45.911c8.68-12.478,18.417-22.528,29.227-30.144c10.808-7.609,21.63-13.479,32.438-17.589
	c10.809-4.111,21.158-6.927,31.062-8.451c9.891-1.523,18.202-2.434,24.894-2.74V313.617z M2496.092,499.314
	c-5.328,18.118-12.338,33.426-21.019,45.911c-8.68,12.492-18.43,22.541-29.239,30.144c-10.809,7.616-21.617,13.479-32.426,17.59
	c-10.821,4.11-21.171,6.927-31.062,8.451c-9.904,1.523-18.202,2.434-24.906,2.74v-48.422c17.36-1.218,31.521-6.029,42.495-14.442
	c10.962-8.406,19.476-18.488,25.582-30.259c6.08-11.772,10.273-24.466,12.554-38.067c2.282-13.606,3.429-26.371,3.429-38.289
	c0-11.917-1.071-24.606-3.2-38.059c-2.128-13.447-6.321-26.059-12.567-37.831c-6.246-11.764-14.836-21.853-25.798-30.265
	c-10.974-8.406-25.135-13.377-42.495-14.9v-48.423c6.704,0.306,15.002,1.217,24.906,2.74c9.89,1.524,20.241,4.34,31.062,8.451
	c10.809,4.11,21.617,9.98,32.426,17.589c10.808,7.616,20.559,17.583,29.239,29.921c8.681,12.332,15.69,27.564,21.019,45.682
	c5.328,18.119,7.991,39.819,7.991,65.094C2504.084,459.648,2501.42,481.195,2496.092,499.314z M2613.993,594.559h-58.479V274.786
	h58.479V594.559z M2758.801,459.342h-124.707V410.92h124.707V459.342z M2782.1,323.208h-148.007v-48.423H2782.1V323.208z"/>
<g>
	<rect x="0" y="15.518" fill="none" width="1812.302" height="301.69"/>
	<g enable-background="new    ">
		<path fill="#867550" d="M44.85,123.668c-6.6-0.202-12.026-1.327-16.275-3.375c-4.252-2.049-7.65-4.625-10.2-7.726
			c-2.55-3.099-4.376-6.45-5.475-10.05c-1.102-3.6-1.852-7.05-2.25-10.35H29.1c0.199,1.701,0.624,3.449,1.275,5.25
			c0.649,1.8,1.624,3.449,2.925,4.949c1.299,1.5,2.899,2.801,4.8,3.9c1.898,1.102,4.148,1.852,6.75,2.25V123.668z M33.45,37.568
			l-2.55,18.15c0.398-0.398,1.148-1.05,2.25-1.95c1.099-0.9,2.574-1.774,4.425-2.625c1.849-0.849,4.125-1.599,6.825-2.25
			c2.7-0.649,5.899-0.975,9.6-0.975c4.999,0,9.6,0.801,13.8,2.399c4.2,1.601,7.8,3.976,10.8,7.125c3,3.15,5.325,7.05,6.975,11.7
			c1.65,4.65,2.475,10.026,2.475,16.125c0,8.1-1.35,14.602-4.05,19.5c-2.7,4.9-5.977,8.7-9.825,11.4
			c-3.851,2.699-7.852,4.549-12,5.55c-4.15,0.998-7.725,1.599-10.725,1.8v-14.85c1.898-0.301,3.874-0.849,5.925-1.65
			c2.048-0.799,3.9-2.074,5.55-3.825c1.65-1.748,3-4.05,4.05-6.899c1.05-2.851,1.575-6.474,1.575-10.875
			c0-5.199-0.801-9.249-2.4-12.15c-1.601-2.899-3.476-5.049-5.625-6.45c-2.151-1.399-4.327-2.25-6.525-2.55
			c-2.201-0.3-3.9-0.45-5.1-0.45c-1.301,0-2.751,0.127-4.35,0.375c-1.601,0.251-3.225,0.675-4.875,1.275
			c-1.65,0.6-3.225,1.477-4.725,2.625c-1.5,1.15-2.752,2.625-3.75,4.425H13.05l4.35-34.95H33.45z M18.15,31.418l2.1-15.9H81.6v15.9
			H34.35H18.15z"/>
	</g>
	<g enable-background="new    ">
		<path fill="#867550" d="M105.149,100.268h19.8v20.25h-19.8V100.268z"/>
	</g>
	<g enable-background="new    ">
		<path fill="#867550" d="M130.048,34.268h2.1c3.699,0,7.125-0.474,10.275-1.425c3.15-0.949,5.925-2.25,8.325-3.9
			c2.4-1.649,4.35-3.623,5.85-5.925c1.5-2.299,2.449-4.8,2.85-7.5h14.1v105h-19.2v-76.5h-24.3V34.268z"/>
	</g>
	<g enable-background="new    ">
		<path fill="#867550" d="M219.296,34.268h2.1c3.699,0,7.125-0.474,10.275-1.425c3.15-0.949,5.925-2.25,8.325-3.9
			c2.4-1.649,4.35-3.623,5.85-5.925c1.5-2.299,2.449-4.8,2.85-7.5h14.1v105h-19.2v-76.5h-24.3V34.268z"/>
	</g>
	<g enable-background="new    ">
		<path fill="#867550" d="M284.695,100.268h19.8v20.25h-19.8V100.268z"/>
		<path fill="#867550" d="M403.494,104.618v15.9h-75.75c-0.101-3,0.049-5.824,0.45-8.475c0.398-2.648,0.999-5.124,1.8-7.426H403.494
			z M362.994,28.418c-4.001,0.4-7.125,1.375-9.375,2.925c-2.25,1.552-3.926,3.352-5.025,5.399c-1.102,2.051-1.777,4.102-2.025,6.15
			c-0.25,2.051-0.375,3.727-0.375,5.025v2.55h-18.45v-2.7c0-7.5,1.35-13.549,4.05-18.15c2.7-4.598,5.949-8.123,9.75-10.574
			c3.799-2.449,7.673-4.1,11.625-4.95c3.949-0.849,7.224-1.374,9.825-1.575V28.418z M332.694,98.318c1.599-3,3.549-5.7,5.85-8.1
			c2.299-2.4,4.8-4.624,7.5-6.675c2.7-2.049,5.475-3.949,8.325-5.7c2.85-1.749,5.723-3.525,8.625-5.325
			c2.798-1.699,5.524-3.424,8.175-5.175c2.648-1.749,5-3.698,7.05-5.851c2.048-2.148,3.698-4.549,4.95-7.199
			c1.25-2.648,1.875-5.675,1.875-9.075c0-0.999-0.126-2.374-0.375-4.125c-0.25-1.749-0.9-3.499-1.95-5.25
			c-1.05-1.749-2.602-3.323-4.65-4.726c-2.051-1.398-4.875-2.299-8.475-2.699V12.368c4.999,0.202,9.623,1.027,13.875,2.476
			c4.249,1.45,7.95,3.524,11.1,6.225c3.15,2.7,5.6,6.052,7.35,10.05c1.749,4.001,2.625,8.7,2.625,14.101
			c0,5.7-0.9,10.575-2.7,14.625c-1.8,4.05-4.2,7.601-7.2,10.649c-3,3.052-6.401,5.775-10.2,8.176c-3.801,2.399-7.701,4.8-11.7,7.199
			c-5.1,3.102-9.026,5.576-11.775,7.426c-2.752,1.852-4.976,3.524-6.675,5.024H332.694z"/>
	</g>
	<g enable-background="new    ">
		<path fill="#867550" d="M450.593,123.518c-7.5-0.502-13.552-2.7-18.15-6.6c-4.601-3.9-8.151-8.6-10.65-14.101
			c-2.5-5.498-4.151-11.349-4.95-17.55c-0.802-6.199-1.2-11.948-1.2-17.25c0-3.499,0.173-7.249,0.525-11.25
			c0.349-3.998,0.975-7.999,1.875-12c0.9-3.998,2.175-7.85,3.825-11.55c1.65-3.698,3.773-7.024,6.375-9.976
			c2.599-2.948,5.723-5.374,9.375-7.274c3.649-1.898,7.973-3.05,12.975-3.45v16.076c-1.601,0.3-3.3,1.026-5.1,2.177
			c-1.8,1.153-3.476,3.155-5.025,6.01c-1.552,2.854-2.827,6.787-3.825,11.794c-1.001,5.008-1.5,11.52-1.5,19.53
			c0,8.013,0.499,14.498,1.5,19.458c0.999,4.959,2.273,8.89,3.825,11.793c1.549,2.904,3.225,4.932,5.025,6.085
			c1.8,1.153,3.499,1.877,5.1,2.177V123.518z M457.193,107.442c1.599-0.3,3.3-1.023,5.1-2.177c1.8-1.151,3.474-3.155,5.025-6.01
			c1.549-2.854,2.824-6.785,3.825-11.794c0.999-5.006,1.5-11.517,1.5-19.53c0-7.912-0.501-14.372-1.5-19.38
			c-1.001-5.009-2.276-8.965-3.825-11.869c-1.551-2.904-3.225-4.932-5.025-6.084c-1.8-1.153-3.501-1.88-5.1-2.18v-15.9
			c5,0.4,9.35,1.552,13.05,3.45c3.698,1.9,6.848,4.301,9.45,7.2c2.6,2.901,4.699,6.225,6.3,9.975c1.598,3.75,2.85,7.627,3.75,11.625
			c0.9,4.001,1.523,8.002,1.875,12c0.349,4.001,0.525,7.751,0.525,11.25c0,5.302-0.427,11.051-1.275,17.25
			c-0.851,6.201-2.527,12.052-5.025,17.55c-2.501,5.501-6.026,10.177-10.575,14.025c-4.552,3.849-10.575,6.075-18.075,6.675V107.442
			z"/>
	</g>
	<g enable-background="new    ">
		<path fill="#867550" d="M511.191,34.268h2.1c3.699,0,7.125-0.474,10.275-1.425c3.15-0.949,5.925-2.25,8.325-3.9
			c2.4-1.649,4.35-3.623,5.85-5.925c1.5-2.299,2.449-4.8,2.85-7.5h14.1v105h-19.2v-76.5h-24.3V34.268z"/>
	</g>
	<g enable-background="new    ">
		<path fill="#867550" d="M627.439,107.018c4.699-1.299,8.048-3.825,10.05-7.575c1.999-3.75,3-8.074,3-12.975
			c0-2.899-0.352-5.648-1.05-8.25c-0.701-2.6-1.852-4.875-3.45-6.825c-1.601-1.95-3.626-3.474-6.075-4.575
			c-2.451-1.099-5.376-1.649-8.775-1.649c-4.102,0-7.401,0.7-9.9,2.1c-2.501,1.401-4.451,3.15-5.85,5.25
			c-1.401,2.1-2.351,4.401-2.85,6.9c-0.501,2.5-0.75,4.852-0.75,7.05c0,2.2,0.249,4.525,0.75,6.975
			c0.5,2.452,1.449,4.726,2.85,6.825c1.399,2.1,3.324,3.851,5.775,5.25c2.449,1.401,5.674,2.151,9.675,2.25v15.9
			c-5.801,0-10.8-0.776-15-2.325c-4.2-1.55-7.725-3.624-10.575-6.226c-2.85-2.599-5.125-5.599-6.825-9
			c-1.702-3.398-3-6.949-3.9-10.649c-0.9-3.698-1.5-7.399-1.8-11.101c-0.3-3.698-0.45-7.199-0.45-10.5
			c0-12.698,1.2-22.973,3.6-30.824c2.4-7.85,5.449-14,9.15-18.45c3.699-4.448,7.824-7.5,12.375-9.15
			c4.549-1.649,9.023-2.625,13.425-2.925v15.9c-2.001,0.201-4.076,0.775-6.225,1.725c-2.151,0.951-4.177,2.526-6.075,4.725
			c-1.9,2.201-3.525,5.227-4.875,9.075c-1.35,3.851-2.175,8.775-2.475,14.775h0.3c0.799-1.1,1.8-2.225,3-3.375
			c1.2-1.148,2.749-2.175,4.65-3.075c1.898-0.9,4.148-1.624,6.75-2.175c2.599-0.549,5.7-0.825,9.3-0.825
			c10.699,0,19.174,3.127,25.425,9.375c6.249,6.251,9.375,15.225,9.375,26.925c0,10.901-2.901,19.627-8.7,26.175
			c-5.801,6.551-13.75,10.426-23.85,11.625V107.018z M627.439,12.518c5.1,0.3,9.548,1.252,13.35,2.85
			c3.799,1.602,6.975,3.652,9.525,6.15c2.55,2.501,4.549,5.275,6,8.325c1.448,3.052,2.423,6.225,2.925,9.524h-18.45
			c-0.501-2.1-1.251-3.824-2.25-5.175c-1-1.35-2.1-2.423-3.3-3.225c-1.2-0.8-2.475-1.399-3.825-1.8
			c-1.35-0.398-2.676-0.649-3.975-0.75V12.518z"/>
		<path fill="#867550" d="M708.436,74.018h132v12.3h-132V74.018z"/>
		<path fill="#867550" d="M901.183,34.268h2.1c3.699,0,7.125-0.474,10.275-1.425c3.15-0.949,5.925-2.25,8.325-3.9
			c2.4-1.649,4.35-3.623,5.85-5.925c1.5-2.299,2.449-4.8,2.85-7.5h14.1v105h-19.2v-76.5h-24.3V34.268z"/>
		<path fill="#867550" d="M1005.282,123.668c-6.599-0.202-12.025-1.327-16.274-3.375c-4.252-2.049-7.65-4.625-10.2-7.726
			c-2.55-3.099-4.376-6.45-5.475-10.05c-1.102-3.6-1.852-7.05-2.25-10.35h18.45c0.199,1.701,0.624,3.449,1.275,5.25
			c0.649,1.8,1.624,3.449,2.925,4.949c1.299,1.5,2.899,2.801,4.8,3.9c1.898,1.102,4.147,1.852,6.749,2.25V123.668z M993.883,37.568
			l-2.55,18.15c0.398-0.398,1.148-1.05,2.25-1.95c1.099-0.9,2.574-1.774,4.425-2.625c1.849-0.849,4.125-1.599,6.825-2.25
			c2.699-0.649,5.898-0.975,9.6-0.975c5,0,9.6,0.801,13.801,2.399c4.199,1.601,7.799,3.976,10.799,7.125
			c3,3.15,5.326,7.05,6.977,11.7c1.648,4.65,2.475,10.026,2.475,16.125c0,8.1-1.35,14.602-4.051,19.5
			c-2.699,4.9-5.977,8.7-9.824,11.4c-3.852,2.699-7.852,4.549-12,5.55c-4.15,0.998-7.725,1.599-10.725,1.8v-14.85
			c1.898-0.301,3.873-0.849,5.924-1.65c2.049-0.799,3.9-2.074,5.551-3.825c1.65-1.748,3-4.05,4.049-6.899
			c1.051-2.851,1.576-6.474,1.576-10.875c0-5.199-0.803-9.249-2.4-12.15c-1.602-2.899-3.477-5.049-5.625-6.45
			c-2.152-1.399-4.326-2.25-6.525-2.55c-2.201-0.3-3.9-0.45-5.1-0.45c-1.301,0-2.752,0.127-4.35,0.375
			c-1.602,0.251-3.225,0.675-4.875,1.275c-1.65,0.6-3.225,1.477-4.725,2.625c-1.5,1.15-2.752,2.625-3.75,4.425h-18.15l4.35-34.95
			H993.883z M978.583,31.418l2.1-15.9h61.349v15.9h-47.249H978.583z"/>
		<path fill="#867550" d="M1066.332,100.268h19.8v20.25h-19.8V100.268z"/>
		<path fill="#867550" d="M1146.88,123.668c-6.6-0.202-12.025-1.327-16.274-3.375c-4.252-2.049-7.65-4.625-10.2-7.726
			c-2.55-3.099-4.376-6.45-5.475-10.05c-1.102-3.6-1.852-7.05-2.25-10.35h18.449c0.199,1.701,0.624,3.449,1.275,5.25
			c0.649,1.8,1.624,3.449,2.925,4.949c1.299,1.5,2.899,2.801,4.8,3.9c1.898,1.102,4.148,1.852,6.75,2.25V123.668z M1135.48,37.568
			l-2.55,18.15c0.398-0.398,1.148-1.05,2.25-1.95c1.099-0.9,2.573-1.774,4.425-2.625c1.849-0.849,4.125-1.599,6.825-2.25
			c2.699-0.649,5.898-0.975,9.6-0.975c4.999,0,9.6,0.801,13.8,2.399c4.2,1.601,7.8,3.976,10.8,7.125c3,3.15,5.325,7.05,6.976,11.7
			c1.649,4.65,2.475,10.026,2.475,16.125c0,8.1-1.35,14.602-4.05,19.5c-2.7,4.9-5.977,8.7-9.825,11.4
			c-3.851,2.699-7.852,4.549-12,5.55c-4.15,0.998-7.725,1.599-10.725,1.8v-14.85c1.898-0.301,3.874-0.849,5.925-1.65
			c2.049-0.799,3.9-2.074,5.55-3.825c1.65-1.748,3-4.05,4.05-6.899c1.051-2.851,1.575-6.474,1.575-10.875
			c0-5.199-0.802-9.249-2.399-12.15c-1.602-2.899-3.477-5.049-5.625-6.45c-2.152-1.399-4.327-2.25-6.525-2.55
			c-2.201-0.3-3.9-0.45-5.1-0.45c-1.301,0-2.752,0.127-4.351,0.375c-1.601,0.251-3.225,0.675-4.875,1.275
			c-1.649,0.6-3.225,1.477-4.725,2.625c-1.5,1.15-2.752,2.625-3.75,4.425h-18.15l4.351-34.95H1135.48z M1120.18,31.418l2.1-15.9
			h61.35v15.9h-47.25H1120.18z"/>
		<path fill="#867550" d="M1207.929,100.268h19.8v20.25h-19.8V100.268z"/>
		<path fill="#867550" d="M1326.727,104.618v15.9h-75.75c-0.101-3,0.05-5.824,0.45-8.475c0.398-2.648,0.999-5.124,1.8-7.426
			H1326.727z M1286.227,28.418c-4,0.4-7.125,1.375-9.375,2.925c-2.25,1.552-3.926,3.352-5.024,5.399
			c-1.102,2.051-1.776,4.102-2.025,6.15c-0.251,2.051-0.375,3.727-0.375,5.025v2.55h-18.45v-2.7c0-7.5,1.351-13.549,4.051-18.15
			c2.699-4.598,5.948-8.123,9.75-10.574c3.799-2.449,7.673-4.1,11.625-4.95c3.949-0.849,7.223-1.374,9.824-1.575V28.418z
			 M1255.927,98.318c1.599-3,3.549-5.7,5.851-8.1c2.299-2.4,4.8-4.624,7.5-6.675c2.699-2.049,5.475-3.949,8.324-5.7
			c2.851-1.749,5.724-3.525,8.625-5.325c2.799-1.699,5.524-3.424,8.176-5.175c2.648-1.749,4.999-3.698,7.05-5.851
			c2.048-2.148,3.698-4.549,4.95-7.199c1.249-2.648,1.875-5.675,1.875-9.075c0-0.999-0.127-2.374-0.375-4.125
			c-0.251-1.749-0.9-3.499-1.95-5.25c-1.05-1.749-2.602-3.323-4.65-4.726c-2.051-1.398-4.875-2.299-8.475-2.699V12.368
			c4.999,0.202,9.623,1.027,13.875,2.476c4.249,1.45,7.95,3.524,11.1,6.225c3.15,2.7,5.6,6.052,7.351,10.05
			c1.748,4.001,2.625,8.7,2.625,14.101c0,5.7-0.9,10.575-2.7,14.625s-4.2,7.601-7.2,10.649c-3,3.052-6.4,5.775-10.2,8.176
			c-3.802,2.399-7.701,4.8-11.7,7.199c-5.1,3.102-9.025,5.576-11.774,7.426c-2.752,1.852-4.976,3.524-6.675,5.024H1255.927z"/>
	</g>
	<g enable-background="new    ">
		<path fill="#867550" d="M1380.275,123.518c-7.5-0.502-13.552-2.7-18.15-6.6c-4.601-3.9-8.151-8.6-10.65-14.101
			c-2.5-5.498-4.151-11.349-4.95-17.55c-0.802-6.199-1.2-11.948-1.2-17.25c0-3.499,0.173-7.249,0.525-11.25
			c0.349-3.998,0.975-7.999,1.875-12c0.9-3.998,2.175-7.85,3.825-11.55c1.65-3.698,3.773-7.024,6.375-9.976
			c2.599-2.948,5.723-5.374,9.375-7.274c3.649-1.898,7.973-3.05,12.975-3.45v16.076c-1.601,0.3-3.3,1.026-5.1,2.177
			c-1.8,1.153-3.476,3.155-5.025,6.01c-1.552,2.854-2.827,6.787-3.825,11.794c-1.001,5.008-1.5,11.52-1.5,19.53
			c0,8.013,0.499,14.498,1.5,19.458c0.999,4.959,2.273,8.89,3.825,11.793c1.549,2.904,3.225,4.932,5.025,6.085
			c1.8,1.153,3.499,1.877,5.1,2.177V123.518z M1386.875,107.442c1.599-0.3,3.3-1.023,5.1-2.177c1.8-1.151,3.474-3.155,5.025-6.01
			c1.549-2.854,2.824-6.785,3.825-11.794c0.999-5.006,1.5-11.517,1.5-19.53c0-7.912-0.501-14.372-1.5-19.38
			c-1.001-5.009-2.276-8.965-3.825-11.869c-1.551-2.904-3.225-4.932-5.025-6.084c-1.8-1.153-3.501-1.88-5.1-2.18v-15.9
			c5,0.4,9.35,1.552,13.05,3.45c3.698,1.9,6.848,4.301,9.45,7.2c2.6,2.901,4.699,6.225,6.3,9.975c1.598,3.75,2.85,7.627,3.75,11.625
			c0.9,4.001,1.523,8.002,1.875,12c0.35,4.001,0.525,7.751,0.525,11.25c0,5.302-0.427,11.051-1.275,17.25
			c-0.851,6.201-2.526,12.052-5.024,17.55c-2.501,5.501-6.026,10.177-10.575,14.025c-4.552,3.849-10.575,6.075-18.075,6.675V107.442
			z"/>
	</g>
	<g enable-background="new    ">
		<path fill="#867550" d="M1437.874,34.268h2.1c3.699,0,7.125-0.474,10.275-1.425c3.15-0.949,5.925-2.25,8.325-3.9
			c2.399-1.649,4.35-3.623,5.85-5.925c1.5-2.299,2.449-4.8,2.851-7.5h14.1v105h-19.2v-76.5h-24.3V34.268z"/>
		<path fill="#867550" d="M1561.925,31.418h-63.45v-15.9h81v13.2l-2.55,2.7H1561.925z M1571.074,38.018
			c-4.601,5.602-8.526,11.227-11.774,16.875c-3.251,5.65-6.326,11.876-9.226,18.675c-1.8,4.102-3.3,7.95-4.5,11.55
			c-1.2,3.601-2.227,7.227-3.075,10.875c-0.851,3.652-1.551,7.451-2.1,11.4c-0.551,3.951-1.026,8.325-1.425,13.125h-20.101
			c0.9-7.1,2.449-14.524,4.65-22.275c2.198-7.748,4.748-15.074,7.65-21.975c2.299-5.4,5.374-11.325,9.225-17.775
			c3.849-6.449,8.975-13.274,15.375-20.475H1571.074z"/>
	</g>
</g>
<g enable-background="new    ">
	<path fill="#867550" d="M41.199,1646.699h-7.297v-39.904h7.297v15.961h17.786v-15.961h7.297v39.904h-7.297v-17.9H41.199V1646.699z"
		/>
	<path fill="#867550" d="M75.227,1606.795h6.841v6.042h-6.841V1606.795z M82.068,1617.74v28.959h-6.841v-28.959H82.068z"/>
	<path fill="#867550" d="M95.063,1637.863c-0.057,3.934,3.706,5.302,6.784,5.302c2.565,0,5.872-0.741,5.872-4.675
		c0-2.508-1.54-3.42-5.359-4.104c-1.026-0.171-2.109-0.342-3.135-0.513c-6.328-1.141-9.463-3.136-9.463-8.552
		c0-7.639,7.981-8.722,12.085-8.722c9.349,0,12.2,4.048,12.313,8.836h-6.441c-0.229-2.565-2.337-4.161-5.644-4.161
		c-2.793,0-5.245,0.741-5.245,3.591c0,3.592,3.706,3.991,7.468,4.618c4.276,0.684,10.604,1.425,10.604,8.607
		c0,7.069-6.271,9.749-12.827,9.749c-10.831,0-13.567-5.645-13.853-9.977H95.063z"/>
	<path fill="#867550" d="M122.422,1617.74v-8.666h6.841v8.666h6.043v4.674h-6.043v16.361c0,1.938,0.057,3.592,3.363,3.592
		c1.14,0,1.938-0.114,2.68-0.343v4.675c-1.71,0.456-3.592,0.684-5.587,0.684c-7.183,0-7.297-4.275-7.297-6.327v-18.642h-4.675
		v-4.674H122.422z"/>
	<path fill="#867550" d="M153.83,1616.6c12.313,0,14.936,10.033,14.936,15.62s-2.622,15.62-14.936,15.62
		s-14.936-10.033-14.936-15.62S141.517,1616.6,153.83,1616.6z M153.83,1643.165c2.451,0,7.639-1.026,7.639-10.945
		s-5.188-10.945-7.639-10.945s-7.639,1.026-7.639,10.945S151.379,1643.165,153.83,1643.165z"/>
	<path fill="#867550" d="M193.331,1621.616c-9.007-0.228-10.831,5.017-11.116,9.178c-0.057,0.97-0.057,1.938-0.057,2.965v12.94
		h-6.841v-28.959h6.841v5.301h0.114c1.938-4.846,6.727-5.871,9.919-5.871h1.14V1621.616z"/>
	<path fill="#867550" d="M196.864,1606.795h6.841v6.042h-6.841V1606.795z M203.704,1617.74v28.959h-6.841v-28.959H203.704z"/>
	<path fill="#867550" d="M238.476,1636.096c-0.456,4.219-3.078,11.744-13.682,11.744c-9.862,0-14.537-6.385-14.537-15.563
		c0-14.821,10.546-15.677,14.309-15.677c8.893,0,13.168,5.188,13.795,10.774h-6.499c-0.342-3.021-2.395-6.1-6.898-6.1
		c-5.644,0-7.411,5.073-7.411,11.002c0,9.064,4.561,10.889,7.81,10.889c5.074,0,6.499-4.39,6.613-7.069H238.476z"/>
	<path fill="#867550" d="M243.374,1626.689c-0.114-5.301,3.705-10.09,13.226-10.09c11.686,0,12.484,6.841,12.484,10.262v11.572
		c0,2.736,0.114,3.705,2.508,3.534v4.731c-1.71,0.114-2.452,0.171-3.021,0.171c-1.767,0-5.017-0.228-5.644-3.763
		c-2.508,3.192-5.758,4.275-9.634,4.275c-10.033,0-10.66-5.985-10.66-8.38c0-6.042,5.358-7.753,6.67-8.095
		c2.223-0.627,4.332-0.741,6.727-1.083c0.912-0.114,1.881-0.285,2.793-0.399c2.394-0.342,3.42-0.285,3.42-3.135
		c0-4.561-3.42-5.017-5.644-5.017c-4.96,0-6.898,2.736-6.727,5.415H243.374z M262.243,1632.789
		c-0.741,0.514-1.653,0.799-4.903,1.197c-4.674,0.627-7.639,1.026-7.639,4.789c0,2.223,1.311,3.934,4.503,3.934
		c3.363,0,8.038-1.368,8.038-8.894V1632.789z"/>
	<path fill="#867550" d="M284.358,1606.795v39.904h-6.841v-39.904H284.358z"/>
	<path fill="#867550" d="M293.021,1628.343h14.822v6.043h-14.822V1628.343z"/>
	<path fill="#867550" d="M344.552,1606.795v39.904h-6.271v-2.851h-0.114c-2.793,3.421-7.012,3.991-9.349,3.991
		c-6.784,0-13.967-4.219-13.967-15.449c0-8.209,4.047-15.791,13.739-15.791c0.798,0,6.841,0,9.121,4.104v-13.909H344.552z
		 M330.3,1643.165c4.903,0,7.924-4.561,7.924-10.889c0-9.406-5.017-11.002-7.981-11.002c-4.162,0-8.095,2.964-8.095,11.173
		C322.148,1642.139,327.963,1643.165,330.3,1643.165z"/>
	<path fill="#867550" d="M366.038,1616.6c12.313,0,14.936,10.033,14.936,15.62s-2.622,15.62-14.936,15.62
		s-14.936-10.033-14.936-15.62S353.725,1616.6,366.038,1616.6z M366.038,1643.165c2.451,0,7.639-1.026,7.639-10.945
		s-5.188-10.945-7.639-10.945s-7.639,1.026-7.639,10.945S363.587,1643.165,366.038,1643.165z"/>
	<path fill="#867550" d="M414.09,1636.096c-0.456,4.219-3.079,11.744-13.682,11.744c-9.862,0-14.537-6.385-14.537-15.563
		c0-14.821,10.546-15.677,14.309-15.677c8.894,0,13.169,5.188,13.796,10.774h-6.499c-0.342-3.021-2.394-6.1-6.897-6.1
		c-5.644,0-7.411,5.073-7.411,11.002c0,9.064,4.561,10.889,7.81,10.889c5.074,0,6.499-4.39,6.613-7.069H414.09z"/>
	<path fill="#867550" d="M439.739,1646.699v-3.819h-0.114c-1.881,3.363-5.929,4.96-9.634,4.96c-9.52,0-9.748-8.494-9.748-10.718
		v-19.382h6.841v17.216c0,3.306,0.114,8.209,5.416,8.209c7.183,0,7.24-7.811,7.24-9.235v-16.189h6.841v28.959H439.739z"/>
	<path fill="#867550" d="M461.624,1617.74v3.591c1.768-3.249,5.758-4.731,9.007-4.731c3.99,0,6.613,1.312,8.152,5.244
		c2.109-3.363,5.929-5.244,10.318-5.244c8.722,0,9.691,7.012,9.691,11.914v18.186h-6.842v-17.786c0-3.592-0.455-7.639-5.016-7.639
		c-2.965,0-6.728,2.166-6.728,8.38v17.045h-6.841v-17.786c0-3.592-0.456-7.639-5.017-7.639c-2.964,0-6.727,2.166-6.727,8.38v17.045
		h-6.841v-28.959H461.624z"/>
	<path fill="#867550" d="M533.845,1638.319c-0.685,3.763-3.478,9.521-13.796,9.521c-2.907,0-14.708-0.514-14.708-15.107
		c0-9.748,4.789-16.133,14.765-16.133c12.542,0,13.853,10.033,14.138,15.734c0,0.569,0.058,1.083,0.058,1.652h-21.663
		c-0.057,3.706,1.938,9.179,7.981,9.179c3.078,0,6.271-1.653,6.727-4.846H533.845z M527.061,1629.312
		c-0.057-2.623-0.912-8.038-6.897-8.038c-5.359,0-7.64,4.275-7.525,8.038H527.061z"/>
	<path fill="#867550" d="M547.694,1617.74v3.819c1.995-3.364,6.156-4.96,9.521-4.96c9.919,0,9.976,8.608,9.976,10.717v19.383h-6.841
		v-17.216c0-3.478-0.057-8.209-5.415-8.209c-1.882,0-7.24,0.741-7.24,9.235v16.189h-6.841v-28.959H547.694z"/>
	<path fill="#867550" d="M576.762,1617.74v-8.666h6.841v8.666h6.043v4.674h-6.043v16.361c0,1.938,0.057,3.592,3.363,3.592
		c1.141,0,1.938-0.114,2.68-0.343v4.675c-1.71,0.456-3.592,0.684-5.587,0.684c-7.183,0-7.297-4.275-7.297-6.327v-18.642h-4.675
		v-4.674H576.762z"/>
	<path fill="#867550" d="M593.634,1626.689c-0.114-5.301,3.705-10.09,13.226-10.09c11.687,0,12.484,6.841,12.484,10.262v11.572
		c0,2.736,0.114,3.705,2.508,3.534v4.731c-1.71,0.114-2.451,0.171-3.021,0.171c-1.767,0-5.016-0.228-5.644-3.763
		c-2.508,3.192-5.757,4.275-9.634,4.275c-10.033,0-10.66-5.985-10.66-8.38c0-6.042,5.358-7.753,6.67-8.095
		c2.223-0.627,4.332-0.741,6.727-1.083c0.912-0.114,1.881-0.285,2.793-0.399c2.395-0.342,3.421-0.285,3.421-3.135
		c0-4.561-3.421-5.017-5.644-5.017c-4.96,0-6.898,2.736-6.727,5.415H593.634z M612.503,1632.789
		c-0.741,0.514-1.653,0.799-4.902,1.197c-4.675,0.627-7.64,1.026-7.64,4.789c0,2.223,1.312,3.934,4.504,3.934
		c3.363,0,8.038-1.368,8.038-8.894V1632.789z"/>
	<path fill="#867550" d="M645.791,1621.616c-9.008-0.228-10.832,5.017-11.117,9.178c-0.057,0.97-0.057,1.938-0.057,2.965v12.94
		h-6.841v-28.959h6.841v5.301h0.114c1.938-4.846,6.727-5.871,9.919-5.871h1.141V1621.616z"/>
	<path fill="#867550" d="M653.768,1652.457c0.685,0.171,1.597,0.342,2.623,0.342c2.622,0,3.591-1.425,4.561-4.788l0.398-1.368
		l-13.168-28.902h8.209l8.722,21.548l6.67-21.548h6.841l-11.06,31.467c-0.912,2.623-2.395,8.267-9.521,8.267
		c-1.254,0-2.907-0.114-4.275-0.342V1652.457z"/>
</g>
<g enable-background="new    ">
	<path fill="#867550" d="M61.494,1698.213v6.042H41.199v11.401h23.259v6.043H33.903v-39.904h29.929v6.042H41.199v10.376H61.494z"/>
	<path fill="#867550" d="M87.028,1692.74h7.468l-10.432,13.853l11.06,15.106h-7.297l-7.525-10.774l-7.525,10.774h-7.354
		l11.06-15.106l-10.375-13.853h7.468l6.727,9.748L87.028,1692.74z"/>
	<path fill="#867550" d="M106.064,1681.795v14.765c1.995-3.364,6.157-4.96,9.52-4.96c9.919,0,9.977,8.608,9.977,10.717v19.383
		h-6.841v-17.216c0-3.478-0.057-8.209-5.416-8.209c-1.881,0-7.24,0.741-7.24,9.235v16.189h-6.841v-39.904H106.064z"/>
	<path fill="#867550" d="M133.764,1681.795h6.841v6.042h-6.841V1681.795z M140.605,1692.74v28.959h-6.841v-28.959H140.605z"/>
	<path fill="#867550" d="M155.653,1681.795v13.909c2.28-4.104,8.323-4.104,9.121-4.104c11.344,0,13.739,9.691,13.739,15.791
		c0,11.23-7.297,15.449-13.967,15.449c-2.964,0-6.784-0.855-9.349-3.991h-0.114v2.851h-6.271v-39.904H155.653z M162.836,1718.165
		c3.078,0,8.38-1.482,8.38-10.718c0-8.209-3.934-11.173-8.095-11.173c-3.021,0-7.981,1.596-7.981,11.002
		C155.14,1713.775,157.876,1718.165,162.836,1718.165z"/>
	<path fill="#867550" d="M185.063,1681.795h6.841v6.042h-6.841V1681.795z M191.904,1692.74v28.959h-6.841v-28.959H191.904z"/>
	<path fill="#867550" d="M201.479,1692.74v-8.666h6.841v8.666h6.042v4.674h-6.042v16.361c0,1.938,0.057,3.592,3.363,3.592
		c1.14,0,1.938-0.114,2.679-0.343v4.675c-1.71,0.456-3.591,0.684-5.586,0.684c-7.183,0-7.297-4.275-7.297-6.327v-18.642h-4.674
		v-4.674H201.479z"/>
	<path fill="#867550" d="M219.605,1681.795h6.841v6.042h-6.841V1681.795z M226.446,1692.74v28.959h-6.841v-28.959H226.446z"/>
	<path fill="#867550" d="M247.935,1691.6c12.313,0,14.936,10.033,14.936,15.62s-2.622,15.62-14.936,15.62
		s-14.936-10.033-14.936-15.62S235.621,1691.6,247.935,1691.6z M247.935,1718.165c2.451,0,7.639-1.026,7.639-10.945
		s-5.188-10.945-7.639-10.945s-7.639,1.026-7.639,10.945S245.484,1718.165,247.935,1718.165z"/>
	<path fill="#867550" d="M276.262,1692.74v3.819c1.995-3.364,6.157-4.96,9.52-4.96c9.919,0,9.977,8.608,9.977,10.717v19.383h-6.841
		v-17.216c0-3.478-0.057-8.209-5.416-8.209c-1.881,0-7.24,0.741-7.24,9.235v16.189h-6.841v-28.959H276.262z"/>
	<path fill="#867550" d="M332.635,1697.414h-6.556v24.285h-6.841v-24.285h-5.358v-4.674h5.358v-3.648
		c0-3.478,0.855-7.582,8.95-7.582c1.824,0,3.135,0.113,4.447,0.285v4.674c-0.57-0.057-1.768-0.113-2.68-0.113
		c-3.99,0-3.876,2.679-3.876,3.648v2.736h6.556V1697.414z"/>
	<path fill="#867550" d="M350.76,1691.6c12.313,0,14.936,10.033,14.936,15.62s-2.622,15.62-14.936,15.62
		s-14.936-10.033-14.936-15.62S338.447,1691.6,350.76,1691.6z M350.76,1718.165c2.451,0,7.639-1.026,7.639-10.945
		s-5.188-10.945-7.639-10.945c-2.452,0-7.639,1.026-7.639,10.945S348.309,1718.165,350.76,1718.165z"/>
	<path fill="#867550" d="M390.261,1696.616c-9.007-0.228-10.831,5.017-11.116,9.178c-0.057,0.97-0.057,1.938-0.057,2.965v12.94
		h-6.841v-28.959h6.841v5.301h0.114c1.938-4.846,6.727-5.871,9.919-5.871h1.14V1696.616z"/>
</g>
<g enable-background="new    ">
	<path fill="#867550" d="M34.53,1767.74v-8.666h6.841v8.666h6.043v4.674H41.37v16.361c0,1.938,0.057,3.592,3.363,3.592
		c1.14,0,1.938-0.114,2.68-0.343v4.675c-1.71,0.456-3.592,0.684-5.587,0.684c-7.183,0-7.297-4.275-7.297-6.327v-18.642h-4.675
		v-4.674H34.53z"/>
	<path fill="#867550" d="M59.496,1756.795v14.765c1.995-3.364,6.157-4.96,9.52-4.96c9.919,0,9.977,8.608,9.977,10.717v19.383h-6.841
		v-17.216c0-3.478-0.057-8.209-5.416-8.209c-1.881,0-7.24,0.741-7.24,9.235v16.189h-6.841v-39.904H59.496z"/>
	<path fill="#867550" d="M114.047,1788.319c-0.684,3.763-3.477,9.521-13.795,9.521c-2.907,0-14.708-0.514-14.708-15.107
		c0-9.748,4.789-16.133,14.765-16.133c12.542,0,13.853,10.033,14.138,15.734c0,0.569,0.057,1.083,0.057,1.652H92.84
		c-0.057,3.706,1.938,9.179,7.981,9.179c3.079,0,6.271-1.653,6.727-4.846H114.047z M107.263,1779.312
		c-0.057-2.623-0.912-8.038-6.898-8.038c-5.358,0-7.639,4.275-7.525,8.038H107.263z"/>
	<path fill="#867550" d="M131.94,1756.795h30.784v5.016c-5.359,5.473-8.38,10.49-11.174,17.046
		c-2.679,6.214-3.591,10.603-4.218,17.843h-7.639c0.685-5.358,2.452-11.629,4.675-16.817c2.052-4.674,5.358-10.603,11.687-17.045
		H131.94V1756.795z"/>
	<path fill="#867550" d="M175.489,1785.925c0.285,2.907,2.337,6.328,7.24,6.328c3.249,0,7.753-1.482,7.753-8.894
		c0-7.867-5.587-8.209-7.468-8.209c-1.996,0-5.131,0.57-6.727,3.307h-6.898l2.736-21.662h23.316v6.042h-17.957l-1.311,9.235
		c0.684-0.684,3.192-2.965,8.779-2.965c7.639,0,12.94,4.903,12.94,14.195c0,14.023-12.427,14.594-15.62,14.594
		c-10.546,0-13.226-6.898-13.796-11.972H175.489z"/>
	<path fill="#867550" d="M204.101,1767.74v-8.666h6.841v8.666h6.042v4.674h-6.042v16.361c0,1.938,0.057,3.592,3.363,3.592
		c1.14,0,1.938-0.114,2.679-0.343v4.675c-1.71,0.456-3.591,0.684-5.586,0.684c-7.183,0-7.297-4.275-7.297-6.327v-18.642h-4.674
		v-4.674H204.101z"/>
	<path fill="#867550" d="M229.068,1756.795v14.765c1.995-3.364,6.157-4.96,9.52-4.96c9.919,0,9.976,8.608,9.976,10.717v19.383
		h-6.841v-17.216c0-3.478-0.057-8.209-5.416-8.209c-1.881,0-7.24,0.741-7.24,9.235v16.189h-6.841v-39.904H229.068z"/>
	<path fill="#867550" d="M268.794,1776.689c-0.114-5.301,3.706-10.09,13.226-10.09c11.687,0,12.485,6.841,12.485,10.262v11.572
		c0,2.736,0.114,3.705,2.508,3.534v4.731c-1.71,0.114-2.451,0.171-3.021,0.171c-1.767,0-5.017-0.228-5.644-3.763
		c-2.508,3.192-5.758,4.275-9.634,4.275c-10.033,0-10.66-5.985-10.66-8.38c0-6.042,5.358-7.753,6.669-8.095
		c2.224-0.627,4.333-0.741,6.727-1.083c0.912-0.114,1.881-0.285,2.793-0.399c2.394-0.342,3.42-0.285,3.42-3.135
		c0-4.561-3.42-5.017-5.644-5.017c-4.959,0-6.897,2.736-6.727,5.415H268.794z M287.664,1782.789
		c-0.741,0.514-1.653,0.799-4.903,1.197c-4.674,0.627-7.639,1.026-7.639,4.789c0,2.223,1.311,3.934,4.503,3.934
		c3.363,0,8.038-1.368,8.038-8.894V1782.789z"/>
	<path fill="#867550" d="M309.778,1767.74v3.819c1.995-3.364,6.157-4.96,9.52-4.96c9.919,0,9.977,8.608,9.977,10.717v19.383h-6.841
		v-17.216c0-3.478-0.057-8.209-5.416-8.209c-1.881,0-7.24,0.741-7.24,9.235v16.189h-6.841v-28.959H309.778z"/>
	<path fill="#867550" d="M344.32,1767.74v3.819c1.995-3.364,6.157-4.96,9.52-4.96c9.919,0,9.976,8.608,9.976,10.717v19.383h-6.841
		v-17.216c0-3.478-0.057-8.209-5.416-8.209c-1.881,0-7.24,0.741-7.24,9.235v16.189h-6.841v-28.959H344.32z"/>
	<path fill="#867550" d="M372.02,1756.795h6.841v6.042h-6.841V1756.795z M378.861,1767.74v28.959h-6.841v-28.959H378.861z"/>
	<path fill="#867550" d="M404.626,1767.74h7.297l-10.603,28.959h-7.981l-10.603-28.959h7.297l7.297,22.232L404.626,1767.74z"/>
	<path fill="#867550" d="M442.645,1788.319c-0.684,3.763-3.477,9.521-13.795,9.521c-2.907,0-14.708-0.514-14.708-15.107
		c0-9.748,4.789-16.133,14.765-16.133c12.542,0,13.853,10.033,14.138,15.734c0,0.569,0.057,1.083,0.057,1.652h-21.663
		c-0.057,3.706,1.938,9.179,7.981,9.179c3.079,0,6.271-1.653,6.727-4.846H442.645z M435.862,1779.312
		c-0.057-2.623-0.912-8.038-6.898-8.038c-5.358,0-7.639,4.275-7.525,8.038H435.862z"/>
	<path fill="#867550" d="M467.667,1771.616c-9.007-0.228-10.831,5.017-11.116,9.178c-0.057,0.97-0.057,1.938-0.057,2.965v12.94
		h-6.841v-28.959h6.841v5.301h0.113c1.938-4.846,6.727-5.871,9.92-5.871h1.14V1771.616z"/>
	<path fill="#867550" d="M476.215,1787.863c-0.057,3.934,3.706,5.302,6.784,5.302c2.565,0,5.872-0.741,5.872-4.675
		c0-2.508-1.539-3.42-5.359-4.104c-1.025-0.171-2.108-0.342-3.135-0.513c-6.328-1.141-9.463-3.136-9.463-8.552
		c0-7.639,7.98-8.722,12.085-8.722c9.35,0,12.199,4.048,12.313,8.836h-6.441c-0.229-2.565-2.338-4.161-5.644-4.161
		c-2.794,0-5.245,0.741-5.245,3.591c0,3.592,3.705,3.991,7.468,4.618c4.275,0.684,10.604,1.425,10.604,8.607
		c0,7.069-6.271,9.749-12.826,9.749c-10.832,0-13.568-5.645-13.853-9.977H476.215z"/>
	<path fill="#867550" d="M500.952,1776.689c-0.114-5.301,3.705-10.09,13.226-10.09c11.687,0,12.484,6.841,12.484,10.262v11.572
		c0,2.736,0.114,3.705,2.508,3.534v4.731c-1.71,0.114-2.451,0.171-3.021,0.171c-1.767,0-5.016-0.228-5.644-3.763
		c-2.508,3.192-5.757,4.275-9.634,4.275c-10.033,0-10.66-5.985-10.66-8.38c0-6.042,5.358-7.753,6.67-8.095
		c2.223-0.627,4.332-0.741,6.727-1.083c0.912-0.114,1.881-0.285,2.793-0.399c2.395-0.342,3.421-0.285,3.421-3.135
		c0-4.561-3.421-5.017-5.644-5.017c-4.96,0-6.898,2.736-6.727,5.415H500.952z M519.822,1782.789
		c-0.741,0.514-1.653,0.799-4.902,1.197c-4.675,0.627-7.64,1.026-7.64,4.789c0,2.223,1.312,3.934,4.504,3.934
		c3.363,0,8.038-1.368,8.038-8.894V1782.789z"/>
	<path fill="#867550" d="M553.11,1771.616c-9.007-0.228-10.831,5.017-11.116,9.178c-0.057,0.97-0.057,1.938-0.057,2.965v12.94
		h-6.841v-28.959h6.841v5.301h0.114c1.938-4.846,6.727-5.871,9.919-5.871h1.14V1771.616z"/>
	<path fill="#867550" d="M561.087,1802.457c0.685,0.171,1.597,0.342,2.623,0.342c2.622,0,3.591-1.425,4.561-4.788l0.398-1.368
		l-13.168-28.902h8.209l8.722,21.548l6.67-21.548h6.841l-11.06,31.467c-0.912,2.623-2.395,8.267-9.52,8.267
		c-1.255,0-2.908-0.114-4.276-0.342V1802.457z"/>
</g>
<g enable-background="new    ">
	<path fill="#867550" d="M46.444,1841.6c12.313,0,14.936,10.033,14.936,15.62s-2.622,15.62-14.936,15.62
		s-14.936-10.033-14.936-15.62S34.131,1841.6,46.444,1841.6z M46.444,1868.165c2.451,0,7.639-1.026,7.639-10.945
		s-5.188-10.945-7.639-10.945c-2.452,0-7.639,1.026-7.639,10.945S43.992,1868.165,46.444,1868.165z"/>
	<path fill="#867550" d="M83.323,1847.414h-6.556v24.285h-6.841v-24.285h-5.358v-4.674h5.358v-3.648c0-3.478,0.855-7.582,8.95-7.582
		c1.824,0,3.135,0.113,4.447,0.285v4.674c-0.57-0.057-1.768-0.113-2.68-0.113c-3.99,0-3.876,2.679-3.876,3.648v2.736h6.556V1847.414
		z"/>
	<path fill="#867550" d="M102.814,1842.74v-8.666h6.841v8.666h6.043v4.674h-6.043v16.361c0,1.938,0.057,3.592,3.363,3.592
		c1.14,0,1.938-0.114,2.68-0.343v4.675c-1.71,0.456-3.592,0.684-5.587,0.684c-7.183,0-7.297-4.275-7.297-6.327v-18.642h-4.675
		v-4.674H102.814z"/>
	<path fill="#867550" d="M127.78,1831.795v14.765c1.995-3.364,6.157-4.96,9.52-4.96c9.919,0,9.977,8.608,9.977,10.717v19.383h-6.841
		v-17.216c0-3.478-0.057-8.209-5.416-8.209c-1.881,0-7.24,0.741-7.24,9.235v16.189h-6.841v-39.904H127.78z"/>
	<path fill="#867550" d="M182.331,1863.319c-0.684,3.763-3.477,9.521-13.795,9.521c-2.907,0-14.708-0.514-14.708-15.107
		c0-9.748,4.789-16.133,14.765-16.133c12.542,0,13.853,10.033,14.138,15.734c0,0.569,0.057,1.083,0.057,1.652h-21.663
		c-0.057,3.706,1.938,9.179,7.981,9.179c3.079,0,6.271-1.653,6.727-4.846H182.331z M175.547,1854.312
		c-0.057-2.623-0.912-8.038-6.898-8.038c-5.358,0-7.639,4.275-7.525,8.038H175.547z"/>
	<path fill="#867550" d="M222.172,1831.795c10.147,0,12.143,5.7,12.143,10.09s-2.736,7.867-6.613,8.551v0.114
		c3.307,0.57,8.266,2.851,8.266,9.976c0,10.091-8.608,11.174-14.594,11.174H203.36v-39.904H222.172z M210.656,1847.984h9.634
		c4.048,0,6.499-1.254,6.499-4.731c0-5.302-5.131-5.416-6.67-5.416h-9.463V1847.984z M210.656,1865.656h9.976
		c4.447,0,7.81-1.083,7.81-5.929c0-5.358-4.618-5.7-7.639-5.7h-10.147V1865.656z"/>
	<path fill="#867550" d="M242.119,1851.689c-0.114-5.301,3.705-10.09,13.226-10.09c11.686,0,12.484,6.841,12.484,10.262v11.572
		c0,2.736,0.114,3.705,2.508,3.534v4.731c-1.71,0.114-2.452,0.171-3.021,0.171c-1.767,0-5.017-0.228-5.644-3.763
		c-2.508,3.192-5.758,4.275-9.634,4.275c-10.033,0-10.66-5.985-10.66-8.38c0-6.042,5.358-7.753,6.67-8.095
		c2.223-0.627,4.332-0.741,6.727-1.083c0.912-0.114,1.881-0.285,2.793-0.399c2.394-0.342,3.42-0.285,3.42-3.135
		c0-4.561-3.42-5.017-5.644-5.017c-4.96,0-6.898,2.736-6.727,5.415H242.119z M260.989,1857.789
		c-0.741,0.514-1.653,0.799-4.903,1.197c-4.674,0.627-7.639,1.026-7.639,4.789c0,2.223,1.311,3.934,4.503,3.934
		c3.363,0,8.038-1.368,8.038-8.894V1857.789z"/>
	<path fill="#867550" d="M277.63,1842.74v-8.666h6.841v8.666h6.043v4.674h-6.043v16.361c0,1.938,0.057,3.592,3.363,3.592
		c1.14,0,1.938-0.114,2.68-0.343v4.675c-1.71,0.456-3.592,0.684-5.587,0.684c-7.183,0-7.297-4.275-7.297-6.327v-18.642h-4.675
		v-4.674H277.63z"/>
	<path fill="#867550" d="M297.75,1842.74v-8.666h6.841v8.666h6.043v4.674h-6.043v16.361c0,1.938,0.057,3.592,3.363,3.592
		c1.14,0,1.938-0.114,2.68-0.343v4.675c-1.71,0.456-3.592,0.684-5.587,0.684c-7.183,0-7.297-4.275-7.297-6.327v-18.642h-4.675
		v-4.674H297.75z"/>
	<path fill="#867550" d="M322.717,1831.795v39.904h-6.841v-39.904H322.717z"/>
	<path fill="#867550" d="M357.318,1863.319c-0.684,3.763-3.478,9.521-13.795,9.521c-2.908,0-14.708-0.514-14.708-15.107
		c0-9.748,4.789-16.133,14.765-16.133c12.541,0,13.853,10.033,14.138,15.734c0,0.569,0.057,1.083,0.057,1.652h-21.663
		c-0.057,3.706,1.938,9.179,7.981,9.179c3.079,0,6.271-1.653,6.727-4.846H357.318z M350.534,1854.312
		c-0.057-2.623-0.912-8.038-6.898-8.038c-5.358,0-7.639,4.275-7.525,8.038H350.534z"/>
	<path fill="#867550" d="M390.888,1841.6c12.313,0,14.936,10.033,14.936,15.62s-2.622,15.62-14.936,15.62
		s-14.936-10.033-14.936-15.62S378.574,1841.6,390.888,1841.6z M390.888,1868.165c2.451,0,7.639-1.026,7.639-10.945
		s-5.188-10.945-7.639-10.945s-7.639,1.026-7.639,10.945S388.437,1868.165,390.888,1868.165z"/>
	<path fill="#867550" d="M427.766,1847.414h-6.556v24.285h-6.841v-24.285h-5.358v-4.674h5.358v-3.648
		c0-3.478,0.855-7.582,8.95-7.582c1.824,0,3.135,0.113,4.446,0.285v4.674c-0.57-0.057-1.767-0.113-2.679-0.113
		c-3.99,0-3.876,2.679-3.876,3.648v2.736h6.556V1847.414z"/>
	<path fill="#867550" d="M453.927,1840.117h-0.114l0.114,1.539v30.043h-7.297v-39.904h10.888l10.889,30.271l10.888-30.271h10.889
		v39.904h-7.297v-30.043l0.114-1.539h-0.114l-11.743,31.582h-5.473L453.927,1840.117z"/>
	<path fill="#867550" d="M512.409,1841.6c12.313,0,14.937,10.033,14.937,15.62s-2.623,15.62-14.937,15.62
		s-14.936-10.033-14.936-15.62S500.096,1841.6,512.409,1841.6z M512.409,1868.165c2.452,0,7.64-1.026,7.64-10.945
		s-5.188-10.945-7.64-10.945c-2.451,0-7.639,1.026-7.639,10.945S509.958,1868.165,512.409,1868.165z"/>
	<path fill="#867550" d="M538.684,1862.863c-0.057,3.934,3.706,5.302,6.784,5.302c2.565,0,5.872-0.741,5.872-4.675
		c0-2.508-1.539-3.42-5.359-4.104c-1.025-0.171-2.108-0.342-3.135-0.513c-6.328-1.141-9.463-3.136-9.463-8.552
		c0-7.639,7.98-8.722,12.085-8.722c9.35,0,12.199,4.048,12.313,8.836h-6.441c-0.229-2.565-2.338-4.161-5.644-4.161
		c-2.794,0-5.245,0.741-5.245,3.591c0,3.592,3.705,3.991,7.468,4.618c4.275,0.684,10.604,1.425,10.604,8.607
		c0,7.069-6.271,9.749-12.826,9.749c-10.832,0-13.568-5.645-13.853-9.977H538.684z"/>
	<path fill="#867550" d="M591.241,1861.096c-0.456,4.219-3.079,11.744-13.682,11.744c-9.862,0-14.537-6.385-14.537-15.563
		c0-14.821,10.546-15.677,14.309-15.677c8.894,0,13.169,5.188,13.796,10.774h-6.499c-0.342-3.021-2.394-6.1-6.897-6.1
		c-5.644,0-7.411,5.073-7.411,11.002c0,9.064,4.561,10.889,7.81,10.889c5.074,0,6.499-4.39,6.613-7.069H591.241z"/>
	<path fill="#867550" d="M610.675,1841.6c12.313,0,14.937,10.033,14.937,15.62s-2.623,15.62-14.937,15.62
		s-14.936-10.033-14.936-15.62S598.362,1841.6,610.675,1841.6z M610.675,1868.165c2.452,0,7.64-1.026,7.64-10.945
		s-5.188-10.945-7.64-10.945c-2.451,0-7.639,1.026-7.639,10.945S608.224,1868.165,610.675,1868.165z"/>
	<path fill="#867550" d="M644.875,1871.699h-6.955l-10.09-28.959h7.125l6.784,21.206l5.131-21.206h6.385l5.073,21.206l6.784-21.206
		h7.126l-10.091,28.959h-6.954l-5.131-21.149L644.875,1871.699z"/>
</g>
</svg>
