<?xml version="1.0" encoding="utf-8"?>
<!-- Generator: Adobe Illustrator 17.0.0, SVG Export Plug-In . SVG Version: 6.00 Build 0)  -->
<!DOCTYPE svg PUBLIC "-//W3C//DTD SVG 1.1//EN" "http://www.w3.org/Graphics/SVG/1.1/DTD/svg11.dtd">
<svg version="1.1" id="Layer_1" xmlns="http://www.w3.org/2000/svg" xmlns:xlink="http://www.w3.org/1999/xlink" x="0px" y="0px"
	 width="2834.646px" height="1920.252px" viewBox="0 0 2834.646 1920.252" enable-background="new 0 0 2834.646 1920.252"
	 xml:space="preserve">
<path fill="#867550" d="M-0.002,219.808v406.973h1590.895V219.808H-0.002z M372.804,262.895h58.479v197.799l-58.479,89.082V262.895z
	 M133.485,262.895h159.427v48.422H133.485V262.895z M113.384,582.667H54.906V262.895h58.479L113.384,582.667L113.384,582.667z
	 M307.302,527.623c-4.423,10.809-10.133,19.718-17.131,26.722c-7.01,7.01-14.696,12.415-23.07,16.213
	c-8.374,3.818-16.595,6.628-24.664,8.457c-8.081,1.823-15.384,2.893-21.936,3.193c-6.551,0.306-11.344,0.459-14.39,0.459h-72.627
	v-48.422h57.561c7.609,0,15.142-0.606,22.611-1.829c7.456-1.211,14.161-3.499,20.1-6.851c5.94-3.346,10.732-8.221,14.39-14.62
	c3.646-6.392,5.481-14.919,5.481-25.581c0-10.962-2.052-19.565-6.169-25.811c-4.117-6.239-9.215-10.961-15.308-14.161
	c-6.093-3.199-12.721-5.175-19.871-5.94c-7.151-0.752-13.779-1.141-19.871-1.141h-58.925V389.89h73.086
	c8.527,0,18.966,0.841,31.291,2.511c12.338,1.676,24.141,5.793,35.409,12.338c11.267,6.552,20.852,16.372,28.78,29.463
	c7.915,13.096,11.88,31.062,11.88,53.902C313.93,503.636,311.712,516.815,307.302,527.623z M640.508,582.667H582.03V385.321
	l58.479-88.623v285.969H640.508z M429.906,582.667h-57.102l210.602-319.772h57.102L429.906,582.667z M758.498,311.317h-80.402
	v-48.422h80.402V311.317z M837.065,582.667h-58.466V262.895h58.466V582.667z M937.567,311.317h-80.402v-48.422h80.402V311.317z
	 M1033.634,582.667h-58.479V262.895h58.479V582.667z M1225.04,541.096c-7.622,11.879-17.283,20.942-29.01,27.181
	c-11.726,6.246-24.434,10.21-38.149,11.879c-13.702,1.676-26.486,2.511-38.365,2.511h-65.782v-48.422h59.842
	c8.833,0,17.054-0.688,24.664-2.059c7.609-1.37,14.237-3.805,19.871-7.31c5.633-3.492,10.056-8.291,13.256-14.384
	c3.199-6.093,4.792-14.008,4.792-23.758c0-10.656-2.052-19.03-6.169-25.123c-4.104-6.093-9.215-10.655-15.295-13.708
	c-6.105-3.04-12.721-4.946-19.884-5.71c-7.15-0.752-13.778-1.141-19.871-1.141h-61.206V392.63h57.102
	c16.442,0,29.239-2.81,38.365-8.451c9.139-5.633,13.715-15.454,13.715-29.462c0-10.655-2.218-18.883-6.628-24.67
	c-4.423-5.78-9.598-10.05-15.537-12.791c-5.94-2.741-11.867-4.41-17.806-5.028c-5.94-0.606-10.439-0.912-13.486-0.912h-55.725
	v-48.422h72.181c20.393,0,36.913,2.594,49.556,7.769c12.631,5.181,22.458,11.726,29.469,19.642
	c6.997,7.921,11.803,16.601,14.39,26.04c2.588,9.438,3.888,18.577,3.888,27.404c0,17.666-4.958,32.821-14.849,45.459
	c-9.904,12.638-22.611,20.323-38.149,23.064v0.918c6.692,1.217,13.855,3.352,21.477,6.392c7.609,3.046,14.76,7.699,21.464,13.931
	c6.692,6.246,12.262,14.168,16.672,23.759s6.628,21.547,6.628,35.861C1236.461,513.233,1232.65,529.217,1225.04,541.096z
	 M1255.414,582.667l120.59-319.772h50.257l-21.018,62.124l-87.246,257.648H1255.414z M1492.503,582.667l-23.299-67.152h-107.36
	l16.901-48.422h74.921L1414.841,353.8l26.499-73.086l113.745,301.953H1492.503z"/>
<path fill="#867550" d="M2172.63,219.808v406.973h662.018V219.808H2172.63z M2223.522,307.674
	c6.743-13.09,15.792-23.593,27.149-31.521c11.356-7.915,24.358-13.626,38.99-17.131c14.62-3.492,30.004-5.551,46.14-6.163v48.422
	c-12.491,0.611-22.764,2.587-30.833,5.939c-8.068,3.352-14.543,7.533-19.413,12.561c-4.869,5.022-8.374,10.732-10.502,17.131
	c-2.141,6.392-3.352,12.95-3.658,19.642h-58.466C2213.236,337.067,2216.767,320.777,2223.522,307.674z M2335.355,591.815
	c-38.072-1.211-68.229-11.255-90.458-30.138c-22.229-18.889-34.108-48.275-35.625-88.177h58.007c0,6.099,0.918,12.95,2.753,20.559
	c1.823,7.616,5.175,14.843,10.044,21.7c4.869,6.851,11.726,12.867,20.559,18.042c8.833,5.181,20.394,8.38,34.72,9.591V591.815z
	 M2475.817,525.809c-3.186,10.809-9.292,21.012-18.265,30.603c-8.986,9.591-21.63,17.666-37.919,24.211s-37.69,10.28-64.176,11.191
	v-47.963c19.476-0.612,35.166-5.506,47.045-14.684c11.879-9.171,17.819-22.172,17.819-39.003c0-10.089-1.606-18.348-4.792-24.772
	c-3.199-6.424-7.622-11.542-13.256-15.372c-5.634-3.824-12.325-6.5-20.1-8.03c-7.763-1.523-16.06-2.294-24.893-2.294h-43.859
	v-48.422h37.92c3.352,0,8.144-0.23,14.39-0.689c6.233-0.452,12.478-2.052,18.724-4.792s11.65-6.927,16.226-12.567
	c4.563-5.628,6.845-13.626,6.845-23.982c0-12.791-4.041-23.523-12.096-32.203c-8.081-8.68-21.401-13.779-39.971-15.308V252.86
	c10.961,0.306,22.981,1.676,36.084,4.11c13.09,2.441,25.275,6.851,36.543,13.25c11.267,6.392,20.712,15.454,28.322,27.181
	c7.609,11.726,11.42,27.028,11.42,45.905c0,10.356-1.441,19.648-4.334,27.869c-2.906,8.221-6.781,15.302-11.65,21.241
	c-4.882,5.939-10.592,10.732-17.131,14.39c-6.551,3.652-13.332,5.94-20.33,6.851v0.912c8.527,1.223,16.825,3.817,24.893,7.768
	c8.068,3.964,15.155,9.292,21.248,15.99c6.08,6.698,10.961,14.843,14.62,24.441c3.645,9.591,5.481,20.636,5.481,33.114
	C2480.622,505.021,2479.016,515.001,2475.817,525.809z M2499.804,582.223l120.591-319.772h50.257l-21.018,62.124l-87.246,257.648
	H2499.804z M2736.893,582.223l-23.299-67.152h-107.36l16.901-48.422h74.921l-38.824-113.293l26.499-73.086l113.746,301.953H2736.893
	z"/>
<path fill="#867550" d="M786.629,650.965v406.973h2048.019V650.965H786.629z M1758.325,684.47
	c24.052,1.517,43.795,6.112,59.231,13.804c15.423,7.699,27.672,16.991,36.721,27.882c9.063,10.892,15.436,22.58,19.119,35.064
	c3.684,12.491,5.825,24.211,6.437,35.173h-58.466c-0.918-6.086-2.448-12.562-4.576-19.413c-2.128-6.857-5.633-13.249-10.503-19.189
	c-4.869-5.939-11.115-11.191-18.724-15.76c-7.622-4.57-17.36-7.609-29.239-9.139L1758.325,684.47L1758.325,684.47z M892.25,1013.38
	h-58.479V693.609h12.338l46.14,126.995L892.25,1013.38L892.25,1013.38z M1030.213,1013.38h-43.859L868.033,693.609h52.998
	l111.922,312.462L1030.213,1013.38z M1182.782,1013.38h-58.466V772.64l0.905-12.338h-0.905l-80.402,216.536l-24.677-70.811
	l76.297-212.418h87.247L1182.782,1013.38L1182.782,1013.38z M1378.433,732.44c-17.347,1.523-31.521,6.424-42.483,14.677
	c-10.961,8.246-19.488,18.265-25.581,30.029c-6.093,11.771-10.274,24.46-12.555,38.06c-2.294,13.606-3.429,26.371-3.429,38.289
	s1.058,24.613,3.199,38.06c2.129,13.454,6.233,26.066,12.325,37.831c6.093,11.771,14.62,21.853,25.581,30.265
	c10.974,8.406,25.276,13.377,42.941,14.9v48.422c-6.692-0.306-15.002-1.217-24.893-2.741c-9.904-1.523-20.254-4.34-31.062-8.45
	c-10.809-4.111-21.63-9.974-32.438-17.59c-10.809-7.603-20.547-17.583-29.227-29.921c-8.68-12.332-15.69-27.557-21.018-45.682
	c-5.328-18.112-7.992-39.812-7.992-65.094c0-24.969,2.664-46.517,7.992-64.641c5.328-18.112,12.338-33.42,21.018-45.911
	c8.68-12.479,18.418-22.529,29.227-30.144c10.808-7.609,21.63-13.479,32.438-17.59c10.809-4.11,21.158-6.927,31.062-8.45
	c9.891-1.523,18.201-2.435,24.893-2.741v48.422H1378.433z M1537.185,918.136c-5.328,18.118-12.338,33.426-21.018,45.911
	c-8.68,12.491-18.431,22.542-29.239,30.144c-10.809,7.616-21.617,13.479-32.426,17.59c-10.821,4.11-21.171,6.927-31.062,8.45
	c-9.904,1.523-18.201,2.435-24.906,2.741V974.55c17.36-1.217,31.521-6.029,42.495-14.441c10.962-8.406,19.476-18.488,25.581-30.259
	c6.08-11.771,10.273-24.466,12.554-38.066c2.282-13.606,3.429-26.372,3.429-38.289s-1.071-24.606-3.199-38.06
	c-2.129-13.447-6.322-26.059-12.567-37.83c-6.246-11.764-14.836-21.853-25.798-30.265c-10.974-8.406-25.135-13.377-42.495-14.9
	v-48.422c6.705,0.306,15.002,1.217,24.906,2.741c9.891,1.523,20.241,4.34,31.062,8.45c10.809,4.111,21.617,9.98,32.426,17.59
	c10.809,7.616,20.559,17.583,29.239,29.921c8.68,12.332,15.69,27.564,21.018,45.682c5.328,18.119,7.992,39.819,7.992,65.094
	C1545.176,878.471,1542.512,900.018,1537.185,918.136z M1738.224,731.98c-17.067,0.612-31.228,4.347-42.483,11.216
	c-11.28,6.864-20.33,16.022-27.188,27.461c-6.844,11.446-11.726,24.562-14.62,39.36c-2.893,14.798-4.333,30.278-4.333,46.453
	c0,17.704,2.205,33.49,6.628,47.371c4.41,13.887,10.503,25.862,18.265,35.925c7.763,10.076,17.054,18.01,27.863,23.809
	c10.809,5.793,22.765,9.305,35.867,10.522v48.875c-5.787,0-13.562-0.612-23.3-1.823c-9.75-1.224-20.253-3.658-31.521-7.31
	c-11.267-3.658-22.611-9.063-34.032-16.219c-11.42-7.151-21.783-16.825-31.062-29.01c-9.292-12.173-16.838-27.181-22.611-44.994
	c-5.787-17.819-8.68-39.36-8.68-64.641c0-32.273,4.181-59.454,12.555-81.543c8.374-22.076,19.565-39.972,33.586-53.673
	c13.995-13.708,30.144-23.676,48.422-29.921c18.265-6.239,37.142-9.515,56.644-9.821V731.98z M1875.958,941.43
	c-4.117,13.249-10.821,25.664-20.101,37.231c-9.292,11.58-21.783,21.471-37.461,29.698c-15.69,8.221-35.714,12.937-60.072,14.161
	v-48.422c11.574-0.917,21.464-3.581,29.686-7.998c8.234-4.41,15.078-9.891,20.559-16.442c5.481-6.545,9.598-13.779,12.338-21.7
	c2.741-7.915,4.41-15.831,5.022-23.759h58.02C1882.726,915.778,1880.062,928.186,1875.958,941.43z M1989.961,1013.38h-58.479
	V693.609h58.479V1013.38z M2125.629,1013.38l-115.568-141.156v-57.102l108.265-121.514h69.44l-141.621,147.554l153.488,172.218
	L2125.629,1013.38L2125.629,1013.38z M2292.194,1013.38h-58.479V693.609h58.479V1013.38z M2483.601,971.81
	c-7.622,11.879-17.283,20.942-29.01,27.181c-11.726,6.246-24.434,10.21-38.149,11.879c-13.702,1.676-26.486,2.511-38.365,2.511
	h-65.782v-48.422h59.842c8.833,0,17.054-0.688,24.664-2.058s14.237-3.805,19.871-7.31c5.634-3.492,10.056-8.291,13.256-14.384
	c3.199-6.092,4.793-14.008,4.793-23.759c0-10.655-2.052-19.03-6.169-25.122c-4.104-6.093-9.215-10.655-15.295-13.708
	c-6.105-3.04-12.721-4.946-19.884-5.71c-7.15-0.752-13.778-1.141-19.871-1.141h-61.206v-48.422h57.102
	c16.442,0,29.239-2.81,38.365-8.451c9.139-5.633,13.715-15.454,13.715-29.462c0-10.656-2.218-18.883-6.628-24.67
	c-4.423-5.78-9.598-10.05-15.537-12.791c-5.94-2.741-11.867-4.41-17.806-5.028c-5.94-0.606-10.439-0.912-13.486-0.912h-55.725
	v-48.422h72.18c20.394,0,36.913,2.594,49.556,7.769c12.631,5.181,22.458,11.726,29.469,19.642
	c6.998,7.921,11.803,16.601,14.391,26.04c2.587,9.438,3.887,18.577,3.887,27.404c0,17.666-4.958,32.821-14.849,45.459
	c-9.904,12.638-22.611,20.323-38.149,23.064v0.918c6.692,1.217,13.855,3.352,21.477,6.392c7.609,3.047,14.76,7.699,21.465,13.931
	c6.691,6.246,12.262,14.167,16.672,23.759s6.627,21.547,6.627,35.861C2495.021,943.947,2491.21,959.93,2483.601,971.81z
	 M2587.239,693.609l70.817,149.377l-31.98,63.959L2515.53,693.609H2587.239z M2690.481,951.256
	c-6.704,16.442-13.855,29.163-21.464,38.143c-7.622,8.986-15.384,15.608-23.3,19.871c-7.928,4.264-15.767,6.775-23.529,7.539
	c-7.763,0.752-15.155,1.141-22.153,1.141c-7.622,0-14.467-0.23-20.559-0.688c-6.093-0.453-13.09-1.906-21.005-4.34v-50.704
	c5.175,1.53,10.503,2.817,15.983,3.881c5.481,1.07,11.268,1.599,17.36,1.599c5.175,0,10.12-0.529,14.849-1.599
	c4.716-1.064,9.05-2.97,13.014-5.71c3.951-2.741,7.456-6.622,10.502-11.65c3.047-5.022,5.481-11.491,7.316-19.412l31.521-63.042
	l67.605-172.676h61.219L2690.481,951.256z"/>
<path fill="#867550" d="M-0.002,1082.122v406.973h1905.374v-406.973H-0.002z M463.489,1124.322h161.25v48.422h-161.25V1124.322z
	 M463.489,1255.886h142.526v48.422H463.489V1255.886z M105.619,1444.094H47.141v-319.772h58.479L105.619,1444.094L105.619,1444.094z
	 M305.706,1444.094h-58.479v-271.35H125.72v-48.422h179.986V1444.094z M443.389,1444.094H384.91v-319.772h58.479V1444.094z
	 M629.774,1444.094H463.489v-48.422h166.285L629.774,1444.094L629.774,1444.094z M742.27,1172.744v105.065v48.428v117.856h-58.479
	v-319.772h58.479V1172.744z M928.885,1264.107c-4.423,12.491-11.51,23.3-21.248,32.432c-9.751,9.139-22.535,16.378-38.378,21.7
	c-15.831,5.334-35.332,7.998-58.466,7.998H762.37v-48.428h47.963c6.692,0,13.855-0.453,21.477-1.37
	c7.609-0.911,14.607-3.04,21.005-6.392c6.398-3.346,11.726-8.521,15.996-15.531c4.257-7.004,6.386-16.449,6.386-28.322
	c0-12.791-2.282-22.765-6.845-29.921c-4.576-7.157-10.21-12.485-16.901-15.99c-6.704-3.499-13.792-5.633-21.248-6.398
	c-7.469-0.752-13.931-1.141-19.412-1.141H762.37v-48.422h48.881c12.478,0,26.04,0.911,40.66,2.74
	c14.607,1.829,28.092,6.099,40.418,12.791c12.338,6.704,22.611,16.602,30.845,29.692c8.221,13.103,12.325,31.068,12.325,53.909
	C935.5,1238.067,933.295,1251.623,928.885,1264.107z M1043.178,1444.094h-58.479v-319.772h58.479V1444.094z M1234.585,1402.523
	c-7.622,11.879-17.284,20.942-29.01,27.181c-11.726,6.245-24.434,10.209-38.149,11.879c-13.702,1.676-26.486,2.511-38.365,2.511
	h-65.782v-48.422h59.842c8.833,0,17.054-0.688,24.664-2.058c7.609-1.37,14.237-3.805,19.871-7.31
	c5.634-3.492,10.056-8.291,13.256-14.384s4.793-14.008,4.793-23.759c0-10.655-2.052-19.03-6.169-25.122
	c-4.104-6.093-9.215-10.655-15.295-13.708c-6.105-3.04-12.721-4.945-19.884-5.71c-7.15-0.752-13.778-1.141-19.871-1.141h-61.206
	v-48.422h57.102c16.442,0,29.239-2.811,38.365-8.451c9.139-5.634,13.715-15.454,13.715-29.462c0-10.656-2.218-18.883-6.628-24.67
	c-4.423-5.78-9.598-10.051-15.537-12.791c-5.94-2.741-11.866-4.41-17.806-5.028c-5.94-0.606-10.439-0.912-13.485-0.912h-55.726
	v-48.422h72.181c20.394,0,36.913,2.594,49.556,7.769c12.631,5.181,22.458,11.726,29.469,19.641
	c6.997,7.922,11.803,16.602,14.391,26.04c2.587,9.439,3.887,18.577,3.887,27.404c0,17.666-4.958,32.821-14.849,45.458
	c-9.904,12.638-22.611,20.324-38.149,23.064v0.918c6.692,1.217,13.855,3.352,21.477,6.392c7.609,3.047,14.76,7.698,21.464,13.931
	c6.692,6.246,12.262,14.167,16.672,23.759s6.628,21.547,6.628,35.861C1246.005,1374.66,1242.194,1390.643,1234.585,1402.523z
	 M1264.971,1444.094l120.59-319.772h50.257l-21.018,62.124l-87.246,257.648H1264.971z M1502.06,1444.094l-23.299-67.152h-107.36
	l16.901-48.422h74.921l-38.824-113.293l26.499-73.085l113.745,301.953h-62.583V1444.094z M1777.195,1172.744h-56.184
	c-3.964,0-9.521,0.306-16.685,0.912c-7.151,0.618-14.314,2.517-21.464,5.71c-7.163,3.199-13.332,8.457-18.507,15.76
	c-5.175,7.31-7.762,17.519-7.762,30.609c0,11.579,2.358,20.782,7.087,27.64c4.716,6.851,10.579,11.956,17.589,15.302
	c6.998,3.352,14.454,5.481,22.382,6.392c7.915,0.917,15.066,1.37,21.464,1.37h52.08v48.428h-35.638l-76.743,119.226h-74.003
	l90.458-125.625c-7.316-0.911-15.92-2.893-25.81-5.939c-9.904-3.04-19.196-8.062-27.876-15.072
	c-8.68-7.004-16.06-16.366-22.153-28.099c-6.093-11.72-9.139-26.722-9.139-44.994c0-15.831,2.129-29.386,6.398-40.66
	c4.257-11.261,9.827-20.553,16.672-27.863c6.858-7.31,14.773-13.09,23.759-17.36c8.973-4.264,18.188-7.456,27.632-9.592
	c9.445-2.128,18.737-3.428,27.863-3.881c9.139-0.459,17.513-0.688,25.135-0.688h53.444v48.424H1777.195z M1855.761,1444.094h-58.466
	v-319.772h58.466V1444.094z"/>
<path fill="#867550" d="M829.238,1513.279v406.973h2005.41v-406.973H829.238z M1947.904,1555.035h161.25v48.422h-161.25V1555.035z
	 M1947.904,1686.6h142.526v48.422h-142.526L1947.904,1686.6L1947.904,1686.6z M1630.019,1555.035h159.427v48.422h-159.427V1555.035z
	 M934.861,1874.807h-58.479v-319.772h58.479V1874.807z M1134.948,1874.807h-58.479v-271.35H954.961v-48.422h179.986
	L1134.948,1874.807L1134.948,1874.807z M1333.328,1593.866c-17.347,1.524-31.521,6.424-42.483,14.677
	c-10.961,8.247-19.488,18.265-25.581,30.029c-6.093,11.771-10.273,24.46-12.555,38.06c-2.294,13.606-3.429,26.372-3.429,38.289
	c0,11.918,1.058,24.612,3.199,38.06c2.129,13.453,6.233,26.066,12.325,37.83c6.093,11.771,14.62,21.853,25.582,30.266
	c10.974,8.406,25.275,13.377,42.941,14.9v48.422c-6.692-0.306-15.002-1.218-24.893-2.741c-9.904-1.523-20.253-4.34-31.062-8.451
	c-10.809-4.11-21.63-9.974-32.439-17.589c-10.808-7.603-20.546-17.583-29.226-29.921c-8.68-12.332-15.69-27.557-21.018-45.682
	c-5.328-18.112-7.992-39.812-7.992-65.094c0-24.969,2.664-46.516,7.992-64.641c5.328-18.112,12.338-33.42,21.018-45.911
	c8.68-12.478,18.418-22.528,29.226-30.144c10.809-7.609,21.63-13.479,32.439-17.589s21.158-6.927,31.062-8.451
	c9.891-1.523,18.202-2.434,24.893-2.74v48.421H1333.328z M1492.08,1779.562c-5.328,18.119-12.338,33.427-21.018,45.911
	c-8.68,12.491-18.431,22.541-29.239,30.144c-10.809,7.615-21.617,13.479-32.426,17.589c-10.821,4.111-21.171,6.928-31.062,8.451
	c-9.904,1.523-18.202,2.435-24.906,2.741v-48.422c17.36-1.217,31.521-6.029,42.495-14.441c10.962-8.406,19.476-18.488,25.582-30.259
	c6.08-11.771,10.273-24.466,12.554-38.066c2.281-13.607,3.429-26.372,3.429-38.289c0-11.917-1.071-24.606-3.199-38.06
	c-2.129-13.447-6.322-26.059-12.568-37.83c-6.245-11.765-14.836-21.853-25.798-30.266c-10.974-8.406-25.135-13.376-42.495-14.9
	v-48.422c6.704,0.306,15.002,1.217,24.906,2.74c9.891,1.524,20.241,4.34,31.062,8.451c10.809,4.11,21.618,9.98,32.426,17.589
	c10.809,7.616,20.559,17.583,29.239,29.921c8.68,12.332,15.69,27.563,21.018,45.682s7.992,39.819,7.992,65.094
	C1500.072,1739.897,1497.408,1761.444,1492.08,1779.562z M1609.919,1874.807h-58.479v-319.772h58.479V1874.807z M1803.836,1819.764
	c-4.423,10.809-10.133,19.718-17.131,26.722c-7.01,7.01-14.696,12.415-23.071,16.213c-8.374,3.817-16.595,6.628-24.663,8.457
	c-8.08,1.823-15.384,2.893-21.935,3.193c-6.551,0.306-11.344,0.459-14.39,0.459h-72.627v-48.422h57.561
	c7.609,0,15.142-0.605,22.612-1.829c7.456-1.211,14.161-3.499,20.1-6.851c5.94-3.346,10.731-8.221,14.39-14.62
	c3.645-6.392,5.481-14.919,5.481-25.581c0-10.961-2.052-19.565-6.169-25.811c-4.117-6.239-9.214-10.962-15.307-14.161
	s-12.721-5.175-19.871-5.939c-7.15-0.752-13.778-1.141-19.871-1.141h-58.925v-48.422h73.085c8.527,0,18.966,0.841,31.292,2.511
	c12.337,1.676,24.14,5.793,35.408,12.338c11.267,6.551,20.853,16.372,28.78,29.462c7.915,13.097,11.88,31.062,11.88,53.903
	C1810.464,1795.775,1808.246,1808.955,1803.836,1819.764z M1927.803,1874.807h-58.479v-319.772h58.479V1874.807z M2114.188,1874.807
	h-166.284v-48.422h166.284V1874.807z M2352.144,1874.807h-164.003h-51.162l-2.741-48.422h27.404
	c5.175-6.698,10.974-15.531,17.36-26.499c6.399-10.962,12.415-24.51,18.049-40.654c5.634-16.136,10.35-35.326,14.161-57.561
	c3.811-22.223,5.71-48.116,5.71-77.655v-68.982h58.479v86.794c0,17.666-0.625,34.421-1.836,50.251
	c-1.223,15.837-3.428,31.145-6.615,45.911c-3.199,14.772-7.699,29.462-13.485,44.082c-5.786,14.62-13.243,29.393-22.382,44.312
	h121.062L2352.144,1874.807L2352.144,1874.807z M2471.829,1874.807h-51.163h-48.422v-271.35H2295.5v-48.422h135.21v271.35h43.859
	L2471.829,1874.807z M2493.701,1874.807l120.59-319.772h50.258l-21.018,62.124l-87.247,257.648L2493.701,1874.807L2493.701,1874.807
	z M2730.789,1874.807l-23.3-67.152h-107.36l16.901-48.422h74.921l-38.824-113.293l26.499-73.086l113.746,301.953H2730.789z"/>
<g>
	<g enable-background="new    ">
		<path fill="#867550" d="M44.848,123.669c-6.6-0.202-12.026-1.327-16.275-3.375c-4.252-2.049-7.65-4.625-10.2-7.726
			c-2.55-3.099-4.376-6.45-5.475-10.05c-1.102-3.6-1.852-7.05-2.25-10.35h18.45c0.199,1.701,0.624,3.449,1.275,5.25
			c0.649,1.8,1.624,3.449,2.925,4.949c1.299,1.5,2.899,2.801,4.8,3.9c1.898,1.102,4.148,1.852,6.75,2.25V123.669z M33.448,37.568
			l-2.55,18.15c0.398-0.398,1.148-1.05,2.25-1.95c1.099-0.9,2.574-1.774,4.425-2.625c1.849-0.849,4.125-1.599,6.825-2.25
			c2.7-0.649,5.899-0.975,9.6-0.975c4.999,0,9.6,0.801,13.8,2.399c4.2,1.601,7.8,3.976,10.8,7.125c3,3.15,5.325,7.05,6.975,11.7
			c1.65,4.65,2.475,10.026,2.475,16.125c0,8.1-1.35,14.602-4.05,19.5c-2.7,4.9-5.977,8.7-9.825,11.4
			c-3.851,2.699-7.852,4.549-12,5.55c-4.15,0.998-7.725,1.599-10.725,1.8v-14.85c1.898-0.301,3.874-0.849,5.925-1.65
			c2.048-0.799,3.9-2.074,5.55-3.825c1.65-1.748,3-4.05,4.05-6.899c1.05-2.851,1.575-6.474,1.575-10.875
			c0-5.199-0.801-9.249-2.4-12.15c-1.601-2.899-3.476-5.049-5.625-6.45c-2.151-1.399-4.327-2.25-6.525-2.55
			c-2.201-0.3-3.9-0.45-5.1-0.45c-1.301,0-2.751,0.127-4.35,0.375c-1.601,0.251-3.225,0.675-4.875,1.275
			c-1.65,0.6-3.225,1.477-4.725,2.625c-1.5,1.15-2.752,2.625-3.75,4.425h-18.15l4.35-34.95H33.448z M18.148,31.419l2.1-15.9h61.35
			v15.9h-47.25H18.148z"/>
	</g>
	<g enable-background="new    ">
		<path fill="#867550" d="M105.147,100.269h19.8v20.25h-19.8V100.269z"/>
	</g>
	<g enable-background="new    ">
		<path fill="#867550" d="M130.046,34.269h2.1c3.699,0,7.125-0.474,10.275-1.425c3.15-0.949,5.925-2.25,8.325-3.9
			c2.4-1.649,4.35-3.623,5.85-5.925c1.5-2.299,2.449-4.8,2.85-7.5h14.1v105h-19.2v-76.5h-24.3V34.269z"/>
	</g>
	<g enable-background="new    ">
		<path fill="#867550" d="M219.294,34.269h2.1c3.699,0,7.125-0.474,10.275-1.425c3.15-0.949,5.925-2.25,8.325-3.9
			c2.4-1.649,4.35-3.623,5.85-5.925c1.5-2.299,2.449-4.8,2.85-7.5h14.1v105h-19.2v-76.5h-24.3V34.269z"/>
	</g>
	<g enable-background="new    ">
		<path fill="#867550" d="M284.693,100.269h19.8v20.25h-19.8V100.269z"/>
		<path fill="#867550" d="M403.492,104.618v15.9h-75.75c-0.101-3,0.049-5.824,0.45-8.475c0.398-2.648,0.999-5.124,1.8-7.426H403.492
			z M362.992,28.419c-4.001,0.4-7.125,1.375-9.375,2.925c-2.25,1.552-3.926,3.352-5.025,5.399c-1.102,2.051-1.777,4.102-2.025,6.15
			c-0.25,2.051-0.375,3.727-0.375,5.025v2.55h-18.45v-2.7c0-7.5,1.35-13.549,4.05-18.15c2.7-4.598,5.949-8.123,9.75-10.574
			c3.799-2.449,7.673-4.1,11.625-4.95c3.949-0.849,7.224-1.374,9.825-1.575V28.419z M332.692,98.318c1.599-3,3.549-5.7,5.85-8.1
			c2.299-2.4,4.8-4.624,7.5-6.675c2.7-2.049,5.475-3.949,8.325-5.7c2.85-1.749,5.723-3.525,8.625-5.325
			c2.798-1.699,5.524-3.424,8.175-5.175c2.648-1.749,5-3.698,7.05-5.851c2.048-2.148,3.698-4.549,4.95-7.199
			c1.25-2.648,1.875-5.675,1.875-9.075c0-0.999-0.126-2.374-0.375-4.125c-0.25-1.749-0.9-3.499-1.95-5.25
			c-1.05-1.749-2.602-3.323-4.65-4.726c-2.051-1.398-4.875-2.299-8.475-2.699V12.368c4.999,0.202,9.623,1.027,13.875,2.476
			c4.249,1.45,7.95,3.524,11.1,6.225c3.15,2.7,5.6,6.052,7.35,10.05c1.749,4.001,2.625,8.7,2.625,14.101
			c0,5.7-0.9,10.575-2.7,14.625c-1.8,4.05-4.2,7.601-7.2,10.649c-3,3.052-6.401,5.775-10.2,8.176c-3.801,2.399-7.701,4.8-11.7,7.199
			c-5.1,3.102-9.026,5.576-11.775,7.426c-2.752,1.852-4.976,3.524-6.675,5.024H332.692z"/>
	</g>
	<g enable-background="new    ">
		<path fill="#867550" d="M450.592,123.519c-7.5-0.502-13.552-2.7-18.15-6.6c-4.601-3.9-8.151-8.6-10.65-14.101
			c-2.5-5.498-4.151-11.349-4.95-17.55c-0.802-6.199-1.2-11.948-1.2-17.25c0-3.499,0.173-7.249,0.525-11.25
			c0.349-3.998,0.975-7.999,1.875-12c0.9-3.998,2.175-7.85,3.825-11.55c1.65-3.698,3.773-7.024,6.375-9.976
			c2.599-2.948,5.723-5.374,9.375-7.274c3.649-1.898,7.973-3.05,12.975-3.45v16.076c-1.601,0.3-3.3,1.026-5.1,2.177
			c-1.8,1.153-3.476,3.155-5.025,6.01c-1.552,2.854-2.827,6.787-3.825,11.794c-1.001,5.008-1.5,11.52-1.5,19.53
			c0,8.013,0.499,14.498,1.5,19.458c0.999,4.959,2.273,8.89,3.825,11.793c1.549,2.904,3.225,4.932,5.025,6.085
			c1.8,1.153,3.499,1.877,5.1,2.177V123.519z M457.191,107.442c1.599-0.3,3.3-1.023,5.1-2.177c1.8-1.151,3.474-3.155,5.025-6.01
			c1.549-2.854,2.824-6.785,3.825-11.794c0.999-5.006,1.5-11.517,1.5-19.53c0-7.912-0.501-14.372-1.5-19.38
			c-1.001-5.009-2.276-8.965-3.825-11.869c-1.551-2.904-3.225-4.932-5.025-6.084c-1.8-1.153-3.501-1.88-5.1-2.18v-15.9
			c5,0.4,9.35,1.552,13.05,3.45c3.698,1.9,6.848,4.301,9.45,7.2c2.6,2.901,4.699,6.225,6.3,9.975c1.598,3.75,2.85,7.627,3.75,11.625
			c0.9,4.001,1.523,8.002,1.875,12c0.349,4.001,0.525,7.751,0.525,11.25c0,5.302-0.427,11.051-1.275,17.25
			c-0.851,6.201-2.527,12.052-5.025,17.55c-2.501,5.501-6.026,10.177-10.575,14.025c-4.552,3.849-10.575,6.075-18.075,6.675V107.442
			z"/>
	</g>
	<g enable-background="new    ">
		<path fill="#867550" d="M511.189,34.269h2.1c3.699,0,7.125-0.474,10.275-1.425c3.15-0.949,5.925-2.25,8.325-3.9
			c2.4-1.649,4.35-3.623,5.85-5.925c1.5-2.299,2.449-4.8,2.85-7.5h14.1v105h-19.2v-76.5h-24.3V34.269z"/>
	</g>
	<g enable-background="new    ">
		<path fill="#867550" d="M627.437,107.019c4.699-1.299,8.049-3.825,10.05-7.575c1.999-3.75,3-8.074,3-12.975
			c0-2.899-0.352-5.648-1.05-8.25c-0.701-2.6-1.852-4.875-3.45-6.825c-1.601-1.95-3.626-3.474-6.075-4.575
			c-2.451-1.099-5.376-1.649-8.774-1.649c-4.102,0-7.401,0.7-9.9,2.1c-2.501,1.401-4.45,3.15-5.85,5.25
			c-1.401,2.1-2.351,4.401-2.851,6.9c-0.501,2.5-0.75,4.852-0.75,7.05c0,2.2,0.249,4.525,0.75,6.975
			c0.5,2.452,1.449,4.726,2.851,6.825c1.399,2.1,3.323,3.851,5.774,5.25c2.449,1.401,5.675,2.151,9.676,2.25v15.9
			c-5.801,0-10.801-0.776-15-2.325c-4.2-1.55-7.726-3.624-10.575-6.226c-2.851-2.599-5.126-5.599-6.825-9
			c-1.701-3.398-3-6.949-3.9-10.649c-0.899-3.698-1.5-7.399-1.8-11.101c-0.3-3.698-0.45-7.199-0.45-10.5
			c0-12.698,1.2-22.973,3.601-30.824c2.399-7.85,5.449-14,9.149-18.45c3.699-4.448,7.824-7.5,12.375-9.15
			c4.55-1.649,9.023-2.625,13.426-2.925v15.9c-2.002,0.201-4.076,0.775-6.226,1.725c-2.151,0.951-4.177,2.526-6.075,4.725
			c-1.9,2.201-3.524,5.227-4.875,9.075c-1.35,3.851-2.175,8.775-2.475,14.775h0.3c0.8-1.1,1.8-2.225,3-3.375
			c1.2-1.148,2.749-2.175,4.65-3.075c1.898-0.9,4.148-1.624,6.75-2.175c2.599-0.549,5.7-0.825,9.3-0.825
			c10.699,0,19.174,3.127,25.425,9.375c6.249,6.251,9.375,15.225,9.375,26.925c0,10.901-2.901,19.627-8.7,26.175
			c-5.801,6.551-13.75,10.426-23.85,11.625V107.019z M627.437,12.519c5.1,0.3,9.549,1.252,13.35,2.85
			c3.8,1.602,6.976,3.652,9.525,6.15c2.55,2.501,4.549,5.275,6,8.325c1.448,3.052,2.424,6.225,2.925,9.524h-18.45
			c-0.501-2.1-1.251-3.824-2.25-5.175c-1-1.35-2.1-2.423-3.3-3.225c-1.2-0.8-2.475-1.399-3.825-1.8
			c-1.35-0.398-2.676-0.649-3.975-0.75V12.519z"/>
		<path fill="#867550" d="M708.434,74.019h132v12.3h-132V74.019z"/>
		<path fill="#867550" d="M901.181,34.269h2.1c3.699,0,7.125-0.474,10.275-1.425c3.15-0.949,5.925-2.25,8.325-3.9
			c2.399-1.649,4.35-3.623,5.85-5.925c1.5-2.299,2.449-4.8,2.851-7.5h14.1v105h-19.2v-76.5h-24.3V34.269z"/>
		<path fill="#867550" d="M1005.28,123.669c-6.599-0.202-12.024-1.327-16.273-3.375c-4.252-2.049-7.65-4.625-10.2-7.726
			c-2.55-3.099-4.376-6.45-5.476-10.05c-1.102-3.6-1.852-7.05-2.25-10.35h18.45c0.199,1.701,0.624,3.449,1.275,5.25
			c0.649,1.8,1.624,3.449,2.925,4.949c1.299,1.5,2.899,2.801,4.8,3.9c1.898,1.102,4.147,1.852,6.749,2.25V123.669z M993.882,37.568
			l-2.551,18.15c0.398-0.398,1.148-1.05,2.25-1.95c1.1-0.9,2.574-1.774,4.426-2.625c1.849-0.849,4.125-1.599,6.824-2.25
			c2.699-0.649,5.898-0.975,9.6-0.975c5,0,9.6,0.801,13.801,2.399c4.199,1.601,7.799,3.976,10.799,7.125
			c3,3.15,5.326,7.05,6.977,11.7c1.648,4.65,2.475,10.026,2.475,16.125c0,8.1-1.35,14.602-4.051,19.5
			c-2.699,4.9-5.977,8.7-9.824,11.4c-3.852,2.699-7.852,4.549-12,5.55c-4.15,0.998-7.725,1.599-10.725,1.8v-14.85
			c1.898-0.301,3.873-0.849,5.924-1.65c2.049-0.799,3.9-2.074,5.551-3.825c1.65-1.748,3-4.05,4.049-6.899
			c1.051-2.851,1.576-6.474,1.576-10.875c0-5.199-0.803-9.249-2.4-12.15c-1.602-2.899-3.477-5.049-5.625-6.45
			c-2.152-1.399-4.326-2.25-6.525-2.55c-2.201-0.3-3.9-0.45-5.1-0.45c-1.301,0-2.752,0.127-4.35,0.375
			c-1.602,0.251-3.225,0.675-4.875,1.275c-1.65,0.6-3.225,1.477-4.725,2.625c-1.5,1.15-2.752,2.625-3.75,4.425h-18.15l4.35-34.95
			H993.882z M978.581,31.419l2.101-15.9h61.349v15.9h-47.249H978.581z"/>
		<path fill="#867550" d="M1066.33,100.269h19.8v20.25h-19.8V100.269z"/>
		<path fill="#867550" d="M1146.878,123.669c-6.6-0.202-12.025-1.327-16.274-3.375c-4.252-2.049-7.65-4.625-10.2-7.726
			c-2.55-3.099-4.376-6.45-5.475-10.05c-1.102-3.6-1.852-7.05-2.25-10.35h18.449c0.199,1.701,0.624,3.449,1.275,5.25
			c0.649,1.8,1.624,3.449,2.925,4.949c1.299,1.5,2.899,2.801,4.8,3.9c1.898,1.102,4.148,1.852,6.75,2.25V123.669z M1135.478,37.568
			l-2.55,18.15c0.398-0.398,1.148-1.05,2.25-1.95c1.099-0.9,2.573-1.774,4.425-2.625c1.849-0.849,4.125-1.599,6.825-2.25
			c2.699-0.649,5.898-0.975,9.6-0.975c4.999,0,9.6,0.801,13.8,2.399c4.2,1.601,7.8,3.976,10.8,7.125c3,3.15,5.325,7.05,6.976,11.7
			c1.649,4.65,2.475,10.026,2.475,16.125c0,8.1-1.35,14.602-4.05,19.5c-2.7,4.9-5.977,8.7-9.825,11.4
			c-3.851,2.699-7.852,4.549-12,5.55c-4.15,0.998-7.725,1.599-10.725,1.8v-14.85c1.898-0.301,3.874-0.849,5.925-1.65
			c2.049-0.799,3.9-2.074,5.55-3.825c1.65-1.748,3-4.05,4.05-6.899c1.051-2.851,1.575-6.474,1.575-10.875
			c0-5.199-0.802-9.249-2.399-12.15c-1.602-2.899-3.477-5.049-5.625-6.45c-2.152-1.399-4.327-2.25-6.525-2.55
			c-2.201-0.3-3.9-0.45-5.1-0.45c-1.301,0-2.752,0.127-4.351,0.375c-1.601,0.251-3.225,0.675-4.875,1.275
			c-1.649,0.6-3.225,1.477-4.725,2.625c-1.5,1.15-2.752,2.625-3.75,4.425h-18.15l4.351-34.95H1135.478z M1120.178,31.419l2.1-15.9
			h61.35v15.9h-47.25H1120.178z"/>
		<path fill="#867550" d="M1207.927,100.269h19.8v20.25h-19.8V100.269z"/>
		<path fill="#867550" d="M1326.725,104.618v15.9h-75.75c-0.101-3,0.05-5.824,0.45-8.475c0.398-2.648,0.999-5.124,1.8-7.426
			H1326.725z M1286.225,28.419c-4,0.4-7.125,1.375-9.375,2.925c-2.25,1.552-3.926,3.352-5.024,5.399
			c-1.102,2.051-1.776,4.102-2.025,6.15c-0.251,2.051-0.375,3.727-0.375,5.025v2.55h-18.45v-2.7c0-7.5,1.351-13.549,4.051-18.15
			c2.699-4.598,5.948-8.123,9.75-10.574c3.799-2.449,7.673-4.1,11.625-4.95c3.949-0.849,7.223-1.374,9.824-1.575V28.419z
			 M1255.926,98.318c1.599-3,3.549-5.7,5.851-8.1c2.299-2.4,4.8-4.624,7.5-6.675c2.699-2.049,5.475-3.949,8.324-5.7
			c2.851-1.749,5.724-3.525,8.625-5.325c2.799-1.699,5.524-3.424,8.176-5.175c2.648-1.749,4.999-3.698,7.05-5.851
			c2.048-2.148,3.698-4.549,4.95-7.199c1.249-2.648,1.875-5.675,1.875-9.075c0-0.999-0.127-2.374-0.375-4.125
			c-0.251-1.749-0.9-3.499-1.95-5.25c-1.05-1.749-2.602-3.323-4.65-4.726c-2.051-1.398-4.875-2.299-8.475-2.699V12.368
			c4.999,0.202,9.623,1.027,13.875,2.476c4.249,1.45,7.95,3.524,11.1,6.225c3.15,2.7,5.6,6.052,7.351,10.05
			c1.748,4.001,2.625,8.7,2.625,14.101c0,5.7-0.9,10.575-2.7,14.625s-4.2,7.601-7.2,10.649c-3,3.052-6.4,5.775-10.2,8.176
			c-3.802,2.399-7.701,4.8-11.7,7.199c-5.1,3.102-9.025,5.576-11.774,7.426c-2.752,1.852-4.976,3.524-6.675,5.024H1255.926z"/>
	</g>
	<g enable-background="new    ">
		<path fill="#867550" d="M1380.274,123.519c-7.5-0.502-13.552-2.7-18.15-6.6c-4.601-3.9-8.151-8.6-10.65-14.101
			c-2.5-5.498-4.151-11.349-4.95-17.55c-0.802-6.199-1.2-11.948-1.2-17.25c0-3.499,0.173-7.249,0.525-11.25
			c0.349-3.998,0.975-7.999,1.875-12c0.9-3.998,2.175-7.85,3.825-11.55c1.65-3.698,3.773-7.024,6.375-9.976
			c2.599-2.948,5.723-5.374,9.375-7.274c3.649-1.898,7.973-3.05,12.975-3.45v16.076c-1.601,0.3-3.3,1.026-5.1,2.177
			c-1.8,1.153-3.476,3.155-5.025,6.01c-1.552,2.854-2.827,6.787-3.825,11.794c-1.001,5.008-1.5,11.52-1.5,19.53
			c0,8.013,0.499,14.498,1.5,19.458c0.999,4.959,2.273,8.89,3.825,11.793c1.549,2.904,3.225,4.932,5.025,6.085
			c1.8,1.153,3.499,1.877,5.1,2.177V123.519z M1386.873,107.442c1.599-0.3,3.3-1.023,5.1-2.177c1.8-1.151,3.474-3.155,5.025-6.01
			c1.549-2.854,2.824-6.785,3.825-11.794c0.999-5.006,1.5-11.517,1.5-19.53c0-7.912-0.501-14.372-1.5-19.38
			c-1.001-5.009-2.276-8.965-3.825-11.869c-1.551-2.904-3.225-4.932-5.025-6.084c-1.8-1.153-3.501-1.88-5.1-2.18v-15.9
			c5,0.4,9.35,1.552,13.05,3.45c3.698,1.9,6.848,4.301,9.45,7.2c2.6,2.901,4.699,6.225,6.3,9.975c1.598,3.75,2.85,7.627,3.75,11.625
			c0.899,4.001,1.523,8.002,1.875,12c0.349,4.001,0.524,7.751,0.524,11.25c0,5.302-0.427,11.051-1.274,17.25
			c-0.852,6.201-2.527,12.052-5.025,17.55c-2.501,5.501-6.026,10.177-10.575,14.025c-4.552,3.849-10.575,6.075-18.075,6.675V107.442
			z"/>
	</g>
	<g enable-background="new    ">
		<path fill="#867550" d="M1437.872,34.269h2.101c3.698,0,7.125-0.474,10.274-1.425c3.15-0.949,5.926-2.25,8.325-3.9
			c2.4-1.649,4.351-3.623,5.851-5.925c1.5-2.299,2.449-4.8,2.85-7.5h14.1v105h-19.199v-76.5h-24.301V34.269z"/>
		<path fill="#867550" d="M1561.923,31.419h-63.45v-15.9h81v13.2l-2.55,2.7H1561.923z M1571.073,38.019
			c-4.602,5.602-8.527,11.227-11.775,16.875c-3.251,5.65-6.326,11.876-9.225,18.675c-1.801,4.102-3.301,7.95-4.5,11.55
			c-1.2,3.601-2.227,7.227-3.075,10.875c-0.851,3.652-1.552,7.451-2.101,11.4c-0.551,3.951-1.026,8.325-1.425,13.125h-20.1
			c0.899-7.1,2.449-14.524,4.649-22.275c2.199-7.748,4.749-15.074,7.65-21.975c2.299-5.4,5.374-11.325,9.225-17.775
			c3.849-6.449,8.975-13.274,15.375-20.475H1571.073z"/>
	</g>
</g>
<g enable-background="new    ">
	<path fill="#867550" d="M60.181,1606.796h7.125v39.904H60.01v-29.188L41.027,1646.7h-7.126v-39.904h7.297v29.188L60.181,1606.796z"
		/>
	<path fill="#867550" d="M102.817,1636.097c-0.456,4.219-3.079,11.744-13.682,11.744c-9.862,0-14.537-6.385-14.537-15.563
		c0-14.821,10.546-15.677,14.309-15.677c8.894,0,13.169,5.188,13.796,10.774h-6.499c-0.342-3.021-2.394-6.1-6.897-6.1
		c-5.644,0-7.411,5.073-7.411,11.002c0,9.064,4.561,10.889,7.81,10.889c5.074,0,6.499-4.39,6.613-7.069H102.817z"/>
	<path fill="#867550" d="M105.605,1622.415v-4.674h26.679v4.674h-9.919v24.285h-6.841v-24.285H105.605z"/>
	<path fill="#867550" d="M150.409,1616.601c12.313,0,14.936,10.033,14.936,15.62s-2.622,15.62-14.936,15.62
		s-14.936-10.033-14.936-15.62S138.095,1616.601,150.409,1616.601z M150.409,1643.166c2.451,0,7.639-1.026,7.639-10.945
		s-5.188-10.945-7.639-10.945c-2.452,0-7.639,1.026-7.639,10.945S147.957,1643.166,150.409,1643.166z"/>
	<path fill="#867550" d="M178.166,1617.741v2.85h0.114c2.565-3.135,6.385-3.99,9.349-3.99c6.67,0,13.967,4.219,13.967,15.449
		c0,6.1-2.395,15.791-13.739,15.791c-0.798,0-6.841,0-9.121-4.105v13.511h-6.841v-39.505H178.166z M185.919,1643.166
		c3.078,0,8.38-1.482,8.38-10.718c0-8.209-3.934-11.173-8.095-11.173c-3.021,0-7.981,1.596-7.981,11.002
		C178.223,1638.776,180.959,1643.166,185.919,1643.166z"/>
	<path fill="#867550" d="M228.555,1617.741h7.524v28.959h-6.841v-20.864l-13.567,20.864h-7.525v-28.959h6.841v20.864
		L228.555,1617.741z"/>
	<path fill="#867550" d="M262.127,1617.741h7.867l-12.883,13.51l13.51,15.449h-7.867l-11.629-14.023v14.023h-6.841v-28.959h6.841
		v12.085L262.127,1617.741z"/>
	<path fill="#867550" d="M287.776,1616.601c12.313,0,14.936,10.033,14.936,15.62s-2.622,15.62-14.936,15.62
		s-14.936-10.033-14.936-15.62S275.463,1616.601,287.776,1616.601z M287.776,1643.166c2.451,0,7.639-1.026,7.639-10.945
		s-5.188-10.945-7.639-10.945c-2.452,0-7.639,1.026-7.639,10.945S285.324,1643.166,287.776,1643.166z"/>
	<path fill="#867550" d="M309.719,1628.344h14.822v6.043h-14.822V1628.344z"/>
</g>
<g enable-background="new    ">
	<path fill="#867550" d="M33.045,1717.025c4.504-6.954,4.618-15.163,4.618-19.211v-5.073h22.632v24.284h5.017l-0.57,12.2H59.04
		v-7.525H35.325v7.525h-5.7l-0.57-12.2H33.045z M44.048,1697.415v3.535c0,6.783-1.026,10.261-3.762,16.075h13.168v-19.61H44.048z"/>
	<path fill="#867550" d="M82.922,1691.601c12.313,0,14.936,10.033,14.936,15.62s-2.622,15.62-14.936,15.62
		s-14.936-10.033-14.936-15.62S70.609,1691.601,82.922,1691.601z M82.922,1718.166c2.451,0,7.639-1.026,7.639-10.945
		s-5.188-10.945-7.639-10.945s-7.639,1.026-7.639,10.945S80.471,1718.166,82.922,1718.166z"/>
	<path fill="#867550" d="M122.252,1692.741h7.867l-12.883,13.51l13.51,15.449h-7.867l-11.629-14.023v14.023h-6.841v-28.959h6.841
		v12.085L122.252,1692.741z"/>
	<path fill="#867550" d="M137.697,1727.458c0.684,0.171,1.596,0.342,2.622,0.342c2.623,0,3.592-1.425,4.561-4.788l0.399-1.368
		l-13.169-28.902h8.209l8.722,21.548l6.67-21.548h6.841l-11.06,31.467c-0.912,2.623-2.394,8.267-9.52,8.267
		c-1.254,0-2.907-0.114-4.275-0.342V1727.458z"/>
	<path fill="#867550" d="M173.492,1700.322h-0.114l0.114,1.54v19.838h-6.841v-28.959h9.349l8.722,21.662l8.722-21.662h9.35v28.959
		h-6.841v-19.838l0.114-1.54h-0.114l-8.779,21.378h-4.902L173.492,1700.322z"/>
	<path fill="#867550" d="M237.847,1713.32c-0.684,3.763-3.477,9.521-13.795,9.521c-2.907,0-14.708-0.514-14.708-15.107
		c0-9.748,4.789-16.133,14.765-16.133c12.542,0,13.853,10.033,14.138,15.734c0,0.569,0.057,1.083,0.057,1.652h-21.663
		c-0.057,3.706,1.938,9.179,7.981,9.179c3.079,0,6.271-1.653,6.727-4.846H237.847z M231.064,1704.313
		c-0.057-2.623-0.912-8.038-6.898-8.038c-5.358,0-7.639,4.275-7.525,8.038H231.064z"/>
	<path fill="#867550" d="M251.696,1721.7h-6.841v-28.959h6.841v11.4h12.542v-11.4h6.841v28.959h-6.841v-12.884h-12.542V1721.7z"/>
	<path fill="#867550" d="M275.919,1697.415v-4.674h26.679v4.674h-9.919v24.285h-6.841v-24.285H275.919z"/>
	<path fill="#867550" d="M305.615,1701.69c-0.114-5.301,3.706-10.09,13.226-10.09c11.687,0,12.485,6.841,12.485,10.262v11.572
		c0,2.736,0.114,3.705,2.508,3.534v4.731c-1.71,0.114-2.451,0.171-3.021,0.171c-1.767,0-5.017-0.228-5.644-3.763
		c-2.508,3.192-5.758,4.275-9.634,4.275c-10.033,0-10.66-5.985-10.66-8.38c0-6.042,5.358-7.753,6.669-8.095
		c2.224-0.627,4.333-0.741,6.727-1.083c0.912-0.114,1.881-0.285,2.793-0.399c2.394-0.342,3.42-0.285,3.42-3.135
		c0-4.561-3.42-5.017-5.644-5.017c-4.959,0-6.897,2.736-6.727,5.415H305.615z M324.485,1707.79
		c-0.741,0.514-1.653,0.799-4.903,1.197c-4.674,0.627-7.639,1.026-7.639,4.789c0,2.223,1.311,3.934,4.503,3.934
		c3.363,0,8.038-1.368,8.038-8.894V1707.79z"/>
	<path fill="#867550" d="M337.593,1717.025c7.411,1.368,6.669-7.297,6.669-14.821v-9.463h22.176v28.959h-6.841v-24.285h-8.95v5.416
		c0,10.09-0.456,21.377-13.054,18.869V1717.025z"/>
	<path fill="#867550" d="M381.483,1692.741v11.173h6.67c4.617,0,12.028,0.285,12.028,8.95c0,7.924-6.499,8.836-10.432,8.836h-15.107
		v-28.959H381.483z M381.483,1717.025h6.613c2.623,0,5.017-1.14,5.017-4.332c0-4.162-3.991-4.104-5.017-4.104h-6.613V1717.025z"/>
	<path fill="#867550" d="M412.434,1721.7h-6.841v-28.959h6.841v11.4h12.542v-11.4h6.841v28.959h-6.841v-12.884h-12.542V1721.7z"/>
	<path fill="#867550" d="M438.766,1701.69c-0.114-5.301,3.706-10.09,13.226-10.09c11.687,0,12.484,6.841,12.484,10.262v11.572
		c0,2.736,0.114,3.705,2.509,3.534v4.731c-1.71,0.114-2.451,0.171-3.021,0.171c-1.768,0-5.017-0.228-5.644-3.763
		c-2.509,3.192-5.758,4.275-9.634,4.275c-10.033,0-10.66-5.985-10.66-8.38c0-6.042,5.358-7.753,6.669-8.095
		c2.224-0.627,4.333-0.741,6.727-1.083c0.912-0.114,1.881-0.285,2.793-0.399c2.395-0.342,3.42-0.285,3.42-3.135
		c0-4.561-3.42-5.017-5.644-5.017c-4.959,0-6.897,2.736-6.727,5.415H438.766z M457.635,1707.79c-0.74,0.514-1.652,0.799-4.902,1.197
		c-4.674,0.627-7.639,1.026-7.639,4.789c0,2.223,1.311,3.934,4.503,3.934c3.363,0,8.038-1.368,8.038-8.894V1707.79z"/>
	<path fill="#867550" d="M478.439,1721.7h-7.524l8.551-10.831c-2.907-0.285-7.924-1.938-7.924-8.608c0-9.406,8.494-9.52,10.375-9.52
		h15.677v28.959h-6.841v-10.774h-4.446L478.439,1721.7z M484.71,1697.415c-4.104,0-6.101,1.141-6.101,4.561
		c0,2.965,1.768,4.275,6.101,4.275h6.042v-8.836H484.71z"/>
</g>
<g enable-background="new    ">
	<path fill="#867550" d="M48.78,1767.741c5.985,0,9.406,2.052,9.406,7.012c0,4.389-3.192,6.271-5.586,6.727v0.114
		c3.478,0.684,6.613,2.679,6.613,7.468c0,5.871-5.017,7.639-10.546,7.639H33.159v-28.959H48.78z M40,1779.37h5.872
		c4.333,0,5.302-2.109,5.302-3.648c0-2.907-2.679-3.307-4.561-3.307H40V1779.37z M40,1792.025h6.499
		c1.995,0,5.644-0.342,5.644-3.819c0-3.705-3.478-4.161-5.872-4.161H40V1792.025z"/>
	<path fill="#867550" d="M72.718,1767.741v11.173h6.67c4.618,0,12.028,0.285,12.028,8.95c0,7.924-6.499,8.836-10.432,8.836H65.877
		v-28.959H72.718z M72.718,1792.025h6.613c2.622,0,5.017-1.14,5.017-4.332c0-4.162-3.99-4.104-5.017-4.104h-6.613V1792.025z
		 M101.677,1767.741v28.959h-6.841v-28.959H101.677z"/>
	<path fill="#867550" d="M136.446,1786.097c-0.456,4.219-3.079,11.744-13.682,11.744c-9.862,0-14.537-6.385-14.537-15.563
		c0-14.821,10.546-15.677,14.309-15.677c8.894,0,13.169,5.188,13.796,10.774h-6.499c-0.342-3.021-2.394-6.1-6.897-6.1
		c-5.644,0-7.411,5.073-7.411,11.002c0,9.064,4.561,10.889,7.81,10.889c5.074,0,6.499-4.39,6.613-7.069H136.446z"/>
	<path fill="#867550" d="M139.234,1772.415v-4.674h26.679v4.674h-9.919v24.285h-6.841v-24.285H139.234z"/>
	<path fill="#867550" d="M168.931,1776.69c-0.114-5.301,3.706-10.09,13.226-10.09c11.687,0,12.485,6.841,12.485,10.262v11.572
		c0,2.736,0.114,3.705,2.508,3.534v4.731c-1.71,0.114-2.451,0.171-3.021,0.171c-1.767,0-5.017-0.228-5.644-3.763
		c-2.508,3.192-5.758,4.275-9.634,4.275c-10.033,0-10.66-5.985-10.66-8.38c0-6.042,5.358-7.753,6.669-8.095
		c2.224-0.627,4.333-0.741,6.727-1.083c0.912-0.114,1.881-0.285,2.793-0.399c2.394-0.342,3.42-0.285,3.42-3.135
		c0-4.561-3.42-5.017-5.644-5.017c-4.959,0-6.897,2.736-6.727,5.415H168.931z M187.801,1782.79
		c-0.741,0.514-1.653,0.799-4.903,1.197c-4.674,0.627-7.639,1.026-7.639,4.789c0,2.223,1.311,3.934,4.503,3.934
		c3.363,0,8.038-1.368,8.038-8.894V1782.79z"/>
	<path fill="#867550" d="M218.694,1767.741c5.986,0,9.406,2.052,9.406,7.012c0,4.389-3.192,6.271-5.586,6.727v0.114
		c3.477,0.684,6.613,2.679,6.613,7.468c0,5.871-5.017,7.639-10.546,7.639h-15.506v-28.959H218.694z M209.915,1779.37h5.872
		c4.333,0,5.302-2.109,5.302-3.648c0-2.907-2.679-3.307-4.561-3.307h-6.613V1779.37z M209.915,1792.025h6.499
		c1.996,0,5.644-0.342,5.644-3.819c0-3.705-3.478-4.161-5.872-4.161h-6.271V1792.025z"/>
	<path fill="#867550" d="M253.635,1767.741h7.867l-12.883,13.51l13.51,15.449h-7.867l-11.629-14.023v14.023h-6.841v-28.959h6.841
		v12.085L253.635,1767.741z"/>
	<path fill="#867550" d="M264.747,1776.69c-0.114-5.301,3.705-10.09,13.226-10.09c11.686,0,12.484,6.841,12.484,10.262v11.572
		c0,2.736,0.114,3.705,2.508,3.534v4.731c-1.71,0.114-2.452,0.171-3.021,0.171c-1.767,0-5.017-0.228-5.644-3.763
		c-2.508,3.192-5.758,4.275-9.634,4.275c-10.033,0-10.66-5.985-10.66-8.38c0-6.042,5.358-7.753,6.67-8.095
		c2.223-0.627,4.332-0.741,6.727-1.083c0.912-0.114,1.881-0.285,2.793-0.399c2.394-0.342,3.42-0.285,3.42-3.135
		c0-4.561-3.42-5.017-5.644-5.017c-4.96,0-6.898,2.736-6.727,5.415H264.747z M283.616,1782.79c-0.741,0.514-1.653,0.799-4.903,1.197
		c-4.674,0.627-7.639,1.026-7.639,4.789c0,2.223,1.311,3.934,4.503,3.934c3.363,0,8.038-1.368,8.038-8.894V1782.79z"/>
	<path fill="#867550" d="M330.013,1767.741h7.867l-12.883,13.51l13.51,15.449h-7.867l-11.629-14.023v14.023h-6.841v-28.959h6.841
		v12.085L330.013,1767.741z"/>
	<path fill="#867550" d="M353.266,1756.796h30.784v5.016c-5.359,5.473-8.38,10.49-11.174,17.046
		c-2.679,6.214-3.591,10.603-4.218,17.843h-7.639c0.685-5.358,2.452-11.629,4.675-16.817c2.052-4.674,5.358-10.603,11.687-17.045
		h-24.114V1756.796z"/>
	<path fill="#867550" d="M396.815,1785.926c0.285,2.907,2.337,6.328,7.24,6.328c3.249,0,7.753-1.482,7.753-8.894
		c0-7.867-5.587-8.209-7.468-8.209c-1.996,0-5.131,0.57-6.727,3.307h-6.898l2.736-21.662h23.316v6.042H398.81l-1.311,9.235
		c0.684-0.684,3.192-2.965,8.779-2.965c7.639,0,12.94,4.903,12.94,14.195c0,14.023-12.427,14.594-15.62,14.594
		c-10.546,0-13.226-6.898-13.796-11.972H396.815z"/>
	<path fill="#867550" d="M424.515,1778.344h14.822v6.043h-14.822V1778.344z"/>
	<path fill="#867550" d="M444.636,1792.025c7.411,1.368,6.67-7.297,6.67-14.821v-9.463h22.176v28.959h-6.841v-24.285h-8.95v5.416
		c0,10.09-0.456,21.377-13.055,18.869V1792.025z"/>
	<path fill="#867550" d="M508.536,1788.32c-0.685,3.763-3.478,9.521-13.796,9.521c-2.907,0-14.708-0.514-14.708-15.107
		c0-9.748,4.789-16.133,14.765-16.133c12.542,0,13.853,10.033,14.138,15.734c0,0.569,0.058,1.083,0.058,1.652h-21.663
		c-0.057,3.706,1.938,9.179,7.981,9.179c3.078,0,6.271-1.653,6.727-4.846H508.536z M501.752,1779.313
		c-0.057-2.623-0.912-8.038-6.897-8.038c-5.359,0-7.64,4.275-7.525,8.038H501.752z"/>
	<path fill="#867550" d="M512.18,1772.415v-4.674h26.679v4.674h-9.919v24.285h-6.841v-24.285H512.18z"/>
	<path fill="#867550" d="M564.109,1767.741h7.525v28.959h-6.841v-20.864l-13.568,20.864H543.7v-28.959h6.841v20.864
		L564.109,1767.741z"/>
	<path fill="#867550" d="M590.954,1779.085c0.513-6.67,5.701-12.484,14.594-12.484c12.313,0,14.936,10.033,14.936,15.62
		s-2.622,15.62-14.936,15.62c-10.204,0-14.594-7.297-14.765-14.081h-4.104v12.94h-6.841v-28.959h6.841v11.344H590.954z
		 M605.548,1793.166c2.451,0,7.639-1.026,7.639-10.945s-5.188-10.945-7.639-10.945s-7.639,1.026-7.639,10.945
		S603.097,1793.166,605.548,1793.166z"/>
</g>
<g enable-background="new    ">
	<path fill="#867550" d="M59.952,1829.572c-0.513,6.612-5.529,7.297-10.09,7.753c-5.359,0.57-13.396,1.653-12.94,12.484h0.114
		c1.767-5.017,6.67-7.753,11.744-7.753c7.753,0,13.966,5.644,13.966,15.392c0,7.696-4.389,15.393-15.221,15.393
		c-15.05,0-15.221-13.739-15.221-17.217c0-9.292,1.197-13.624,2.166-15.904c2.395-5.587,6.841-7.411,15.791-8.267
		c2.736-0.228,3.762-0.627,4.104-1.881H59.952z M47.525,1868.166c2.565,0,7.924-1.026,7.924-10.718s-5.358-10.717-7.924-10.717
		s-7.924,1.025-7.924,10.717S44.96,1868.166,47.525,1868.166z"/>
	<path fill="#867550" d="M89.705,1842.741h7.524v28.959h-6.841v-20.864L76.822,1871.7h-7.525v-28.959h6.841v20.864L89.705,1842.741z
		"/>
	<path fill="#867550" d="M102.071,1847.415v-4.674h26.679v4.674h-9.919v24.285h-6.841v-24.285H102.071z"/>
	<path fill="#867550" d="M149.211,1842.741c5.985,0,9.406,2.052,9.406,7.012c0,4.389-3.192,6.271-5.586,6.727v0.114
		c3.478,0.684,6.613,2.679,6.613,7.468c0,5.871-5.017,7.639-10.546,7.639h-15.506v-28.959H149.211z M140.432,1854.37h5.872
		c4.333,0,5.302-2.109,5.302-3.648c0-2.907-2.679-3.307-4.561-3.307h-6.613V1854.37z M140.432,1867.025h6.499
		c1.995,0,5.644-0.342,5.644-3.819c0-3.705-3.478-4.161-5.872-4.161h-6.271V1867.025z"/>
	<path fill="#867550" d="M173.15,1842.741v11.173h6.67c4.617,0,12.028,0.285,12.028,8.95c0,7.924-6.499,8.836-10.432,8.836h-15.107
		v-28.959H173.15z M173.15,1867.025h6.613c2.623,0,5.017-1.14,5.017-4.332c0-4.162-3.991-4.104-5.017-4.104h-6.613V1867.025z
		 M202.109,1842.741v28.959h-6.841v-28.959H202.109z"/>
	<path fill="#867550" d="M227.811,1862.636c0,2.053,1.083,5.53,6.841,5.53c5.7,0,6.669-2.851,6.669-4.731
		c0-4.104-4.446-4.048-5.757-4.048h-3.877v-4.675h3.136c4.161,0,5.13-2.223,5.13-4.104c0-2.166-1.482-4.332-5.586-4.332
		c-1.881,0-5.473,0.456-5.701,5.188h-6.499c0.171-4.104,2.109-9.862,12.599-9.862c9.064,0,12.371,4.332,12.371,8.836
		c0,3.819-2.508,5.758-4.903,6.157v0.113c4.675,0.912,6.157,3.592,6.157,6.499c0,4.333-2.394,9.635-13.795,9.635
		c-11.344,0-13.168-6.613-13.283-10.205H227.811z"/>
	<path fill="#867550" d="M253.688,1851.69c-0.114-5.301,3.705-10.09,13.226-10.09c11.686,0,12.484,6.841,12.484,10.262v11.572
		c0,2.736,0.114,3.705,2.508,3.534v4.731c-1.71,0.114-2.452,0.171-3.021,0.171c-1.767,0-5.017-0.228-5.644-3.763
		c-2.508,3.192-5.758,4.275-9.634,4.275c-10.033,0-10.66-5.985-10.66-8.38c0-6.042,5.358-7.753,6.67-8.095
		c2.223-0.627,4.332-0.741,6.727-1.083c0.912-0.114,1.881-0.285,2.793-0.399c2.394-0.342,3.42-0.285,3.42-3.135
		c0-4.561-3.42-5.017-5.644-5.017c-4.96,0-6.898,2.736-6.727,5.415H253.688z M272.557,1857.79c-0.741,0.514-1.653,0.799-4.903,1.197
		c-4.674,0.627-7.639,1.026-7.639,4.789c0,2.223,1.311,3.934,4.503,3.934c3.363,0,8.038-1.368,8.038-8.894V1857.79z"/>
	<path fill="#867550" d="M309.149,1840.118h-0.114l0.114,1.539v30.043h-7.297v-39.904h10.888l10.888,30.271l10.889-30.271h10.888
		v39.904h-7.297v-30.043l0.114-1.539h-0.114l-11.744,31.582h-5.473L309.149,1840.118z"/>
	<path fill="#867550" d="M367.631,1841.601c12.313,0,14.936,10.033,14.936,15.62s-2.622,15.62-14.936,15.62
		s-14.936-10.033-14.936-15.62S355.317,1841.601,367.631,1841.601z M367.631,1868.166c2.451,0,7.639-1.026,7.639-10.945
		s-5.188-10.945-7.639-10.945c-2.452,0-7.639,1.026-7.639,10.945S365.179,1868.166,367.631,1868.166z"/>
	<path fill="#867550" d="M415.683,1861.097c-0.456,4.219-3.079,11.744-13.682,11.744c-9.862,0-14.537-6.385-14.537-15.563
		c0-14.821,10.546-15.677,14.309-15.677c8.894,0,13.169,5.188,13.796,10.774h-6.499c-0.342-3.021-2.394-6.1-6.897-6.1
		c-5.644,0-7.411,5.073-7.411,11.002c0,9.064,4.561,10.889,7.81,10.889c5.074,0,6.499-4.39,6.613-7.069H415.683z"/>
	<path fill="#867550" d="M439.678,1842.741h7.867l-12.883,13.51l13.511,15.449h-7.867l-11.629-14.023v14.023h-6.841v-28.959h6.841
		v12.085L439.678,1842.741z"/>
	<path fill="#867550" d="M467.664,1842.741c5.986,0,9.406,2.052,9.406,7.012c0,4.389-3.192,6.271-5.587,6.727v0.114
		c3.478,0.684,6.613,2.679,6.613,7.468c0,5.871-5.017,7.639-10.546,7.639h-15.506v-28.959H467.664z M458.885,1854.37h5.872
		c4.333,0,5.302-2.109,5.302-3.648c0-2.907-2.68-3.307-4.561-3.307h-6.613V1854.37z M458.885,1867.025h6.499
		c1.995,0,5.644-0.342,5.644-3.819c0-3.705-3.477-4.161-5.871-4.161h-6.271V1867.025z"/>
	<path fill="#867550" d="M486.643,1877.458c0.685,0.171,1.597,0.342,2.623,0.342c2.622,0,3.591-1.425,4.561-4.788l0.398-1.368
		l-13.168-28.902h8.209l8.722,21.548l6.67-21.548h6.841l-11.06,31.467c-0.912,2.623-2.395,8.267-9.521,8.267
		c-1.254,0-2.907-0.114-4.275-0.342V1877.458z"/>
</g>
</svg>
