<?xml version="1.0" encoding="utf-8"?>
<!-- Generator: Adobe Illustrator 17.0.0, SVG Export Plug-In . SVG Version: 6.00 Build 0)  -->
<!DOCTYPE svg PUBLIC "-//W3C//DTD SVG 1.1//EN" "http://www.w3.org/Graphics/SVG/1.1/DTD/svg11.dtd">
<svg version="1.1" id="Layer_1" xmlns="http://www.w3.org/2000/svg" xmlns:xlink="http://www.w3.org/1999/xlink" x="0px" y="0px"
	 width="2834.646px" height="1920.252px" viewBox="0 0 2834.646 1920.252" enable-background="new 0 0 2834.646 1920.252"
	 xml:space="preserve">
<path fill="#867550" d="M-0.002,219.808v406.973h1590.895V219.808H-0.002z M372.804,262.895h58.479v197.799l-58.479,89.082V262.895z
	 M133.485,262.895h159.427v48.422H133.485V262.895z M113.384,582.667H54.906V262.895h58.479V582.667z M307.302,527.623
	c-4.423,10.809-10.133,19.718-17.131,26.722c-7.01,7.01-14.696,12.415-23.07,16.213c-8.374,3.818-16.595,6.628-24.664,8.457
	c-8.081,1.823-15.384,2.893-21.936,3.193c-6.551,0.306-11.344,0.459-14.39,0.459h-72.627v-48.422h57.561
	c7.609,0,15.142-0.606,22.611-1.829c7.456-1.211,14.161-3.499,20.1-6.851c5.94-3.346,10.732-8.221,14.39-14.62
	c3.646-6.392,5.481-14.919,5.481-25.581c0-10.962-2.052-19.565-6.169-25.811c-4.117-6.239-9.215-10.961-15.308-14.161
	c-6.093-3.199-12.721-5.175-19.871-5.94c-7.151-0.752-13.779-1.141-19.871-1.141h-58.925V389.89h73.086
	c8.527,0,18.966,0.841,31.291,2.511c12.338,1.676,24.141,5.793,35.409,12.338c11.267,6.552,20.852,16.372,28.78,29.463
	c7.915,13.096,11.88,31.062,11.88,53.902C313.93,503.636,311.712,516.815,307.302,527.623z M640.508,582.667H582.03V385.321
	l58.479-88.623V582.667z M429.906,582.667h-57.102l210.602-319.772h57.102L429.906,582.667z M758.498,311.317h-80.402v-48.422
	h80.402V311.317z M837.065,582.667h-58.466V262.895h58.466V582.667z M937.567,311.317h-80.402v-48.422h80.402V311.317z
	 M1033.634,582.667h-58.479V262.895h58.479V582.667z M1225.04,541.096c-7.622,11.879-17.283,20.942-29.01,27.181
	c-11.726,6.246-24.434,10.21-38.149,11.879c-13.702,1.676-26.486,2.511-38.365,2.511h-65.782v-48.422h59.842
	c8.833,0,17.054-0.688,24.664-2.059c7.609-1.37,14.237-3.805,19.871-7.31c5.633-3.492,10.056-8.291,13.256-14.384
	c3.199-6.093,4.792-14.008,4.792-23.758c0-10.656-2.052-19.03-6.169-25.123c-4.104-6.093-9.215-10.655-15.295-13.708
	c-6.105-3.04-12.721-4.946-19.884-5.71c-7.15-0.752-13.778-1.141-19.871-1.141h-61.206V392.63h57.102
	c16.442,0,29.239-2.81,38.365-8.451c9.139-5.633,13.715-15.454,13.715-29.462c0-10.655-2.218-18.883-6.628-24.67
	c-4.423-5.78-9.598-10.05-15.537-12.791c-5.94-2.741-11.867-4.41-17.806-5.028c-5.94-0.606-10.439-0.912-13.486-0.912h-55.725
	v-48.422h72.181c20.393,0,36.913,2.594,49.556,7.769c12.631,5.181,22.458,11.726,29.469,19.642
	c6.997,7.921,11.803,16.601,14.39,26.04c2.588,9.438,3.888,18.577,3.888,27.404c0,17.666-4.958,32.821-14.849,45.459
	c-9.904,12.638-22.611,20.323-38.149,23.064v0.918c6.692,1.217,13.855,3.352,21.477,6.392c7.609,3.046,14.76,7.699,21.464,13.931
	c6.692,6.246,12.262,14.168,16.672,23.759c4.41,9.591,6.628,21.547,6.628,35.861C1236.461,513.233,1232.65,529.217,1225.04,541.096z
	 M1255.414,582.667l120.59-319.772h50.257l-21.018,62.124l-87.246,257.648H1255.414z M1492.503,582.667l-23.299-67.152h-107.36
	l16.901-48.422h74.921L1414.841,353.8l26.499-73.086l113.745,301.953H1492.503z"/>
<path fill="#867550" d="M2172.63,219.808v406.973h662.018V219.808H2172.63z M2223.522,307.674
	c6.743-13.09,15.792-23.593,27.149-31.521c11.356-7.915,24.358-13.626,38.99-17.131c14.62-3.492,30.004-5.551,46.14-6.163v48.422
	c-12.491,0.611-22.764,2.587-30.833,5.939c-8.068,3.352-14.543,7.533-19.413,12.561c-4.869,5.022-8.374,10.732-10.502,17.131
	c-2.141,6.392-3.352,12.95-3.658,19.642h-58.466C2213.236,337.067,2216.767,320.777,2223.522,307.674z M2335.355,591.815
	c-38.072-1.211-68.229-11.255-90.458-30.138c-22.229-18.889-34.108-48.275-35.625-88.177h58.007c0,6.099,0.918,12.95,2.753,20.559
	c1.823,7.616,5.175,14.843,10.044,21.7c4.869,6.851,11.726,12.867,20.559,18.042c8.833,5.181,20.394,8.38,34.72,9.591V591.815z
	 M2475.817,525.809c-3.186,10.809-9.292,21.012-18.265,30.603c-8.986,9.591-21.63,17.666-37.919,24.211
	c-16.289,6.545-37.69,10.28-64.176,11.191v-47.963c19.476-0.612,35.166-5.506,47.045-14.684
	c11.879-9.171,17.819-22.172,17.819-39.003c0-10.089-1.606-18.348-4.792-24.772c-3.199-6.424-7.622-11.542-13.256-15.372
	c-5.634-3.824-12.325-6.5-20.1-8.03c-7.763-1.523-16.06-2.294-24.893-2.294h-43.859v-48.422h37.92c3.352,0,8.144-0.23,14.39-0.689
	c6.233-0.452,12.478-2.052,18.724-4.792c6.246-2.74,11.65-6.927,16.226-12.567c4.563-5.628,6.845-13.626,6.845-23.982
	c0-12.791-4.041-23.523-12.096-32.203c-8.081-8.68-21.401-13.779-39.971-15.308V252.86c10.961,0.306,22.981,1.676,36.084,4.11
	c13.09,2.441,25.275,6.851,36.543,13.25c11.267,6.392,20.712,15.454,28.322,27.181c7.609,11.726,11.42,27.028,11.42,45.905
	c0,10.356-1.441,19.648-4.334,27.869c-2.906,8.221-6.781,15.302-11.65,21.241c-4.882,5.939-10.592,10.732-17.131,14.39
	c-6.551,3.652-13.332,5.94-20.33,6.851v0.912c8.527,1.223,16.825,3.817,24.893,7.768c8.068,3.964,15.155,9.292,21.248,15.99
	c6.08,6.698,10.961,14.843,14.62,24.441c3.645,9.591,5.481,20.636,5.481,33.114C2480.622,505.021,2479.016,515.001,2475.817,525.809
	z M2499.804,582.223l120.591-319.772h50.257l-21.018,62.124l-87.246,257.648H2499.804z M2736.893,582.223l-23.299-67.152h-107.36
	l16.901-48.422h74.921l-38.824-113.293l26.499-73.086l113.746,301.953H2736.893z"/>
<path fill="#867550" d="M786.629,650.965v406.973h2048.019V650.965H786.629z M1758.325,684.47
	c24.052,1.517,43.795,6.112,59.231,13.804c15.423,7.699,27.672,16.991,36.721,27.882c9.063,10.892,15.436,22.58,19.119,35.064
	c3.684,12.491,5.825,24.211,6.437,35.173h-58.466c-0.918-6.086-2.448-12.562-4.576-19.413c-2.128-6.857-5.633-13.249-10.503-19.189
	c-4.869-5.939-11.115-11.191-18.724-15.76c-7.622-4.57-17.36-7.609-29.239-9.139V684.47z M892.25,1013.38h-58.479V693.609h12.338
	l46.14,126.995V1013.38z M1030.213,1013.38h-43.859L868.033,693.609h52.998l111.922,312.462L1030.213,1013.38z M1182.782,1013.38
	h-58.466V772.64l0.905-12.338h-0.905l-80.402,216.536l-24.677-70.811l76.297-212.418h87.247V1013.38z M1378.433,732.44
	c-17.347,1.523-31.521,6.424-42.483,14.677c-10.961,8.246-19.488,18.265-25.581,30.029c-6.093,11.771-10.274,24.46-12.555,38.06
	c-2.294,13.606-3.429,26.371-3.429,38.289c0,11.918,1.058,24.613,3.199,38.06c2.129,13.454,6.233,26.066,12.325,37.831
	c6.093,11.771,14.62,21.853,25.581,30.265c10.974,8.406,25.276,13.377,42.941,14.9v48.422c-6.692-0.306-15.002-1.217-24.893-2.741
	c-9.904-1.523-20.254-4.34-31.062-8.45c-10.809-4.111-21.63-9.974-32.438-17.59c-10.809-7.603-20.547-17.583-29.227-29.921
	c-8.68-12.332-15.69-27.557-21.018-45.682c-5.328-18.112-7.992-39.812-7.992-65.094c0-24.969,2.664-46.517,7.992-64.641
	c5.328-18.112,12.338-33.42,21.018-45.911c8.68-12.479,18.418-22.529,29.227-30.144c10.808-7.609,21.63-13.479,32.438-17.59
	c10.809-4.11,21.158-6.927,31.062-8.45c9.891-1.523,18.201-2.435,24.893-2.741V732.44z M1537.185,918.136
	c-5.328,18.118-12.338,33.426-21.018,45.911c-8.68,12.491-18.431,22.542-29.239,30.144c-10.809,7.616-21.617,13.479-32.426,17.59
	c-10.821,4.11-21.171,6.927-31.062,8.45c-9.904,1.523-18.201,2.435-24.906,2.741V974.55c17.36-1.217,31.521-6.029,42.495-14.441
	c10.962-8.406,19.476-18.488,25.581-30.259c6.08-11.771,10.273-24.466,12.554-38.066c2.282-13.606,3.429-26.372,3.429-38.289
	c0-11.917-1.071-24.606-3.199-38.06c-2.129-13.447-6.322-26.059-12.567-37.83c-6.246-11.764-14.836-21.853-25.798-30.265
	c-10.974-8.406-25.135-13.377-42.495-14.9v-48.422c6.705,0.306,15.002,1.217,24.906,2.741c9.891,1.523,20.241,4.34,31.062,8.45
	c10.809,4.111,21.617,9.98,32.426,17.59c10.809,7.616,20.559,17.583,29.239,29.921c8.68,12.332,15.69,27.564,21.018,45.682
	c5.328,18.119,7.992,39.819,7.992,65.094C1545.176,878.471,1542.512,900.018,1537.185,918.136z M1738.224,731.98
	c-17.067,0.612-31.228,4.347-42.483,11.216c-11.28,6.864-20.33,16.022-27.188,27.461c-6.844,11.446-11.726,24.562-14.62,39.36
	c-2.893,14.798-4.333,30.278-4.333,46.453c0,17.704,2.205,33.49,6.628,47.371c4.41,13.887,10.503,25.862,18.265,35.925
	c7.763,10.076,17.054,18.01,27.863,23.809c10.809,5.793,22.765,9.305,35.867,10.522v48.875c-5.787,0-13.562-0.612-23.3-1.823
	c-9.75-1.224-20.253-3.658-31.521-7.31c-11.267-3.658-22.611-9.063-34.032-16.219c-11.42-7.151-21.783-16.825-31.062-29.01
	c-9.292-12.173-16.838-27.181-22.611-44.994c-5.787-17.819-8.68-39.36-8.68-64.641c0-32.273,4.181-59.454,12.555-81.543
	c8.374-22.076,19.565-39.972,33.586-53.673c13.995-13.708,30.144-23.676,48.422-29.921c18.265-6.239,37.142-9.515,56.644-9.821
	V731.98z M1875.958,941.43c-4.117,13.249-10.821,25.664-20.101,37.231c-9.292,11.58-21.783,21.471-37.461,29.698
	c-15.69,8.221-35.714,12.937-60.072,14.161v-48.422c11.574-0.917,21.464-3.581,29.686-7.998c8.234-4.41,15.078-9.891,20.559-16.442
	c5.481-6.545,9.598-13.779,12.338-21.7c2.741-7.915,4.41-15.831,5.022-23.759h58.02
	C1882.726,915.778,1880.062,928.186,1875.958,941.43z M1989.961,1013.38h-58.479V693.609h58.479V1013.38z M2125.629,1013.38
	l-115.568-141.156v-57.102l108.265-121.514h69.44l-141.621,147.554l153.488,172.218H2125.629z M2292.194,1013.38h-58.479V693.609
	h58.479V1013.38z M2483.601,971.81c-7.622,11.879-17.283,20.942-29.01,27.181c-11.726,6.246-24.434,10.21-38.149,11.879
	c-13.702,1.676-26.486,2.511-38.365,2.511h-65.782v-48.422h59.842c8.833,0,17.054-0.688,24.664-2.058s14.237-3.805,19.871-7.31
	c5.634-3.492,10.056-8.291,13.256-14.384c3.199-6.092,4.793-14.008,4.793-23.759c0-10.655-2.052-19.03-6.169-25.122
	c-4.104-6.093-9.215-10.655-15.295-13.708c-6.105-3.04-12.721-4.946-19.884-5.71c-7.15-0.752-13.778-1.141-19.871-1.141h-61.206
	v-48.422h57.102c16.442,0,29.239-2.81,38.365-8.451c9.139-5.633,13.715-15.454,13.715-29.462c0-10.656-2.218-18.883-6.628-24.67
	c-4.423-5.78-9.598-10.05-15.537-12.791c-5.94-2.741-11.867-4.41-17.806-5.028c-5.94-0.606-10.439-0.912-13.486-0.912h-55.725
	v-48.422h72.18c20.394,0,36.913,2.594,49.556,7.769c12.631,5.181,22.458,11.726,29.469,19.642
	c6.998,7.921,11.803,16.601,14.391,26.04c2.587,9.438,3.887,18.577,3.887,27.404c0,17.666-4.958,32.821-14.849,45.459
	c-9.904,12.638-22.611,20.323-38.149,23.064v0.918c6.692,1.217,13.855,3.352,21.477,6.392c7.609,3.047,14.76,7.699,21.465,13.931
	c6.691,6.246,12.262,14.167,16.672,23.759s6.627,21.547,6.627,35.861C2495.021,943.947,2491.21,959.93,2483.601,971.81z
	 M2587.239,693.609l70.817,149.377l-31.98,63.959L2515.53,693.609H2587.239z M2690.481,951.256
	c-6.704,16.442-13.855,29.163-21.464,38.143c-7.622,8.986-15.384,15.608-23.3,19.871c-7.928,4.264-15.767,6.775-23.529,7.539
	c-7.763,0.752-15.155,1.141-22.153,1.141c-7.622,0-14.467-0.23-20.559-0.688c-6.093-0.453-13.09-1.906-21.005-4.34v-50.704
	c5.175,1.53,10.503,2.817,15.983,3.881c5.481,1.07,11.268,1.599,17.36,1.599c5.175,0,10.12-0.529,14.849-1.599
	c4.716-1.064,9.05-2.97,13.014-5.71c3.951-2.741,7.456-6.622,10.502-11.65c3.047-5.022,5.481-11.491,7.316-19.412l31.521-63.042
	l67.605-172.676h61.219L2690.481,951.256z"/>
<path fill="#867550" d="M-0.002,1082.122v406.973h1905.374v-406.973H-0.002z M463.489,1124.322h161.25v48.422h-161.25V1124.322z
	 M463.489,1255.886h142.526v48.422H463.489V1255.886z M105.619,1444.094H47.141v-319.772h58.479V1444.094z M305.706,1444.094
	h-58.479v-271.35H125.72v-48.422h179.986V1444.094z M443.389,1444.094H384.91v-319.772h58.479V1444.094z M629.774,1444.094H463.489
	v-48.422h166.285V1444.094z M742.27,1172.744v105.065v48.428v117.856h-58.479v-319.772h58.479V1172.744z M928.885,1264.107
	c-4.423,12.491-11.51,23.3-21.248,32.432c-9.751,9.139-22.535,16.378-38.378,21.7c-15.831,5.334-35.332,7.998-58.466,7.998H762.37
	v-48.428h47.963c6.692,0,13.855-0.453,21.477-1.37c7.609-0.911,14.607-3.04,21.005-6.392c6.398-3.346,11.726-8.521,15.996-15.531
	c4.257-7.004,6.386-16.449,6.386-28.322c0-12.791-2.282-22.765-6.845-29.921c-4.576-7.157-10.21-12.485-16.901-15.99
	c-6.704-3.499-13.792-5.633-21.248-6.398c-7.469-0.752-13.931-1.141-19.412-1.141H762.37v-48.422h48.881
	c12.478,0,26.04,0.911,40.66,2.74c14.607,1.829,28.092,6.099,40.418,12.791c12.338,6.704,22.611,16.602,30.845,29.692
	c8.221,13.103,12.325,31.068,12.325,53.909C935.5,1238.067,933.295,1251.623,928.885,1264.107z M1043.178,1444.094h-58.479v-319.772
	h58.479V1444.094z M1234.585,1402.523c-7.622,11.879-17.284,20.942-29.01,27.181c-11.726,6.245-24.434,10.209-38.149,11.879
	c-13.702,1.676-26.486,2.511-38.365,2.511h-65.782v-48.422h59.842c8.833,0,17.054-0.688,24.664-2.058
	c7.609-1.37,14.237-3.805,19.871-7.31c5.634-3.492,10.056-8.291,13.256-14.384s4.793-14.008,4.793-23.759
	c0-10.655-2.052-19.03-6.169-25.122c-4.104-6.093-9.215-10.655-15.295-13.708c-6.105-3.04-12.721-4.945-19.884-5.71
	c-7.15-0.752-13.778-1.141-19.871-1.141h-61.206v-48.422h57.102c16.442,0,29.239-2.811,38.365-8.451
	c9.139-5.634,13.715-15.454,13.715-29.462c0-10.656-2.218-18.883-6.628-24.67c-4.423-5.78-9.598-10.051-15.537-12.791
	c-5.94-2.741-11.866-4.41-17.806-5.028c-5.94-0.606-10.439-0.912-13.485-0.912h-55.726v-48.422h72.181
	c20.394,0,36.913,2.594,49.556,7.769c12.631,5.181,22.458,11.726,29.469,19.641c6.997,7.922,11.803,16.602,14.391,26.04
	c2.587,9.439,3.887,18.577,3.887,27.404c0,17.666-4.958,32.821-14.849,45.458c-9.904,12.638-22.611,20.324-38.149,23.064v0.918
	c6.692,1.217,13.855,3.352,21.477,6.392c7.609,3.047,14.76,7.698,21.464,13.931c6.692,6.246,12.262,14.167,16.672,23.759
	c4.41,9.592,6.628,21.547,6.628,35.861C1246.005,1374.66,1242.194,1390.643,1234.585,1402.523z M1264.971,1444.094l120.59-319.772
	h50.257l-21.018,62.124l-87.246,257.648H1264.971z M1502.06,1444.094l-23.299-67.152h-107.36l16.901-48.422h74.921l-38.824-113.293
	l26.499-73.085l113.745,301.953H1502.06z M1777.195,1172.744h-56.184c-3.964,0-9.521,0.306-16.685,0.912
	c-7.151,0.618-14.314,2.517-21.464,5.71c-7.163,3.199-13.332,8.457-18.507,15.76c-5.175,7.31-7.762,17.519-7.762,30.609
	c0,11.579,2.358,20.782,7.087,27.64c4.716,6.851,10.579,11.956,17.589,15.302c6.998,3.352,14.454,5.481,22.382,6.392
	c7.915,0.917,15.066,1.37,21.464,1.37h52.08v48.428h-35.638l-76.743,119.226h-74.003l90.458-125.625
	c-7.316-0.911-15.92-2.893-25.81-5.939c-9.904-3.04-19.196-8.062-27.876-15.072c-8.68-7.004-16.06-16.366-22.153-28.099
	c-6.093-11.72-9.139-26.722-9.139-44.994c0-15.831,2.129-29.386,6.398-40.66c4.257-11.261,9.827-20.553,16.672-27.863
	c6.858-7.31,14.773-13.09,23.759-17.36c8.973-4.264,18.188-7.456,27.632-9.592c9.445-2.128,18.737-3.428,27.863-3.881
	c9.139-0.459,17.513-0.688,25.135-0.688h53.444V1172.744z M1855.761,1444.094h-58.466v-319.772h58.466V1444.094z"/>
<path fill="#867550" d="M829.238,1513.279v406.973h2005.41v-406.973H829.238z M1947.904,1555.035h161.25v48.422h-161.25V1555.035z
	 M1947.904,1686.6h142.526v48.422h-142.526V1686.6z M1630.019,1555.035h159.427v48.422h-159.427V1555.035z M934.861,1874.807
	h-58.479v-319.772h58.479V1874.807z M1134.948,1874.807h-58.479v-271.35H954.961v-48.422h179.986V1874.807z M1333.328,1593.866
	c-17.347,1.524-31.521,6.424-42.483,14.677c-10.961,8.247-19.488,18.265-25.581,30.029c-6.093,11.771-10.273,24.46-12.555,38.06
	c-2.294,13.606-3.429,26.372-3.429,38.289c0,11.918,1.058,24.612,3.199,38.06c2.129,13.453,6.233,26.066,12.325,37.83
	c6.093,11.771,14.62,21.853,25.582,30.266c10.974,8.406,25.275,13.377,42.941,14.9v48.422c-6.692-0.306-15.002-1.218-24.893-2.741
	c-9.904-1.523-20.253-4.34-31.062-8.451c-10.809-4.11-21.63-9.974-32.439-17.589c-10.808-7.603-20.546-17.583-29.226-29.921
	c-8.68-12.332-15.69-27.557-21.018-45.682c-5.328-18.112-7.992-39.812-7.992-65.094c0-24.969,2.664-46.516,7.992-64.641
	c5.328-18.112,12.338-33.42,21.018-45.911c8.68-12.478,18.418-22.528,29.226-30.144c10.809-7.609,21.63-13.479,32.439-17.589
	c10.809-4.11,21.158-6.927,31.062-8.451c9.891-1.523,18.202-2.434,24.893-2.74V1593.866z M1492.08,1779.562
	c-5.328,18.119-12.338,33.427-21.018,45.911c-8.68,12.491-18.431,22.541-29.239,30.144c-10.809,7.615-21.617,13.479-32.426,17.589
	c-10.821,4.111-21.171,6.928-31.062,8.451c-9.904,1.523-18.202,2.435-24.906,2.741v-48.422c17.36-1.217,31.521-6.029,42.495-14.441
	c10.962-8.406,19.476-18.488,25.582-30.259c6.08-11.771,10.273-24.466,12.554-38.066c2.281-13.607,3.429-26.372,3.429-38.289
	c0-11.917-1.071-24.606-3.199-38.06c-2.129-13.447-6.322-26.059-12.568-37.83c-6.245-11.765-14.836-21.853-25.798-30.266
	c-10.974-8.406-25.135-13.376-42.495-14.9v-48.422c6.704,0.306,15.002,1.217,24.906,2.74c9.891,1.524,20.241,4.34,31.062,8.451
	c10.809,4.11,21.618,9.98,32.426,17.589c10.809,7.616,20.559,17.583,29.239,29.921c8.68,12.332,15.69,27.563,21.018,45.682
	c5.328,18.119,7.992,39.819,7.992,65.094C1500.072,1739.897,1497.408,1761.444,1492.08,1779.562z M1609.919,1874.807h-58.479
	v-319.772h58.479V1874.807z M1803.836,1819.764c-4.423,10.809-10.133,19.718-17.131,26.722c-7.01,7.01-14.696,12.415-23.071,16.213
	c-8.374,3.817-16.595,6.628-24.663,8.457c-8.08,1.823-15.384,2.893-21.935,3.193c-6.551,0.306-11.344,0.459-14.39,0.459h-72.627
	v-48.422h57.561c7.609,0,15.142-0.605,22.612-1.829c7.456-1.211,14.161-3.499,20.1-6.851c5.94-3.346,10.731-8.221,14.39-14.62
	c3.645-6.392,5.481-14.919,5.481-25.581c0-10.961-2.052-19.565-6.169-25.811c-4.117-6.239-9.214-10.962-15.307-14.161
	c-6.093-3.199-12.721-5.175-19.871-5.939c-7.15-0.752-13.778-1.141-19.871-1.141h-58.925v-48.422h73.085
	c8.527,0,18.966,0.841,31.292,2.511c12.337,1.676,24.14,5.793,35.408,12.338c11.267,6.551,20.853,16.372,28.78,29.462
	c7.915,13.097,11.88,31.062,11.88,53.903C1810.464,1795.775,1808.246,1808.955,1803.836,1819.764z M1927.803,1874.807h-58.479
	v-319.772h58.479V1874.807z M2114.188,1874.807h-166.284v-48.422h166.284V1874.807z M2352.144,1874.807h-164.003h-51.162
	l-2.741-48.422h27.404c5.175-6.698,10.974-15.531,17.36-26.499c6.399-10.962,12.415-24.51,18.049-40.654
	c5.634-16.136,10.35-35.326,14.161-57.561c3.811-22.223,5.71-48.116,5.71-77.655v-68.982h58.479v86.794
	c0,17.666-0.625,34.421-1.836,50.251c-1.223,15.837-3.428,31.145-6.615,45.911c-3.199,14.772-7.699,29.462-13.485,44.082
	c-5.786,14.62-13.243,29.393-22.382,44.312h121.062V1874.807z M2471.829,1874.807h-51.163h-48.422v-271.35H2295.5v-48.422h135.21
	v271.35h43.859L2471.829,1874.807z M2493.701,1874.807l120.59-319.772h50.258l-21.018,62.124l-87.247,257.648H2493.701z
	 M2730.789,1874.807l-23.3-67.152h-107.36l16.901-48.422h74.921l-38.824-113.293l26.499-73.086l113.746,301.953H2730.789z"/>
<g>
	<rect x="-0.002" y="15.518" fill="none" width="2031.656" height="301.69"/>
	<text transform="matrix(1 0 0 1 -0.0017 120.5183)"><tspan x="0" y="0" fill="#867550" font-family="'Voina'" font-size="150">5</tspan><tspan x="89.249" y="0" fill="#867550" font-family="'Voina'" font-size="150" letter-spacing="-29">.</tspan><tspan x="111.748" y="0" fill="#867550" font-family="'Voina'" font-size="150">1</tspan><tspan x="200.996" y="0" fill="#867550" font-family="'Voina'" font-size="150" letter-spacing="-22">1</tspan><tspan x="268.795" y="0" fill="#867550" font-family="'Voina'" font-size="150">.2</tspan><tspan x="408.893" y="0" fill="#867550" font-family="'Voina'" font-size="150" letter-spacing="-6">0</tspan><tspan x="492.891" y="0" fill="#867550" font-family="'Voina'" font-size="150" letter-spacing="-6">1</tspan><tspan x="575.989" y="0" fill="#867550" font-family="'Voina'" font-size="150">6 — 15.5.2</tspan><tspan x="1338.575" y="0" fill="#867550" font-family="'Voina'" font-size="150" letter-spacing="-9">0</tspan><tspan x="1419.574" y="0" fill="#867550" font-family="'Voina'" font-size="150">17</tspan></text>
</g>
<rect x="29.055" y="1606.8" fill="none" width="1463.025" height="265.118"/>
<text transform="matrix(1 0 0 1 29.055 1646.7)"><tspan x="0" y="0" fill="#867550" font-family="'PragmaticaMedium'" font-size="57">Историко-</tspan><tspan x="0" y="75" fill="#867550" font-family="'PragmaticaMedium'" font-size="57">документальная</tspan><tspan x="0" y="150" fill="#867550" font-family="'PragmaticaMedium'" font-size="57">выставка к 75-летию </tspan><tspan x="0" y="225" fill="#867550" font-family="'PragmaticaMedium'" font-size="57">битвы за Москву</tspan></text>
</svg>
