<?xml version="1.0" encoding="utf-8"?>
<!-- Generator: Adobe Illustrator 17.0.0, SVG Export Plug-In . SVG Version: 6.00 Build 0)  -->
<!DOCTYPE svg PUBLIC "-//W3C//DTD SVG 1.1//EN" "http://www.w3.org/Graphics/SVG/1.1/DTD/svg11.dtd">
<svg version="1.1" id="Layer_1" xmlns="http://www.w3.org/2000/svg" xmlns:xlink="http://www.w3.org/1999/xlink" x="0px" y="0px"
	 width="2834.646px" height="1920.252px" viewBox="0 0 2834.646 1920.252" enable-background="new 0 0 2834.646 1920.252"
	 xml:space="preserve">
<path fill="#867550" d="M0,219.807v406.974h1738.011V219.807H0z M1503.185,263.408h161.251v48.423h-161.251V263.408z
	 M1503.185,394.973h142.527v48.423h-142.527V394.973z M113.245,583.181H54.766V263.408h58.479V583.181z M304.652,541.609
	c-7.622,11.88-17.284,20.942-29.01,27.181c-11.727,6.246-24.435,10.209-38.149,11.879c-13.702,1.677-26.486,2.512-38.366,2.512
	h-65.782v-48.423h59.843c8.833,0,17.054-0.688,24.663-2.058c7.609-1.37,14.237-3.805,19.871-7.31
	c5.634-3.493,10.056-8.291,13.255-14.384c3.2-6.093,4.793-14.008,4.793-23.758c0-10.656-2.052-19.03-6.169-25.123
	c-4.104-6.093-9.215-10.655-15.295-13.709c-6.105-3.039-12.721-4.945-19.883-5.71c-7.15-0.753-13.779-1.141-19.871-1.141h-61.207
	v-48.423h57.102c16.443,0,29.239-2.811,38.366-8.45c9.139-5.634,13.714-15.454,13.714-29.462c0-10.656-2.218-18.884-6.628-24.671
	c-4.422-5.78-9.598-10.05-15.537-12.79c-5.939-2.741-11.866-4.41-17.806-5.029c-5.94-0.605-10.439-0.911-13.486-0.911h-55.726
	v-48.423h72.181c20.394,0,36.913,2.595,49.557,7.769c12.631,5.182,22.458,11.727,29.469,19.642
	c6.997,7.922,11.803,16.602,14.39,26.041c2.587,9.438,3.887,18.577,3.887,27.403c0,17.667-4.958,32.822-14.849,45.459
	c-9.903,12.638-22.611,20.324-38.149,23.065v0.918c6.692,1.217,13.855,3.352,21.477,6.392c7.609,3.046,14.76,7.698,21.464,13.931
	c6.692,6.245,12.262,14.166,16.672,23.758c4.41,9.591,6.628,21.547,6.628,35.861C316.071,513.746,312.261,529.73,304.652,541.609z
	 M333.929,583.181l120.59-319.773h50.258l-21.018,62.125l-87.247,257.648H333.929z M571.018,583.181l-23.3-67.152h-107.36
	l16.902-48.423h74.921l-38.825-113.293l26.499-73.086L633.6,583.181H571.018z M679.014,311.83h-80.401v-48.423h80.401V311.83z
	 M757.581,583.181h-58.466V263.408h58.466V583.181z M858.084,311.83h-80.402v-48.423h80.402V311.83z M960.269,311.83h-80.402
	v-48.423h80.402V311.83z M1038.835,583.181h-58.466V263.408h58.466V583.181z M1139.337,311.83h-80.402v-48.423h80.402V311.83z
	 M1235.404,534.758v48.423h-58.478V263.408h58.478V534.758z M1391.173,583.181h-131.106v-48.423h131.106V583.181z M1483.085,583.181
	h-58.479V263.408h58.479V583.181z M1669.47,583.181h-166.285v-48.423h166.285V583.181z"/>
<path fill="#867550" d="M587.425,650.964v406.974h2247.221V650.964H587.425z M1867.006,684.332
	c24.051,1.516,43.77,6.111,59.154,13.804c15.371,7.699,27.557,16.99,36.543,27.882c8.986,10.892,15.308,22.58,18.966,35.065
	c3.646,12.491,5.775,24.211,6.387,35.173h-58.008c-0.918-6.086-2.447-12.561-4.575-19.412c-2.128-6.858-5.634-13.25-10.503-19.19
	c-4.868-5.939-11.114-11.191-18.723-15.76c-7.622-4.569-17.361-7.609-29.24-9.139V684.332z M1540.198,683.878
	c19.183,0.906,35.702,4.073,49.57,9.509c13.855,5.43,25.351,12.447,34.491,21.037c9.139,8.603,16.136,18.304,21.005,29.093
	c4.868,10.796,7.775,22.127,8.68,34.006h-58.007c-1.224-9.132-3.812-16.595-7.775-22.382c-3.952-5.78-8.68-10.279-14.161-13.479
	c-5.481-3.199-11.268-5.48-17.36-6.851c-6.093-1.37-11.574-2.205-16.443-2.511V683.878z M700.669,1014.338H642.19V694.565h12.339
	l46.14,126.996V1014.338z M838.631,1014.338h-43.858L676.452,694.565h52.998l111.923,312.463L838.631,1014.338z M991.201,1014.338
	h-58.466V773.597l0.906-12.339h-0.906l-80.402,216.536l-24.676-70.811l76.298-212.419h87.247V1014.338z M1189.504,733.397
	c-17.348,1.523-31.521,6.424-42.483,14.677c-10.961,8.246-19.488,18.265-25.581,30.029c-6.093,11.772-10.274,24.46-12.555,38.06
	c-2.294,13.606-3.429,26.371-3.429,38.289c0,11.918,1.059,24.613,3.2,38.059c2.128,13.454,6.233,26.066,12.326,37.831
	c6.093,11.771,14.62,21.853,25.581,30.265c10.974,8.406,25.276,13.377,42.942,14.899v48.423c-6.692-0.306-15.002-1.217-24.893-2.74
	c-9.904-1.524-20.254-4.34-31.063-8.451c-10.808-4.11-21.629-9.973-32.438-17.589c-10.809-7.603-20.547-17.583-29.226-29.921
	c-8.68-12.332-15.69-27.557-21.018-45.682c-5.328-18.112-7.992-39.813-7.992-65.094c0-24.969,2.664-46.516,7.992-64.642
	c5.328-18.111,12.339-33.419,21.018-45.911c8.68-12.478,18.417-22.528,29.226-30.144c10.809-7.609,21.63-13.479,32.438-17.59
	c10.809-4.11,21.158-6.927,31.063-8.45c9.89-1.523,18.201-2.434,24.893-2.74V733.397z M1348.255,919.093
	c-5.327,18.118-12.338,33.426-21.018,45.911c-8.681,12.491-18.431,22.541-29.239,30.144c-10.809,7.616-21.617,13.479-32.426,17.589
	c-10.821,4.111-21.171,6.927-31.062,8.451c-9.904,1.523-18.201,2.434-24.906,2.74v-48.423c17.36-1.217,31.521-6.028,42.495-14.441
	c10.962-8.406,19.476-18.488,25.582-30.259c6.08-11.772,10.273-24.466,12.555-38.067c2.281-13.606,3.428-26.371,3.428-38.289
	c0-11.918-1.071-24.606-3.199-38.059c-2.129-13.447-6.322-26.059-12.568-37.831c-6.246-11.764-14.836-21.853-25.798-30.265
	c-10.974-8.406-25.135-13.377-42.495-14.899v-48.423c6.705,0.306,15.002,1.217,24.906,2.74c9.89,1.524,20.241,4.34,31.062,8.45
	c10.809,4.111,21.617,9.981,32.426,17.59c10.808,7.616,20.559,17.583,29.239,29.921c8.68,12.332,15.69,27.564,21.018,45.682
	c5.328,18.119,7.993,39.818,7.993,65.094C1356.248,879.427,1353.583,900.974,1348.255,919.093z M1520.098,1022.834
	c-25.888-0.606-47.122-4.455-63.718-11.542c-16.608-7.087-29.775-15.996-39.525-26.722c-9.751-10.725-16.596-22.56-20.547-35.51
	c-3.965-12.943-6.106-25.651-6.399-38.142h58.007c0.306,5.787,1.53,12.103,3.658,18.954c2.129,6.858,5.863,13.409,11.192,19.647
	c5.328,6.246,12.631,11.727,21.936,16.443c9.279,4.728,21.082,7.539,35.396,8.451V1022.834z M1649.839,971.442
	c-7.622,12.949-17.36,23.147-29.24,30.609c-11.879,7.463-24.969,12.631-39.283,15.531c-14.327,2.893-28.029,4.64-41.119,5.252
	V974.87c5.787-0.299,12.109-1.141,18.967-2.511c6.845-1.371,13.167-3.812,18.953-7.323c5.775-3.505,10.656-8.311,14.62-14.416
	c3.952-6.093,5.94-14.034,5.94-23.797c0-9.451-2.065-17.233-6.169-23.332c-4.117-6.098-9.139-10.898-15.078-14.409
	c-5.939-3.506-12.185-6.099-18.723-7.775c-6.552-1.676-12.415-2.976-17.59-3.887c-6.398-1.224-12.72-2.447-18.966-3.665
	c-6.246-1.224-12.402-2.594-18.495-4.117c-13.102-3.052-25.581-6.482-37.461-10.292c-11.879-3.811-22.382-9.152-31.521-16.021
	c-9.139-6.858-16.442-15.55-21.923-26.072c-5.481-10.522-8.221-23.867-8.221-40.036c0-19.827,4.181-35.765,12.555-47.816
	c8.374-12.045,18.507-21.35,30.387-27.908c11.866-6.552,24.434-10.981,37.677-13.268c13.256-2.288,24.906-3.735,34.95-4.347v48.422
	c-4.271,0.306-9.446,1.001-15.525,2.071c-6.105,1.071-11.879,3.135-17.36,6.194c-5.481,3.059-10.209,7.272-14.161,12.625
	c-3.964,5.36-5.94,12.478-5.94,21.356c0,8.266,2.053,15.002,6.169,20.209c4.104,5.2,9.509,9.413,16.213,12.625
	c6.692,3.212,14.314,5.742,22.842,7.571c8.527,1.842,17.207,3.531,26.04,5.054c18.571,3.358,35.396,7.163,50.474,11.421
	c15.079,4.27,27.939,10.05,38.608,17.36c10.656,7.31,18.954,16.678,24.893,28.099c5.94,11.42,8.91,25.963,8.91,43.623
	C1661.26,941.52,1657.448,958.505,1649.839,971.442z M1846.905,731.842c-17.067,0.612-31.228,4.346-42.483,11.217
	c-11.28,6.864-20.329,16.021-27.187,27.461c-6.845,11.446-11.727,24.561-14.62,39.36c-2.893,14.798-4.334,30.277-4.334,46.453
	c0,17.704,2.206,33.49,6.628,47.37c4.41,13.887,10.502,25.862,18.265,35.924c7.762,10.076,17.054,18.01,27.863,23.81
	c10.808,5.792,22.764,9.305,35.867,10.522v48.875c-5.787,0-13.561-0.612-23.3-1.823c-9.75-1.224-20.254-3.658-31.521-7.31
	c-11.268-3.658-22.611-9.062-34.032-16.219c-11.42-7.15-21.783-16.824-31.062-29.01c-9.292-12.173-16.838-27.181-22.611-44.993
	c-5.787-17.819-8.68-39.359-8.68-64.642c0-32.272,4.18-59.454,12.555-81.543c8.374-22.076,19.564-39.971,33.585-53.673
	c13.995-13.709,30.144-23.675,48.422-29.921c18.265-6.239,37.142-9.516,56.644-9.821V731.842z M1985.022,941.291
	c-4.143,13.25-10.898,25.665-20.254,37.232c-9.368,11.579-21.91,21.47-37.627,29.697c-15.729,8.222-35.778,12.937-60.135,14.161
	v-48.422c11.573-0.918,21.464-3.582,29.685-7.998c8.234-4.41,15.078-9.891,20.56-16.443c5.481-6.544,9.598-13.778,12.338-21.699
	c2.741-7.916,4.41-15.831,5.022-23.759h58.479C1991.853,915.64,1989.164,928.048,1985.022,941.291z M2172.375,732.301
	c-17.348,1.523-31.522,6.424-42.483,14.677c-10.962,8.247-19.489,18.265-25.582,30.03c-6.092,11.771-10.273,24.459-12.554,38.059
	c-2.295,13.607-3.429,26.372-3.429,38.289c0,11.918,1.058,24.613,3.199,38.06c2.129,13.453,6.234,26.066,12.326,37.83
	c6.093,11.772,14.62,21.853,25.582,30.265c10.974,8.407,25.275,13.377,42.942,14.9v48.422c-6.692-0.306-15.002-1.218-24.894-2.741
	c-9.903-1.523-20.253-4.339-31.062-8.45c-10.809-4.111-21.63-9.973-32.438-17.589c-10.809-7.604-20.546-17.584-29.227-29.921
	c-8.68-12.332-15.689-27.557-21.017-45.682c-5.328-18.111-7.992-39.812-7.992-65.094c0-24.969,2.664-46.516,7.992-64.641
	c5.328-18.112,12.338-33.42,21.017-45.911c8.681-12.478,18.418-22.529,29.227-30.145c10.808-7.609,21.629-13.478,32.438-17.589
	c10.809-4.111,21.158-6.927,31.062-8.45c9.891-1.523,18.202-2.435,24.894-2.741V732.301z M2331.127,917.997
	c-5.328,18.119-12.338,33.427-21.018,45.911c-8.68,12.492-18.43,22.541-29.24,30.145c-10.808,7.616-21.617,13.478-32.425,17.589
	c-10.821,4.111-21.171,6.927-31.062,8.45c-9.905,1.523-18.202,2.435-24.906,2.741v-48.422c17.361-1.217,31.521-6.029,42.496-14.442
	c10.961-8.406,19.476-18.488,25.581-30.259c6.08-11.771,10.274-24.466,12.555-38.066c2.282-13.607,3.429-26.372,3.429-38.29
	c0-11.917-1.071-24.605-3.2-38.059c-2.128-13.446-6.322-26.059-12.567-37.83c-6.246-11.765-14.837-21.853-25.798-30.265
	c-10.974-8.407-25.135-13.378-42.496-14.901v-48.422c6.705,0.306,15.002,1.218,24.906,2.741c9.89,1.523,20.24,4.339,31.062,8.45
	c10.808,4.111,21.617,9.98,32.425,17.589c10.809,7.616,20.56,17.584,29.24,29.921c8.68,12.332,15.69,27.564,21.018,45.682
	c5.328,18.118,7.992,39.818,7.992,65.093C2339.118,878.332,2336.455,899.879,2331.127,917.997z M2435.083,1013.242l-86.788-319.772
	h65.782l62.583,252.161l16.442,67.611H2435.083z M2622.386,1013.242l-56.656-250.791l-54.349,241.2l-25.135-101.414l46.6-208.767
	h65.781l72.64,319.772H2622.386z M2696.39,1013.242h-4.576l-26.04-111.005l51.621-208.767h65.782L2696.39,1013.242z"/>
<path fill="#867550" d="M0,1082.122v406.974h1347.14v-406.974H0z M890.144,1112.643c19.182,0.906,35.702,4.073,49.569,9.509
	c13.855,5.43,25.352,12.447,34.491,21.037c9.139,8.603,16.136,18.304,21.005,29.093c4.869,10.796,7.775,22.126,8.68,34.006h-58.007
	c-1.224-9.132-3.811-16.595-7.775-22.382c-3.952-5.78-8.68-10.279-14.161-13.479c-5.481-3.199-11.267-5.481-17.36-6.851
	c-6.093-1.37-11.574-2.205-16.442-2.511V1112.643z M113.248,1442.007H54.769v-319.772h58.479V1442.007z M258.056,1306.791H133.349
	v-48.422h124.707V1306.791z M281.355,1170.657H133.349v-48.422h148.007V1170.657z M377.423,1442.007h-58.479v-319.772h58.479
	V1442.007z M503.174,1170.657v95.933v48.422v126.995h-58.479v-319.772h58.479V1170.657z M648.441,1442.007
	c-2.434-3.652-4.27-7.233-5.481-10.733c-1.224-3.498-2.218-7.691-2.969-12.567c-0.765-4.869-1.224-10.733-1.377-17.584
	c-0.153-6.857-0.217-15.454-0.217-25.81c0-7.31-0.459-14.543-1.377-21.7c-0.918-7.151-3.581-13.625-7.992-19.412
	c-4.422-5.787-11.127-10.432-20.1-13.938c-8.987-3.499-21.707-5.251-38.149-5.251h-47.505v-48.422h52.985
	c7.316,0,14.926-0.459,22.841-1.37c7.916-0.918,15.155-3.04,21.707-6.399c6.539-3.346,11.88-8.145,15.983-14.39
	c4.118-6.233,6.169-14.843,6.169-25.811c0-11.567-2.281-20.553-6.858-26.952c-4.562-6.392-10.196-11.19-16.901-14.39
	c-6.705-3.192-13.855-5.092-21.464-5.71c-7.622-0.605-14.327-0.911-20.101-0.911h-49.798v-48.422h59.842
	c9.751,0,21.248,0.688,34.491,2.058c13.255,1.37,25.887,5.022,37.919,10.961c12.032,5.94,22.229,14.843,30.603,26.722
	c8.374,11.88,12.567,28.322,12.567,49.34c0,11.873-1.606,22.229-4.792,31.062c-3.2,8.833-7.316,16.442-12.339,22.841
	c-5.022,6.392-10.732,11.497-17.13,15.302c-6.399,3.811-12.797,6.622-19.183,8.451v0.918c11.255,3.652,20.101,8.674,26.486,15.072
	c6.399,6.399,11.038,13.479,13.931,21.241c2.893,7.769,4.728,15.69,5.481,23.752c0.765,8.075,1.147,15.76,1.147,23.07
	c0,10.668,0.076,19.572,0.229,26.728c0.153,7.157,0.612,13.243,1.377,18.272c0.752,5.022,1.886,9.362,3.415,13.019
	c1.529,3.652,3.812,7.31,6.858,10.962H648.441z M870.043,1451.598c-25.888-0.605-47.122-4.454-63.717-11.541
	c-16.608-7.087-29.775-15.996-39.525-26.722c-9.751-10.725-16.595-22.56-20.547-35.51c-3.965-12.944-6.106-25.651-6.399-38.142
	h58.007c0.306,5.787,1.53,12.102,3.659,18.953c2.128,6.857,5.862,13.409,11.19,19.648c5.328,6.245,12.631,11.726,21.936,16.442
	c9.279,4.729,21.082,7.54,35.396,8.451V1451.598z M999.784,1400.206c-7.621,12.95-17.36,23.148-29.239,30.609
	c-11.879,7.463-24.969,12.631-39.283,15.532c-14.327,2.893-28.028,4.639-41.118,5.251v-47.963
	c5.786-0.299,12.108-1.141,18.966-2.512c6.844-1.37,13.167-3.811,18.954-7.322c5.774-3.505,10.655-8.31,14.62-14.416
	c3.951-6.093,5.939-14.033,5.939-23.797c0-9.451-2.065-17.233-6.168-23.332c-4.117-6.099-9.14-10.898-15.079-14.409
	c-5.94-3.505-12.186-6.099-18.724-7.775c-6.552-1.676-12.415-2.976-17.589-3.888c-6.399-1.224-12.721-2.447-18.967-3.664
	c-6.246-1.224-12.402-2.594-18.494-4.117c-13.103-3.053-25.582-6.481-37.461-10.292c-11.88-3.811-22.383-9.152-31.522-16.022
	c-9.139-6.857-16.442-15.55-21.923-26.072c-5.481-10.522-8.221-23.867-8.221-40.035c0-19.827,4.181-35.765,12.555-47.816
	c8.374-12.046,18.507-21.349,30.387-27.908c11.867-6.552,24.434-10.981,37.677-13.268c13.256-2.289,24.906-3.735,34.95-4.347v48.423
	c-4.27,0.306-9.445,1.001-15.524,2.071c-6.106,1.071-11.88,3.135-17.361,6.194c-5.481,3.059-10.209,7.272-14.161,12.625
	c-3.964,5.36-5.939,12.478-5.939,21.356c0,8.266,2.052,15.002,6.168,20.209c4.104,5.2,9.509,9.413,16.214,12.625
	c6.692,3.212,14.314,5.742,22.841,7.571c8.527,1.842,17.207,3.531,26.04,5.054c18.571,3.359,35.396,7.163,50.474,11.42
	c15.079,4.27,27.939,10.05,38.608,17.36c10.656,7.31,18.954,16.678,24.893,28.099c5.94,11.42,8.909,25.964,8.909,43.623
	C1011.205,1370.285,1007.394,1387.27,999.784,1400.206z M1113.301,1170.657h-80.402v-48.422h80.402V1170.657z M1191.868,1442.007
	h-58.466v-319.772h58.466V1442.007z M1292.37,1170.657h-80.402v-48.422h80.402V1170.657z"/>
<path fill="#867550" d="M789.96,1513.279v406.974h2044.686v-406.974H789.96z M1437.531,1547.74
	c24.051,1.517,43.77,6.111,59.154,13.804c15.371,7.699,27.557,16.99,36.543,27.883c8.986,10.891,15.308,22.58,18.966,35.064
	c3.646,12.492,5.774,24.212,6.386,35.173h-58.007c-0.918-6.086-2.447-12.561-4.575-19.411c-2.128-6.858-5.634-13.25-10.503-19.19
	c-4.868-5.94-11.114-11.191-18.723-15.76c-7.622-4.57-17.361-7.609-29.24-9.139V1547.74z M943.763,1876.652l-110.087-319.773h63.488
	l100.962,319.773H943.763z M1015.026,1865.69l-26.499-84.512l69.44-224.299h63.5L1015.026,1865.69z M1214.017,1876.652h-58.479
	v-319.773h58.479V1876.652z M1417.431,1595.251c-17.067,0.612-31.228,4.346-42.483,11.216c-11.28,6.864-20.329,16.022-27.187,27.462
	c-6.845,11.446-11.727,24.562-14.62,39.359c-2.894,14.798-4.334,30.278-4.334,46.453c0,17.705,2.205,33.49,6.628,47.371
	c4.41,13.887,10.502,25.861,18.265,35.925c7.762,10.075,17.054,18.01,27.862,23.809c10.809,5.793,22.765,9.305,35.868,10.522v48.875
	c-5.787,0-13.561-0.612-23.3-1.822c-9.75-1.224-20.254-3.659-31.521-7.31c-11.268-3.659-22.611-9.062-34.032-16.219
	c-11.42-7.151-21.783-16.825-31.062-29.01c-9.292-12.172-16.838-27.181-22.611-44.993c-5.787-17.82-8.68-39.36-8.68-64.642
	c0-32.273,4.18-59.453,12.554-81.543c8.375-22.076,19.565-39.972,33.586-53.674c13.995-13.708,30.144-23.676,48.422-29.921
	c18.265-6.239,37.142-9.515,56.644-9.82V1595.251z M1555.547,1804.7c-4.143,13.25-10.898,25.664-20.254,37.231
	c-9.368,11.579-21.91,21.471-37.627,29.698c-15.729,8.221-35.778,12.937-60.135,14.161v-48.423
	c11.573-0.918,21.464-3.581,29.685-7.998c8.234-4.409,15.078-9.89,20.56-16.442c5.481-6.545,9.598-13.779,12.338-21.7
	c2.741-7.915,4.41-15.83,5.022-23.758h58.479C1562.378,1779.048,1559.688,1791.457,1555.547,1804.7z M1662.74,1605.301h-80.401
	v-48.422h80.401V1605.301z M1741.307,1876.652h-58.466v-319.773h58.466V1876.652z M1841.81,1605.301h-80.402v-48.422h80.402
	V1605.301z M2004.193,1595.71c-17.347,1.523-31.521,6.424-42.483,14.677c-10.961,8.247-19.488,18.265-25.581,30.029
	c-6.093,11.771-10.274,24.46-12.555,38.06c-2.294,13.606-3.428,26.371-3.428,38.289s1.058,24.613,3.199,38.059
	c2.128,13.454,6.233,26.066,12.326,37.831c6.093,11.771,14.62,21.853,25.581,30.265c10.975,8.406,25.276,13.377,42.942,14.9v48.422
	c-6.692-0.306-15.002-1.217-24.893-2.74c-9.903-1.523-20.254-4.34-31.062-8.451c-10.809-4.111-21.63-9.974-32.439-17.59
	c-10.808-7.603-20.547-17.583-29.226-29.921c-8.68-12.332-15.69-27.557-21.018-45.682c-5.327-18.112-7.992-39.813-7.992-65.094
	c0-24.969,2.664-46.516,7.992-64.642c5.328-18.111,12.339-33.419,21.018-45.911c8.68-12.478,18.418-22.528,29.226-30.144
	c10.809-7.609,21.63-13.479,32.439-17.589c10.808-4.111,21.158-6.927,31.062-8.451c9.89-1.523,18.201-2.434,24.893-2.74V1595.71z
	 M2162.946,1781.407c-5.328,18.118-12.339,33.426-21.019,45.911c-8.68,12.492-18.43,22.542-29.24,30.144
	c-10.809,7.616-21.617,13.479-32.426,17.59c-10.821,4.11-21.17,6.927-31.062,8.451c-9.903,1.523-18.201,2.434-24.906,2.74v-48.422
	c17.36-1.218,31.521-6.029,42.495-14.442c10.962-8.406,19.476-18.488,25.582-30.259c6.08-11.771,10.273-24.466,12.555-38.067
	c2.281-13.606,3.428-26.371,3.428-38.289s-1.071-24.606-3.199-38.059c-2.129-13.448-6.322-26.059-12.568-37.831
	c-6.246-11.764-14.836-21.853-25.798-30.265c-10.974-8.406-25.135-13.377-42.495-14.9v-48.422c6.705,0.306,15.002,1.217,24.906,2.74
	c9.891,1.524,20.241,4.34,31.062,8.451c10.809,4.11,21.617,9.98,32.426,17.589c10.809,7.616,20.56,17.583,29.24,29.921
	c8.68,12.332,15.69,27.564,21.019,45.682c5.327,18.119,7.991,39.819,7.991,65.094
	C2170.937,1741.741,2168.273,1763.288,2162.946,1781.407z M2280.846,1605.301v95.933v48.422v126.996h-58.478v-319.773h58.478
	V1605.301z M2426.112,1876.652c-2.434-3.652-4.27-7.233-5.481-10.733c-1.223-3.498-2.218-7.692-2.969-12.567
	c-0.765-4.869-1.223-10.733-1.376-17.583c-0.153-6.858-0.216-15.454-0.216-25.81c0-7.31-0.459-14.543-1.376-21.7
	c-0.918-7.15-3.582-13.625-7.992-19.412c-4.423-5.787-11.128-10.432-20.101-13.938c-8.986-3.498-21.707-5.252-38.149-5.252h-47.505
	v-48.422h52.986c7.315,0,14.925-0.459,22.841-1.37c7.915-0.918,15.155-3.04,21.706-6.399c6.54-3.346,11.88-8.145,15.984-14.39
	c4.116-6.233,6.168-14.843,6.168-25.811c0-11.566-2.281-20.552-6.856-26.951c-4.563-6.392-10.197-11.192-16.902-14.39
	c-6.704-3.193-13.855-5.092-21.464-5.71c-7.622-0.605-14.326-0.911-20.1-0.911h-49.799v-48.422h59.843
	c9.75,0,21.248,0.688,34.491,2.059c13.255,1.37,25.887,5.021,37.919,10.961c12.032,5.94,22.229,14.843,30.603,26.722
	c8.374,11.879,12.568,28.322,12.568,49.339c0,11.873-1.606,22.229-4.793,31.063c-3.2,8.833-7.316,16.442-12.338,22.841
	c-5.021,6.392-10.732,11.496-17.13,15.301c-6.399,3.811-12.797,6.622-19.183,8.45v0.918c11.255,3.652,20.101,8.673,26.486,15.072
	c6.399,6.399,11.039,13.479,13.931,21.241c2.893,7.769,4.729,15.69,5.481,23.752c0.765,8.075,1.147,15.76,1.147,23.07
	c0,10.669,0.076,19.572,0.229,26.729c0.153,7.157,0.612,13.243,1.376,18.271c0.752,5.022,1.887,9.363,3.416,13.02
	c1.53,3.652,3.811,7.31,6.857,10.962H2426.112z M2668.631,1876.652h-58.467v-127.455l-117.403-192.318h68.968l77.662,140.245
	l29.24,52.074V1876.652z M2680.969,1728.645l-29.698-52.539l65.782-119.227h68.981L2680.969,1728.645z"/>
<path fill="#867550" d="M2139.609,219.807v407.763h695.037V219.807H2139.609z M2337.341,313.617
	c-17.348,1.523-31.521,6.424-42.483,14.677c-10.961,8.247-19.489,18.265-25.581,30.029c-6.093,11.772-10.274,24.46-12.555,38.06
	c-2.294,13.606-3.429,26.372-3.429,38.289c0,11.918,1.059,24.613,3.2,38.059c2.128,13.454,6.233,26.066,12.326,37.831
	c6.092,11.771,14.62,21.853,25.581,30.265c10.974,8.406,25.276,13.377,42.941,14.9v48.422c-6.692-0.306-15.002-1.217-24.894-2.74
	c-9.903-1.523-20.253-4.34-31.062-8.451c-10.808-4.111-21.63-9.974-32.438-17.59c-10.809-7.603-20.547-17.583-29.227-29.921
	c-8.681-12.332-15.69-27.557-21.018-45.682c-5.328-18.112-7.992-39.813-7.992-65.094c0-24.969,2.664-46.516,7.992-64.642
	c5.328-18.111,12.338-33.419,21.018-45.911c8.68-12.478,18.417-22.528,29.227-30.144c10.808-7.609,21.63-13.479,32.438-17.589
	c10.809-4.111,21.158-6.927,31.062-8.451c9.891-1.523,18.202-2.434,24.894-2.74V313.617z M2496.092,499.314
	c-5.328,18.118-12.338,33.426-21.019,45.911c-8.68,12.492-18.43,22.541-29.239,30.144c-10.809,7.616-21.617,13.479-32.426,17.59
	c-10.821,4.11-21.171,6.927-31.062,8.451c-9.904,1.523-18.202,2.434-24.906,2.74v-48.422c17.36-1.218,31.521-6.029,42.495-14.442
	c10.962-8.406,19.476-18.488,25.582-30.259c6.08-11.772,10.273-24.466,12.554-38.067c2.282-13.606,3.429-26.371,3.429-38.289
	c0-11.917-1.071-24.606-3.2-38.059c-2.128-13.447-6.321-26.059-12.567-37.831c-6.246-11.764-14.836-21.853-25.798-30.265
	c-10.974-8.406-25.135-13.377-42.495-14.9v-48.423c6.704,0.306,15.002,1.217,24.906,2.74c9.89,1.524,20.241,4.34,31.062,8.451
	c10.809,4.11,21.617,9.98,32.426,17.589c10.808,7.616,20.559,17.583,29.239,29.921c8.681,12.332,15.69,27.564,21.019,45.682
	c5.328,18.119,7.991,39.819,7.991,65.094C2504.084,459.648,2501.42,481.195,2496.092,499.314z M2613.993,594.559h-58.479V274.786
	h58.479V594.559z M2758.801,459.342h-124.707V410.92h124.707V459.342z M2782.1,323.208h-148.007v-48.423H2782.1V323.208z"/>
<g>
	<rect x="0" y="15.518" fill="none" width="1812.302" height="301.69"/>
	<text transform="matrix(1 0 0 1 -1.921491e-04 120.5181)"><tspan x="0" y="0" fill="#867550" font-family="'Voina'" font-size="150">5</tspan><tspan x="89.249" y="0" fill="#867550" font-family="'Voina'" font-size="150" letter-spacing="-29">.</tspan><tspan x="111.748" y="0" fill="#867550" font-family="'Voina'" font-size="150">1</tspan><tspan x="200.996" y="0" fill="#867550" font-family="'Voina'" font-size="150" letter-spacing="-22">1</tspan><tspan x="268.795" y="0" fill="#867550" font-family="'Voina'" font-size="150">.2</tspan><tspan x="408.893" y="0" fill="#867550" font-family="'Voina'" font-size="150" letter-spacing="-6">0</tspan><tspan x="492.891" y="0" fill="#867550" font-family="'Voina'" font-size="150" letter-spacing="-6">1</tspan><tspan x="575.989" y="0" fill="#867550" font-family="'Voina'" font-size="150">6 — 15.5.2</tspan><tspan x="1338.575" y="0" fill="#867550" font-family="'Voina'" font-size="150" letter-spacing="-9">0</tspan><tspan x="1419.574" y="0" fill="#867550" font-family="'Voina'" font-size="150">17</tspan></text>
</g>
<rect x="29.057" y="1606.8" fill="none" width="1353.701" height="265.119"/>
<text transform="matrix(1 0 0 1 29.0569 1646.6996)"><tspan x="0" y="0" fill="#867550" font-family="'PragmaticaMedium'" font-size="57">Historical-documentary </tspan><tspan x="0" y="75" fill="#867550" font-family="'PragmaticaMedium'" font-size="57">Exhibition for </tspan><tspan x="0" y="150" fill="#867550" font-family="'PragmaticaMedium'" font-size="57">the 75th anniversary </tspan><tspan x="0" y="225" fill="#867550" font-family="'PragmaticaMedium'" font-size="57">of the Battle of Moscow</tspan></text>
</svg>
